<?xml version="1.0" standalone="no"?>
<svg version="1.0" xmlns="http://www.w3.org/2000/svg"
 width="938.000000pt" height="1280.000000pt" viewBox="0 0 938.000000 1280.000000"
 preserveAspectRatio="xMidYMid meet">
<metadata>
Created by potrace 1.15, written by Peter Selinger 2001-2017
</metadata>
<g transform="translate(0.000000,1280.000000) scale(0.100000,-0.100000)"
fill="#000000" stroke="none">
<path d="M2824 12786 c-10 -27 22 -67 98 -124 96 -72 339 -218 528 -317 80
-42 136 -74 125 -70 -89 29 -220 55 -302 61 -84 6 -100 4 -112 -10 -11 -13
-11 -17 0 -21 8 -3 46 -16 84 -29 39 -13 180 -71 315 -128 209 -90 455 -183
630 -240 l45 -15 -45 -26 c-25 -14 -104 -53 -177 -85 -199 -89 -436 -239 -688
-434 -153 -118 -428 -392 -577 -576 -372 -459 -826 -1197 -1107 -1798 -125
-269 -199 -447 -366 -879 -243 -631 -279 -748 -290 -955 -13 -247 -60 -545
-125 -787 l-29 -108 16 -81 c24 -126 19 -139 -104 -265 -94 -97 -110 -119
-148 -201 -23 -51 -60 -122 -82 -158 -22 -36 -52 -87 -68 -115 -15 -27 -74
-120 -131 -205 -173 -262 -295 -503 -311 -615 -8 -62 16 -99 60 -92 78 13 148
64 457 326 69 59 182 153 252 209 70 56 153 132 185 168 52 59 161 144 184
144 5 0 9 -40 9 -89 0 -90 -26 -199 -108 -457 l-29 -90 -135 -137 c-139 -139
-263 -286 -338 -399 -24 -35 -76 -97 -116 -138 -40 -41 -81 -93 -90 -115 -9
-22 -30 -59 -46 -83 -22 -32 -29 -52 -27 -80 2 -20 -3 -47 -10 -60 -16 -29 2
-37 72 -29 101 10 574 146 739 212 17 7 17 4 4 -32 -8 -22 -23 -58 -34 -79
-31 -61 -120 -327 -152 -454 -93 -368 -43 -599 149 -689 51 -24 71 -27 216
-32 92 -3 173 -10 192 -18 24 -9 45 -10 89 -2 203 38 321 181 398 483 13 52
48 150 79 219 31 68 92 222 136 341 88 237 185 456 231 523 46 67 84 92 187
125 52 16 100 34 107 39 6 5 29 14 52 20 60 16 416 190 524 256 133 81 192
129 342 278 148 148 204 188 426 305 170 90 242 124 242 114 0 -4 -46 -61
-101 -127 -55 -66 -121 -151 -147 -188 -44 -64 -47 -74 -53 -151 -5 -65 -16
-107 -53 -198 -25 -64 -46 -125 -46 -135 0 -31 43 -147 108 -293 87 -196 98
-251 83 -408 -7 -80 -13 -442 -15 -972 -3 -465 -9 -901 -15 -970 -6 -69 -13
-164 -17 -213 -8 -106 -36 -155 -117 -210 -97 -66 -157 -80 -372 -85 -188 -4
-191 -4 -247 -34 -62 -33 -171 -138 -247 -238 -39 -52 -47 -68 -37 -78 10 -10
26 -4 81 34 158 105 252 137 406 138 l107 1 143 72 c226 113 256 115 404 31
126 -71 210 -135 299 -228 161 -168 242 -344 261 -562 7 -76 7 -78 65 -145
116 -134 134 -167 138 -244 4 -73 20 -101 42 -74 8 10 13 56 13 137 2 140 -4
159 -93 313 -79 136 -91 175 -100 302 -11 171 -55 243 -177 292 -50 20 -103
84 -103 125 0 58 31 61 206 16 282 -72 466 -137 664 -231 161 -78 350 -199
393 -253 32 -41 75 -56 162 -56 118 0 167 -32 223 -146 34 -69 62 -75 62 -11
0 93 -89 220 -197 282 -27 15 -55 34 -63 41 -8 7 -65 29 -125 49 -131 43 -160
59 -296 166 -146 115 -208 143 -328 146 -77 3 -107 9 -170 34 -152 62 -170 68
-248 78 -71 9 -81 13 -110 45 -39 42 -43 79 -10 100 14 8 66 16 142 20 145 8
255 33 355 80 93 45 162 48 276 12 43 -14 81 -23 86 -20 20 13 4 35 -52 73
-116 77 -259 112 -376 93 -84 -14 -176 -57 -238 -113 l-50 -44 -145 1 c-169 1
-218 8 -225 32 -14 43 -57 326 -71 464 -27 268 -35 615 -31 1293 5 729 -1 665
76 920 l39 130 26 385 c19 271 31 395 41 420 31 71 126 230 143 239 16 9 17 6
8 -42 -9 -47 -7 -58 17 -104 46 -92 67 -81 85 47 16 105 32 146 63 155 12 4
39 20 58 35 19 15 67 43 105 63 39 20 108 68 154 106 47 39 89 71 94 71 10 0
-43 -96 -85 -155 -30 -41 -123 -121 -252 -215 -87 -64 -101 -89 -93 -166 7
-67 -5 -98 -46 -115 -30 -13 -33 -12 -189 18 -21 4 -28 1 -28 -10 0 -20 73
-85 106 -93 33 -9 127 3 167 20 18 7 93 71 167 141 209 198 190 182 190 157 0
-28 -300 -306 -371 -345 -47 -25 -60 -27 -166 -27 -139 0 -145 -11 -38 -72
108 -62 143 -73 177 -60 37 14 46 -3 24 -45 -28 -53 -71 -93 -141 -131 -91
-49 -92 -66 -3 -70 113 -5 161 30 239 178 57 107 88 134 198 175 51 19 120 49
154 67 77 41 170 127 206 189 38 67 204 260 218 255 7 -3 80 100 174 245 89
137 163 248 165 246 2 -2 -5 -30 -15 -63 -11 -32 -44 -140 -74 -239 l-55 -180
-6 -232 c-6 -229 -6 -233 14 -233 11 0 20 2 20 5 0 15 110 498 114 503 10 9 7
-19 -10 -103 -18 -88 -20 -319 -6 -572 8 -136 9 -145 37 -184 44 -61 62 -70
85 -39 23 31 56 142 69 240 6 41 20 143 32 225 56 407 177 883 306 1200 59
145 98 215 180 316 88 109 335 361 443 452 47 40 135 122 195 183 61 61 156
150 211 198 107 92 216 212 272 299 96 150 129 251 148 460 8 88 16 162 18
164 8 8 200 -150 281 -231 151 -153 253 -303 430 -636 227 -427 551 -958 627
-1026 64 -58 88 -34 88 84 -1 217 -28 315 -330 1172 -174 496 -351 1022 -347
1033 1 5 25 -10 52 -33 105 -91 276 -136 236 -63 -5 10 -44 39 -88 65 -79 47
-123 82 -123 97 0 14 80 22 150 15 78 -7 115 6 107 37 -4 16 1 21 24 26 16 3
33 11 39 19 18 20 -20 34 -92 34 -67 0 -230 23 -288 41 -19 6 -49 21 -67 33
l-32 21 43 40 c52 48 76 115 76 215 0 79 -18 144 -64 232 -25 48 -36 85 -41
134 -14 152 -77 334 -192 552 -221 422 -478 749 -708 901 -260 171 -712 301
-1047 301 l-105 0 -120 89 c-227 168 -335 233 -508 309 -257 112 -516 171
-925 211 -243 24 -417 59 -705 142 -242 69 -373 114 -810 281 -130 50 -381
181 -522 273 -132 86 -159 97 -169 71z m121 -94 c-3 -3 -18 7 -33 23 l-27 28
33 -23 c18 -12 31 -25 27 -28z m4094 -1358 c10 -9 -56 -3 -69 7 -11 7 -4 8 25
3 22 -4 42 -8 44 -10z m-3804 -112 c-17 -16 -78 -73 -136 -128 -85 -80 -81
-74 24 29 71 70 132 127 136 127 3 0 -8 -13 -24 -28z m5235 -3275 c18 -15 210
-386 210 -404 0 -5 -28 42 -61 102 -68 122 -136 231 -181 288 -28 35 -28 37
-8 34 11 -2 30 -11 40 -20z m870 -1438 l0 -51 -19 23 c-18 22 -18 26 -3 51 9
16 18 28 19 28 2 0 3 -23 3 -51z m-4855 -1099 c-3 -5 -14 -10 -23 -9 -14 0
-13 2 3 9 27 11 27 11 20 0z m1510 -115 c-4 -42 -9 -74 -12 -71 -3 2 -2 39 2
81 4 42 10 74 12 71 3 -3 2 -39 -2 -81z m-8 -222 c-2 -16 -4 -5 -4 22 0 28 2
40 4 28 2 -13 2 -35 0 -50z m10 -250 c-1 -43 -3 -10 -3 72 0 83 2 118 3 78 2
-40 2 -107 0 -150z m65 -175 c-7 -7 -12 -8 -12 -2 0 14 12 26 19 19 2 -3 -1
-11 -7 -17z m-3797 -268 c-3 -5 -11 -10 -16 -10 -6 0 -7 5 -4 10 3 6 11 10 16
10 6 0 7 -4 4 -10z m-395 -1371 c-23 -76 -65 -179 -74 -179 -3 0 2 17 11 38 9
20 29 79 45 131 16 51 32 91 35 88 3 -3 -5 -38 -17 -78z m-303 -375 c-3 -3
-12 -4 -19 -1 -8 3 -5 6 6 6 11 1 17 -2 13 -5z m-44 -11 c-7 -2 -21 -2 -30 0
-10 3 -4 5 12 5 17 0 24 -2 18 -5z"/>
</g>
</svg>
