<?xml version="1.0" encoding="UTF-8"?>
<svg viewBox="0 0 274.57278 243.0477" xmlns="http://www.w3.org/2000/svg">
 <g transform="translate(-311.19 -424.76)">
  <path d="m422.19 666.82c0-0.77248 1.3367-2.0957 2.9704-2.9405 3.3974-1.7569 5.963-5.5153 3.7648-5.5153-0.73435 0-1.7627 0.38495-2.2852 0.85545-3.6123 3.2528-23.14 5.8853-20.555 2.7711 0.62694-0.75542 3.382-1.6709 6.1224-2.0344 3.3464-0.44391 4.9826-1.1306 4.9826-2.0913 0-1.9164 2.5355-3.1587 8.1713-4.0038 2.7847-0.41755 5.4853-1.568 6.6869-2.8487 1.1086-1.1815 4.3409-7.7733 7.1829-14.648s7.2066-17.45 9.6992-23.5c4.3333-10.518 7.256-21.735 7.2586-27.857 0.00124-3.0112-2.6348-15.694-3.9936-19.214-1.7886-4.6339-9.5252-13.5-15.768-18.07-15.682-11.479-25.669-25.406-31.789-44.327-1.5064-4.6573-4.0082-11.152-5.5595-14.432-3.8077-8.0515-4.4022-13.164-2.8738-24.712 1.1542-8.7204 1.1192-10.035-0.32541-12.24-2.1796-3.3265-7.6887-5.0233-13.514-4.1623-11.341 1.676-36.628 13.127-53.454 24.207-9.7176 6.3987-13.826 10.892-15.289 16.724-0.86859 3.4607-2.4315 3.2892-2.4315-0.26687 0-2.8626 4.4716-9.9831 8.4224-13.412 8.6615-7.5164 25.673-17.179 45.386-25.779 16.104-7.0254 17.997-8.2098 18.737-11.722 1.6286-7.7267 4.7852-10.908 12.516-12.615 6.2591-1.3819 14.634 3.8928 16.852 10.614 0.62214 1.8851 1.248 9.0156 1.3909 15.846 0.24332 11.632 0.46127 12.838 3.4435 19.053 3.2824 6.8402 10.606 14.5 14.669 15.343 3.8432 0.79751 16.018 2.4194 23.083 3.075 12.526 1.1624 25.522 4.0589 38 8.469 2.75 0.97197 8.0338 2.5386 11.742 3.4814s6.4971 2.1101 6.1981 2.594 0.06213 0.64725 0.8026 0.36311 4.6518 0.84643 8.6918 2.5124 10.188 3.5528 13.663 4.193 6.0882 1.5346 5.8082 1.9876 0.12925 0.57868 0.90934 0.27933 4.066 0.41074 7.3019 1.578 6.8721 2.2528 8.0804 2.4124c3.8114 0.50332 8.3038 2.7668 7.636 3.8474-0.36441 0.58964-0.1589 0.74001 0.47551 0.34792 1.3037-0.80571 9.1917 3.8968 9.1917 5.4797 0 0.69908-2.2653 0.91989-6.5 0.63359-6.6861-0.45203-8.8412 0.55003-3.4863 1.621 1.6576 0.33151 6.7201 0.89731 11.25 1.2573 9.7337 0.7736 12.418 1.7529 8.7145 3.1795-6.3781 2.4569-10.086 3.2104-15.799 3.2104-6.6521 0-7.6511-0.98934-3.6478-3.6124 3.5491-2.3254 2.2751-2.977-1.4818-0.75774-1.7219 1.0172-2.869 2.3979-2.592 3.1199 0.35663 0.92936-0.55577 1.2606-3.2302 1.1726-2.05-0.06743-8.9022 0.81986-15.227 1.9718s-14.2 2.1048-17.5 2.1175c-11.653 0.04491-23.6 3.6358-33.736 10.14l-4.7547 3.0511 5.5828 6.3589c3.0706 3.4974 6.3322 6.5968 7.248 6.8874 2.7427 0.87051 4.212 4.269 5.7905 13.393 1.7115 9.8933 7.3027 32.74 10.989 44.903 2.2045 7.2737 2.8163 8.3151 5.1898 8.8335 5.3628 1.1713 5.7998 1.4262 4.171 2.4328-0.80501 0.49752-2.4799 0.64953-3.722 0.33779-1.7535-0.4401-2.2583-0.14021-2.2583 1.3416 0 1.0496 0.51689 2.4253 1.1486 3.0571 0.86487 0.86487 0.76718 1.7172-0.39545 3.45-4.1457 6.1788-4.5401 6.3269-16.821 6.3137-6.6569-0.00717-11.612-0.43003-11.861-1.0123-0.23589-0.55 0.21411-1.0848 1-1.1885s4.1289-0.49444 7.4289-0.86841c4.813-0.54544 5.5549-0.84798 3.75-1.5293-1.2375-0.46715-2.25-1.3139-2.25-1.8816 0-1.071 1.0939-1.2967 7-1.4446l3.5-0.08763-0.13013-10.5c-0.11327-9.1391-0.80961-13.157-5.3727-31-6.0561-23.681-8.8789-29.97-17.731-39.504l-6.234-6.714-10.124 0.72464-10.124 0.72463-2.5048 5.4712c-2.3467 5.1258-2.4312 5.8602-1.339 11.634 0.64115 3.3898 1.8684 8.3467 2.7273 11.015 1.8621 5.786 1.3329 10.074-1.8874 15.291-4.3105 6.9833-12.827 27.886-17.408 42.726l-1.8116 5.8687 2.72 2.1689c1.496 1.1929 2.72 2.4636 2.72 2.8239 0 0.68722-3.9374 0.16581-4.7295-0.62631-0.69534-0.69534-5.9068 5.5953-6.6746 8.0567-1.18 3.7829-11.596 8.9885-11.596 5.7953zm12-13.015c0-0.24254-0.45-0.44098-1-0.44098s-1 0.47656-1 1.059 0.45 0.7809 1 0.44098 1-0.81648 1-1.059zm75-5c0-0.24254-0.45-0.44098-1-0.44098s-1 0.47656-1 1.059 0.45 0.7809 1 0.44098 1-0.81648 1-1.059zm5.5-1.441c0.731-1.1828-0.24752-1.1828-3 0-1.9282 0.82859-1.9214 0.86195 0.19098 0.92971 1.205 0.03866 2.4691-0.37971 2.809-0.92971zm3.5-7.059c0-0.58246-0.45-0.7809-1-0.44098-1.2814 0.79194-1.2814 1.5 0 1.5 0.55 0 1-0.47656 1-1.059zm-61-78.378c0-0.7252-0.67005-1.8746-1.489-2.5543s-1.1994-1.7043-0.84549-2.277 0.17496-0.75162-0.3977-0.3977-1.5973-0.02655-2.277-0.84549-0.90055-1.489-0.49086-1.489 0.2283-0.62245-0.40308-1.3832c-1.8893-2.2765 1.4223-2.8055 3.4609-0.55287 1.2635 1.3962 2.0936 1.6404 3.0049 0.884 0.89366-0.74167 1.4767-0.66807 2.0085 0.25353 0.41214 0.71421 0.38111 0.96496-0.06897 0.55724s-1.4222-0.24013-2.1603 0.37244c-0.99326 0.82433-1.7318 0.79026-2.842-0.13112-0.86459-0.71755-1.5-0.81474-1.5-0.22943 0 1.1137 2.9572 2.674 4.4193 2.3318 0.5056-0.11835 0.37125 0.44515-0.29856 1.2522-0.73049 0.88019-0.8374 1.7025-0.26717 2.0549 0.96712 0.59772 5.1465-5.6049 5.1465-7.6379 0-0.61275-0.74474-1.937-1.655-2.9428-1.0383-1.1474-1.2129-1.8287-0.46861-1.8287 0.6525 0 1.4336 0.64429 1.7358 1.4318s1.4374 1.3649 2.5226 1.2831c1.4849-0.11185 1.8417-0.67239 1.442-2.2651-0.349-1.3905-0.05721-2.1165 0.85068-2.1165 0.76003 0 1.1724 0.54582 0.91643 1.2129-0.70967 1.8494 4.5559 5.511 7.2282 5.0264 1.2718-0.23063 2.5279 0.10866 2.7912 0.75398s0.51435 0.377 0.55777-0.59626c0.061-1.3673 0.70404-1.6617 2.829-1.2949 2.5707 0.4437 2.6263 0.38186 0.85268-0.94841-1.0435-0.78268-2.3506-1.1429-2.9045-0.80058-0.57145 0.35317-0.69849 0.123-0.29366-0.53203 0.63714-1.0309-0.55787-1.604-2.6545-1.2729-0.4125 0.06513-0.75-0.36378-0.75-0.95315s1.0125-0.94074 2.25-0.78085 2.8125-0.05946 3.5-0.48745c1.8847-1.1733 3.592 0.22285 2.25 1.8399-0.80477 0.96968-0.76681 1.5261 0.14242 2.088 0.69332 0.4285 1.4124 0.2474 1.6319-0.41097 0.21579-0.64738 1.0298-1.177 1.809-1.177s1.4167-0.64844 1.4167-1.441 0.51953-1.7621 1.1545-2.1545c0.75692-0.4678 0.88117-0.27126 0.3608 0.57071-0.48887 0.79101-0.35618 1.1384 0.34549 0.90451 1.7838-0.59459 1.2187-2.4068-0.66936-2.1468-0.93029 0.12813-6.3036 0.35313-11.941 0.5s-10.25 0.65964-10.25 1.1395-0.61598 0.3618-1.368-0.26233c-1.0362-0.85997-1.6534-0.7901-2.5486 0.28853-0.80628 0.97151-0.8484 1.629-0.13268 2.0714 0.57671 0.35642 1.0486 1.0925 1.0486 1.6357 0 1.1604-4.9223-2.2225-4.9686-3.4147-0.01728-0.44496 0.38749-0.55012 0.89948-0.23369s1.1996 0.14057 1.528-0.3908c0.58879-0.95269-2.389-3.0665-4.3198-3.0665-0.54583 0-1.1784 0.7875-1.4057 1.75-0.30882 1.3075-0.6076 1.0547-1.1817-1-0.73149-2.6179-2.5516-3.8662-2.5516-1.75 0 0.55-0.45 1-1 1s-1-0.85186-1-1.893c0-2.1847-3.0047-3.7174-4.0313-2.0563-0.42094 0.68109-0.91787 0.25168-1.2709-1.0982-0.43077-1.6473-1.1085-2.0783-2.6387-1.6782-1.2092 0.31622-2.0591 0.05728-2.0591-0.62737 0-0.64121-0.9-1.7279-2-2.4149-1.6681-1.0418-2-0.99869-2 0.25946 0 0.82966-0.45 1.5085-1 1.5085s-1-1.0699-1-2.3776c0-2.6636-2.3582-5.1371-3.9562-4.1495-0.59598 0.36833-1.0438-0.23827-1.0438-1.4139 0-1.352-0.64862-2.059-1.8889-2.059-1.1852 0-1.8371-0.65196-1.75-1.75 0.09403-1.1848-0.45877-1.6476-1.7115-1.4331-1.1743 0.20111-1.5942-0.09751-1.1494-0.81731 0.41153-0.66586-0.13783-1.3535-1.3304-1.6654-1.2273-0.32096-1.8185-1.086-1.4936-1.9327 0.29801-0.77661-0.06724-1.404-0.8192-1.4071-0.90114-0.00375-1.4119-1.4218-1.5206-4.2212-0.08996-2.3185-0.65246-4.3785-1.25-4.5777-1.4718-0.49058-1.3896-2.2599 0.09032-1.9455 0.68188 0.14487 1.2635-1.1167 1.383-3 0.13957-2.1994-0.24082-3.25-1.1768-3.25-0.76064 0-1.3899-0.5625-1.3983-1.25-0.01021-0.83333-0.33844-0.75-0.98469 0.25-0.84944 1.3144-0.97127 1.3041-0.98469-0.08333-0.0258-2.6675 1.1377-2.9415 3.7535-0.88391 1.3755 1.082 3.1528 1.9672 3.9494 1.9672 1.8654 0 1.0723-2.4914-0.80428-2.5264-1.9436-0.03633-3.9139-1.3729-3.9139-2.655 0-0.74505 0.38797-0.74144 1.2958 0.01203 0.71272 0.59151 2.7662 0.88938 4.5632 0.66196 1.8638-0.23588 5.4849 0.46055 8.4294 1.6212 3.3278 1.3117 5.2893 1.653 5.5201 0.96049 0.2169-0.65069 3.6342-1.0742 8.6677-1.0742 6.5875 0 8.4331-0.32164 8.9052-1.5519 0.32754-0.85356 0.19784-1.3062-0.28823-1.0057s-1.1371-0.11395-1.4467-0.92079c-0.45087-1.175-2.1638-1.3777-8.6048-1.0183-5.2041 0.29036-8.0418 0.08052-8.0418-0.59466 0-0.58829 0.87232-0.7665 2-0.40859 1.1473 0.36414 2 0.1797 2-0.43261 0-0.58707-1.6875-1.1187-3.75-1.1814-6.5386-0.19881-9.5215-0.75465-10.652-1.9849-0.82898-0.90233-0.65645-1.0396 0.70369-0.5597 1.136 0.40079 1.5606 0.24521 1.1488-0.421-0.3592-0.58119-1.2277-0.8362-1.9301-0.56669s-1.7818-0.0148-2.3988-0.63182c-0.68432-0.68432-1.1219-0.72719-1.1219-0.10992 0 1.6326 6.0053 5.6 7.5686 5.0001 0.78726-0.30211 1.4314-0.06526 1.4314 0.52632s0.66059 0.82212 1.468 0.51229 1.734-0.13296 2.059 0.39301-0.67301 0.97435-2.218 0.99637l-2.809 0.04004 2.8384 1.5382c3.4913 1.892 2.9172 2.9109-0.70918 1.2586-1.4461-0.65888-2.6292-1.8007-2.6292-2.5374s-0.47656-1.3395-1.059-1.3395-0.7809 0.45-0.44098 1c0.35913 0.58109-0.6285 1-2.3576 1-1.6366 0-3.1436-0.50367-3.3488-1.1193s-2.0567-1.2703-4.1145-1.455c-2.222-0.19939-3.4998 0.05522-3.1465 0.62693 0.99455 1.6092-2.0589 4.021-3.3968 2.683-0.62464-0.62464-1.1288-1.6082-1.1204-2.1857s0.43396-0.38803 0.94563 0.42104 1.2439 1.1574 1.6272 0.77417 0.1191-1.393-0.58707-2.2439c-1.0815-1.3031-1.0251-1.4477 0.3575-0.91717 2.4651 0.94596 1.988-0.31269-1.3586-3.5841-1.65-1.6129-3-3.3427-3-3.8438s-0.6837-1.4787-1.5193-2.1722c-1.0612-0.88075-1.3595-2.3499-0.98926-4.8724 0.40094-2.7317 0.30097-3.1243-0.41038-1.6115-0.76722 1.6316-0.94716 1.2632-0.97681-2l-0.03636-4 1.8874 3.9923c1.1092 2.3461 1.5311 4.4216 1.0233 5.0335-0.96956 1.1682 0.53306 4.2959 1.5671 3.2618 0.3599-0.35991 0.65437-2.2581 0.65437-4.2183s0.405-3.3136 0.9-3.0076 0.9 1.2047 0.9 1.9972 0.45 1.441 1 1.441 1 1.0732 1 2.385c0 1.4314 0.98548 3.0307 2.4648 4 2.8932 1.8957 4.4525 2.1323 2.7352 0.41501-0.66-0.66-1.2-2.1975-1.2-3.4167s-0.5625-2.4229-1.25-2.675c-0.96718-0.35463-0.93398-0.76944 0.1467-1.8333 0.88255-0.86883 1.1369-0.91485 0.69099-0.125-0.38815 0.6875-0.22917 1.25 0.35329 1.25s1.059-0.7072 1.059-1.5716c0-1.1159-0.7723-1.4783-2.6636-1.25-2.164 0.26127-2.6958-0.10704-2.8355-1.9639-0.09456-1.257-0.74654-2.832-1.4488-3.5-1.0254-0.97524-1.1434-0.72199-0.599 1.2855 0.52309 1.9291 0.43458 2.1574-0.3876 1-0.94712-1.3333-1.1856-1.3333-2.1464 0-0.83983 1.1655-0.94756 0.88857-0.48307-1.2416 0.33425-1.5328-0.05301-4.2992-0.87832-6.2745-0.81189-1.9431-1.2192-4.2026-0.90507-5.0212s0.1406-2.045-0.38555-2.7255-1.2574-2.1373-1.625-3.2373c-0.53976-1.6151-0.28524-1.5189 1.3225 0.5 2.2552 2.8319 2.5108 2.3892 0.97248-1.6849-0.86937-2.3025-0.82708-2.5816 0.23222-1.5329 0.71233 0.70523 1.2503 2.9927 1.1955 5.0833-0.06754 2.5757 0.33604 3.8011 1.2519 3.8011 0.95976 0 1.0542-0.35834 0.32571-1.2361-0.59439-0.7162-0.63887-1.3821-0.10574-1.5833 0.50606-0.19099 1.1301-1.6972 1.3868-3.3472s0.27732-2.432 0.04594-1.7378c-0.56094 1.683-2.2693 0.54866-2.2693-1.5068 0-0.89459-0.98847-2.6787-2.1966-3.9647l-2.1966-2.3382 2.4466 0.37338c1.3456 0.20536 2.2216 0.59687 1.9466 0.87003-0.64775 0.64342 1.9679 3.804 3.1481 3.804 0.49678 0 0.27843-1.2375-0.48523-2.75-1.5331-3.0364-1.1472-5.6552 0.67252-4.5643 0.64052 0.384 0.54699-0.06319-0.20785-0.99377-1.4243-1.7559-3.683-2.3997-2.6703-0.76106 0.31644 0.512 0.04846 1.2565-0.59549 1.6545-0.67652 0.41812-0.90445 0.29262-0.53989-0.29725 0.34701-0.56148-0.22611-1.7965-1.2736-2.7444-1.4586-1.32-2.3311-1.4755-3.7264-0.66405-1.5929 0.92632-1.613 1.0633-0.16037 1.0899 1.0359 0.01896 1.5354 0.68935 1.3265 1.7804-0.18426 0.9625-0.36944 1.9971-0.41152 2.2991s-1.6515 1.1186-3.5765 1.8147-3.5 1.6865-3.5 2.2009c0 1.3035 0.70342 1.1757 3.456-0.62783 2.2186-1.4537 2.3615-1.4362 2.0413 0.25-0.18935 0.9972-0.3787 2.328-0.42078 2.9573-0.07226 1.0807-5.0743 1.4255-5.0758 0.3499-3.9e-4 -0.27824-1.4632-1.1588-3.2507-1.9568l-3.25-1.4509 3.8092-1.0799c2.095-0.59393 4.156-1.6411 4.58-2.327s1.4098-1.0807 2.1908-0.87719 1.0798 0.18029 0.66382-0.05154-0.51582-0.81051-0.22199-1.2859-0.4356-1.3834-1.621-2.0178c-1.6921-0.90558-2.3349-0.86269-2.9914 0.19959-0.54523 0.8822-0.29403 1.5432 0.72191 1.8996 2.127 0.74612-3.1384 3.2954-6.8814 3.3316-1.5125 0.01463-2.75 0.41219-2.75 0.88347s-0.40769 0.60489-0.90597 0.29693c-0.97123-0.60025-11.417 4.4521-10.696 5.1733 0.23684 0.23684 1.2567-0.00197 2.2663-0.53068s3.4106-0.81005 5.3356-0.62521c3.3471 0.3214 3.369 0.30334 0.5-0.41352l-3-0.7496 2.5464-0.67417c1.4005-0.37079 3.8755-0.27727 5.5 0.20784 2.136 0.63786 2.4 0.91795 0.95357 1.0118-1.2571 0.08161-0.51419 0.65677 2 1.5484 6.6902 2.3726 7.8808 4.6874 6.9402 13.494-1.6078 15.053-1.1835 19.855 2.4296 27.5 1.8194 3.85 4.5774 10.825 6.1288 15.5s4.5416 11.576 6.6448 15.336c3.772 6.7428 13.289 17.664 15.393 17.664 0.59472 0 0.7963 0.46115 0.44796 1.0248s-0.2624 0.91355 0.19098 0.77761 2.0384 0.56429 3.5222 1.556 3.5088 1.9391 4.5 2.1052 1.6897 0.80474 1.5522 1.4192 0.29205 1.0047 0.95455 0.86716 1.225 0.25294 1.25 0.86765c0.025 0.6147 1.9541 3.0263 4.287 5.3592s3.9508 4.7119 3.5955 5.2869-0.19538 0.7668 0.35544 0.42638c1.204-0.7441 6.6284 4.6558 5.6549 5.6293-0.37436 0.37437-0.12911 0.68067 0.54502 0.68067s0.9046 0.51953 0.51216 1.1545c-0.44208 0.7153-0.27432 0.88306 0.44098 0.44098 0.63498-0.39244 1.1545-1.3069 1.1545-2.0321zm-2.5087-10.573c-2.2154-2.448-1.1886-3.9083 1.2526-1.7814 0.96587 0.84152 2.4311 1.3022 3.2561 1.0236 1.5719-0.53068 1.4946-0.42188-1.0982 1.5468-1.3023 0.98881-1.9338 0.8427-3.4105-0.7891zm15.551-2.1652c-1.1926-1.111-1.7241-2.4915-1.3424-3.4863 0.5457-1.4221 0.89611-1.3206 2.5674 0.7433 1.0645 1.3146 2.4522 2.3964 3.0839 2.404s1.3735 0.42656 1.6485 0.93098c0.94607 1.7353-3.9853 1.2453-5.9574-0.59202zm-29.08-6.364c-1.845-1.9036-2.9288-3.4754-2.4085-3.4929s0.15368-0.63325-0.81492-1.3684c-1.5594-1.1834-1.588-1.4802-0.25-2.5906 1.2651-1.0499 1.5111-0.91817 1.5111 0.80934 0 2.404 2.1794 4.1432 2.8124 2.2443 0.28098-0.84296 1.2437-0.29688 2.773 1.573 2.0705 2.5314 2.3486 2.6318 2.3939 0.86418 0.04258-1.6608 0.21569-1.7456 1.0206-0.5 2.1295 3.2951-0.02851 4.1892-3.1949 1.3236-1.5294-1.3841-2.0662-1.4457-3.0787-0.3533-0.70618 0.76187-0.75284 1.0588-0.11002 0.69996 1.3448-0.75061 4.903 2.8907 3.6072 3.6915-0.49868 0.3082-2.4163-0.99712-4.2613-2.9007zm4.0377 2.1614c0-0.20765-0.7875-0.99515-1.75-1.75-1.5861-1.2439-1.6214-1.2085-0.37756 0.37756 1.3064 1.6658 2.1276 2.1955 2.1276 1.3724zm-14-7.6224c-0.5887-1.1-0.84537-2-0.57037-2s0.98167 0.9 1.5704 2 0.84537 2 0.57037 2-0.98167-0.9-1.5704-2zm0.07895-6.4167c-0.04342-1.0542 0.19292-1.6448 0.52522-1.3125s0.36781 1.1948 0.07894 1.9167c-0.31922 0.79773-0.55618 0.56078-0.60416-0.60417zm-4.079-1.0833c0-0.825-0.45-1.5-1-1.5s-1-0.675-1-1.5 0.45-1.5 1-1.5 1 0.675 1 1.5 0.45 1.5 1 1.5 1 0.675 1 1.5-0.45 1.5-1 1.5-1-0.675-1-1.5zm-4.3616-7c0.73703-1.9207 1.3616-1.9207 1.3616 0 0 0.825-0.43588 1.5-0.96862 1.5s-0.70959-0.675-0.39301-1.5zm-3.6384-2.382c0-0.55 0.45-1.2781 1-1.618s1-0.16803 1 0.38197-0.45 1.2781-1 1.618-1 0.16803-1-0.38197zm-3-3.559c0-0.24254 0.45-0.7191 1-1.059s1-0.14148 1 0.44098-0.45 1.059-1 1.059-1-0.19844-1-0.44098zm-2.8357-15.861c-0.79832-0.96191-0.57796-1.3165 0.88669-1.4268 1.9969-0.15042 2.6503 1.1774 1.0623 2.1589-0.48768 0.30141-1.3647-0.028-1.949-0.73202zm-4.6643-6.698c-0.99549-1.1-1.3985-2-0.89553-2s1.4765 0.9 2.1635 2c1.5971 2.5574 1.0464 2.5574-1.2679 0zm26.5-2c-1.2927-0.8354-1.2663-0.97149 0.19098-0.98469 0.93004-0.00842 1.9691 0.43469 2.309 0.98469 0.78218 1.2656-0.54163 1.2656-2.5 0zm5 0c-1.3333-0.86167-1.3333-0.96937 0-0.96937 0.825 0 2.175 0.43621 3 0.96937 1.3333 0.86167 1.3333 0.96937 0 0.96937-0.825 0-2.175-0.43621-3-0.96937zm6.5 0c-1.6665-0.71611-1.4482-0.87115 1.309-0.92971 1.9661-0.04177 3.0582 0.33554 2.691 0.92971-0.72049 1.1658-1.2871 1.1658-4 0zm-40-5c-0.33992-0.55-0.14148-1 0.44098-1s1.059 0.45 1.059 1c0 1.2814-0.70806 1.2814-1.5 0zm7.1667-8.6667c-0.36667-0.36666-0.66667-1.1317-0.66667-1.7 0-0.6266 0.46577-0.56756 1.1833 0.15 0.65084 0.65084 0.95084 1.4158 0.66667 1.7s-0.81667 0.21667-1.1833-0.15zm-12.588-15.75c-0.04342-1.0542 0.19292-1.6448 0.52522-1.3125s0.36781 1.1948 0.07894 1.9167c-0.31922 0.79773-0.55618 0.56078-0.60416-0.60417zm3 0c-0.04342-1.0542 0.19292-1.6448 0.52522-1.3125s0.36781 1.1948 0.07894 1.9167c-0.31922 0.79773-0.55618 0.56078-0.60416-0.60417zm-1.579-8.5833c-0.33992-0.55-0.14148-1 0.44098-1s1.059 0.45 1.059 1c0 1.2814-0.70806 1.2814-1.5 0zm0.5-10c0-1.2814 0.70806-1.2814 1.5 0 0.33992 0.55 0.14148 1-0.44098 1s-1.059-0.45-1.059-1zm67 108.61c0-0.21616-0.69837-0.661-1.5519-0.98855-0.88992-0.34149-1.2913-0.17385-0.94098 0.39301 0.58726 0.95021 2.4929 1.4054 2.4929 0.59554zm12.5-6.607c0.33992-0.55 0.16803-1-0.38197-1s-1.2781 0.45-1.618 1-0.16803 1 0.38197 1 1.2781-0.45 1.618-1zm16-5c1.676-0.72021 1.4735-0.87082-1.25-0.92971-1.7875-0.03866-3.25 0.37971-3.25 0.92971 0 1.1872 1.7373 1.1872 4.5 0zm7.9933-3.0109c-0.27239-0.44074-1.4328-0.55615-2.5788-0.25648-1.4659 0.38334-1.7148 0.77274-0.83969 1.3136 1.4769 0.91279 4.1291 0.09264 3.4185-1.0571zm14.507 0.0109c-1.5708-1.0151-0.853-1.3272 2.5-1.0871 1.9467 0.13944 1.949 0.11212 0.08882-1.0247-1.4654-0.89559-2.3644-0.88492-3.8546 0.04572-1.0971 0.68513-1.6597 0.75452-1.2918 0.15932 0.42313-0.68464-0.74661-0.97355-3.3356-0.82383-4.3604 0.25216-4.1156 1.4988 0.45728 2.328 1.59 0.28832 3.0885 0.72186 3.3301 0.96342s1.1517 0.4323 2.0225 0.42388c1.3874-0.01342 1.3977-0.13525 0.08333-0.98469zm11.647-2.1375c-1.2934-0.75171-2.5007-0.76296-4-0.03728-1.8737 0.90688-1.6375 1.0441 1.8525 1.0767 3.3279 0.03101 3.6887-0.14364 2.1475-1.0394zm-42.647-1.4216c0-0.24254-0.45-0.44098-1-0.44098s-1 0.47656-1 1.059 0.45 0.7809 1 0.44098 1-0.81648 1-1.059zm-4-0.5c0-0.58246-0.45-0.7809-1-0.44098s-1 0.14148-1-0.44098-0.7875-1.0447-1.75-1.0272c-1.5835 0.02878-1.5653 0.17153 0.19113 1.5 2.29 1.732 3.5589 1.878 3.5589 0.40918zm12.5-0.94098c-0.79194-1.2814-1.5-1.2814-1.5 0 0 0.55 0.47656 1 1.059 1s0.7809-0.45 0.44098-1zm53.639-0.96673c1.8507-1.5418 2.0066-1.9739 0.72156-2-0.90156-0.0183-2.7016 0.85176-4 1.9335-1.8507 1.5418-2.0066 1.9739-0.72156 2 0.90156 0.0183 2.7016-0.85176 4-1.9335zm6.3268 0.28152c1.9437-0.92687 3.5339-2.0285 3.5339-2.448 0-1.1269-5.6922 1.0574-7.0644 2.7108-1.5354 1.8501-0.78287 1.7941 3.5305-0.2628zm11.034 0.68521c-0.79194-1.2814-1.5-1.2814-1.5 0 0 0.55 0.47656 1 1.059 1s0.7809-0.45 0.44098-1zm-102.93-1.1108c0.63101-1.021-4.0901-5.7704-5.8185-5.8533-2.176-0.10434-0.29712 3.2574 2.5 4.4732 2.0106 0.8739 2.5576 1.4275 1.4343 1.4517-0.99866 0.02153-2.7987-0.43568-4-1.016-2.11-1.0193-2.1182-1.0023-0.24313 0.5 2.2686 1.8176 5.1496 2.0265 6.1273 0.44439zm10.932 0.11078c-0.33992-0.55-1.604-0.95514-2.809-0.90032-2.0396 0.09279-2.0182 0.155 0.30902 0.90032l2.809 0.90032c0.16996 0.05482 0.0309-0.35032-0.30902-0.90032zm12-1.0248c-3.4117-0.68406-4.5751-0.25772-2.6103 0.95657 0.73245 0.45268 2.2944 0.55798 3.471 0.234 1.8945-0.52165 1.796-0.6579-0.8607-1.1906zm5 1.0248c-0.79194-1.2814-1.5-1.2814-1.5 0 0 0.55 0.47656 1 1.059 1s0.7809-0.45 0.44098-1zm12.104-1.7292c-0.3323-0.33229-0.56864 0.25834-0.52522 1.3125 0.04798 1.165 0.28494 1.4019 0.60416 0.60417 0.28887-0.72187 0.25335-1.5844-0.07894-1.9167zm33.123 0.72917c1.4195-1.1166 1.9309-1.986 1.1577-1.9682-1.5299 0.03514-4.8849 2.3211-4.8849 3.3284 0 1.1073 1.101 0.7055 3.7271-1.3602zm7.7729-0.531c2.6762-2.1937 2.776-2.4596 0.92431-2.464-1.1416-0.00273-3.1326 1.12-4.4243 2.495-3.1174 3.3183-0.55844 3.2957 3.5-0.031zm28.5 1.531c0-0.55-1.0125-0.99311-2.25-0.98469-1.8194 0.01239-1.963 0.20082-0.75 0.98469 1.9388 1.2529 3 1.2529 3 0zm6.1875 0.31689c-0.72188-0.28887-1.5844-0.25335-1.9167 0.07894s0.25834 0.56864 1.3125 0.52522c1.165-0.04798 1.4019-0.28494 0.60417-0.60416zm-79.438-1.0062c-0.9625-0.25152-1.7569-1.2118-1.7653-2.134-0.01323-1.448-0.14753-1.4721-0.98469-0.17668-1.5503 2.3989-1.1809 3.0076 1.75 2.884 1.6919-0.07137 2.0767-0.29196 1-0.57333zm8.75-0.31067c-0.79968-1.2939-2.5-1.2939-2.5 0 0 0.55 0.70156 1 1.559 1s1.2809-0.45 0.94098-1zm19.688 0.31689c-0.72188-0.28887-1.5844-0.25335-1.9167 0.07894s0.25834 0.56864 1.3125 0.52522c1.165-0.04798 1.4019-0.28494 0.60417-0.60416zm-60.688-1.3169c-0.33992-0.55 0.08352-1 0.94098-1 1.9679 0 2.0364-3.359 0.10124-4.965-1.8442-1.5306 0.06392-3.9845 2.7078-3.4823 0.9625 0.18283 1.75-0.0226 1.75-0.45652 0-1.8572-3.2533-7.0962-4.4066-7.0962-1.4709 0-1.7318 2.9769-0.40855 4.661 1.1656 1.4833-0.3573 2.4685-2.126 1.3754-0.82716-0.5112-1.1139-1.718-0.74411-3.132 0.33085-1.2652 0.11528-2.8862-0.47905-3.6024-1.4793-1.7824-4.8357-1.645-4.8357 0.19796 0 2.3279-1.8216 1.7667-2.1804-0.67167-0.17575-1.1944-0.80589-2.3315-1.4003-2.5269-0.68812-0.22619-0.9062 0.83405-0.60029 2.9184 0.41653 2.838 0.27861 3.1061-1.0366 2.0145-0.9491-0.78768-1.389-2.4712-1.1749-4.4967 0.2741-2.5937 0.13839-2.8896-0.68231-1.4876-0.56345 0.9625-1.7896 1.7855-2.7248 1.829-1.3823 0.06418-1.4198 0.18574-0.20031 0.64994 1.9496 0.74214 2.9656 2.3176 2.9847 4.6281 0.01001 1.2137-0.48658 1.6644-1.4335 1.301-0.88672-0.34027-1.6981 0.2294-2.0913 1.4684-0.8403 2.6476 0.37963 3.8104 1.8719 1.7843 0.64253-0.87241 1.693-1.4093 2.3343-1.1931s1.3766-0.41929 1.634-1.4122 0.52018-0.06274 0.58398 2.0671c0.10071 3.362-0.08489 3.7057-1.4082 2.6075-1.8094-1.5016-2.9648-0.6965-2.1284 1.4832 0.59509 1.5508 6.5496 1.831 7.6659 0.36079 0.28234-0.37186 1.4858 0.41564 2.6743 1.75s1.9149 2.4261 1.6142 2.4261 0.01342 0.675 0.69811 1.5c1.3796 1.6624 3.4777 2.082 2.5 0.5zm-1.7297-1.669c0.86199-0.34686 0.46546-1.1442-1.2336-2.4808-2.0157-1.5856-2.2634-2.23-1.2703-3.3049 1.5241-1.6497 2.7336-1.0272 2.7336 1.4068 0 1.0087 0.77489 2.1314 1.722 2.4948 1.4751 0.56605 1.511 0.79423 0.25 1.5917-0.80958 0.51199-1.922 0.90226-2.472 0.86726s-0.42836-0.29366 0.27031-0.57479zm-8.1631-7.1574c-0.67991-1.1001 0.41914-5.1735 1.3959-5.1735 0.42343 0 0.96801 1.35 1.2102 3 0.41756 2.845-1.3038 4.2807-2.6061 2.1735zm4-2c-0.67991-1.1001 0.41914-5.1735 1.3959-5.1735 0.42343 0 0.96801 1.35 1.2102 3 0.41756 2.845-1.3038 4.2807-2.6061 2.1735zm15.393 10.826c0-0.55-0.45-1-1-1s-1 0.45-1 1 0.45 1 1 1 1-0.45 1-1zm17.5 0c-0.33992-0.55-1.293-1-2.118-1s-1.2219 0.45-0.88197 1 1.293 1 2.118 1 1.2219-0.45 0.88197-1zm24.799-1.6671-1.7475-2.6671-0.56381 2.3884-0.56382 2.3884-1.7117-2.4438c-1.3406-1.914-1.7117-2.0704-1.7117-0.72128 0 0.94738-0.675 1.7225-1.5 1.7225s-1.5-0.675-1.5-1.5-0.47656-1.5-1.059-1.5-0.7809 0.45-0.44098 1 0.16384 1-0.39129 1-1.3692-0.60805-1.809-1.3512c-0.97403-1.6458-9.2997-3.1325-9.2997-1.6606 0 0.5565 0.83086 1.0118 1.8464 1.0118s3.378 0.76855 5.25 1.7079c3.3865 1.6993 8.8877 2.9282 14.177 3.1669l2.7731 0.12517-1.7476-2.6671zm5.6371 1.728c1.1898-0.7529 1.2117-1.1784 0.12755-2.4847-2.0378-2.4554-3.8569-1.9474-3.308 0.92378 0.5188 2.714 0.99156 2.946 3.1804 1.5609zm-70.936-2.0609c0-2.5639-0.61928-2.5639-1.2898 0-0.28766 1.1-0.11514 2 0.38337 2s0.90638-0.9 0.90638-2zm19.985 1.25c-0.00842-0.4125-0.45153-1.425-0.98469-2.25-0.78387-1.213-0.9723-1.0694-0.98469 0.75-0.00842 1.2375 0.43469 2.25 0.98469 2.25s0.99311-0.3375 0.98469-0.75zm6.4792-3.4269c-0.22662-4.852-4.4639-9.4303-4.4639-4.8231 0 1.1 0.45 2 1 2s1 1.05 1 2.3333 0.28777 2.6211 0.63948 2.9728c1.0932 1.0932 1.9378-0.05626 1.8245-2.483zm49.786 1.7914c0.1375-0.48699-0.77256-1.2637-2.0224-1.726-2.0591-0.76172-2.1701-0.64948-1.1823 1.1962 1.071 2.0012 2.7126 2.2726 3.2047 0.52983zm-53.25-0.95956c0-1.2953-2.1425-3.5785-4.75-5.0619-0.78262-0.44523-1.25-0.09319-1.25 0.94151 0 0.90895 0.9 1.888 2 2.1756s2 1.1455 2 1.9064 0.45 1.3834 1 1.3834 1-0.60526 1-1.345zm11 0.34501c0-0.55-0.47656-1-1.059-1s-0.7809 0.45-0.44098 1c0.79194 1.2814 1.5 1.2814 1.5 0zm4.1875 0.31689c-0.72188-0.28887-1.5844-0.25335-1.9167 0.07894s0.25834 0.56864 1.3125 0.52522c1.165-0.04798 1.4019-0.28494 0.60417-0.60416zm-41.682-1.5317c0.42262 0.39315 0.54468 0.03982 0.27125-0.78518-0.2746-0.82854-1.455-1.3934-2.6369-1.2618-2.4423 0.27189-2.5663-0.07274-1.0471-2.9113 0.79019-1.4765 0.79019-2.3441 0-3.1343s-1.0926-0.62206-1.0926 0.60736c0 2.5222-0.11487 3.0461-1.0518 4.7968-1.1777 2.2005 0.83202 4.0912 3.0735 2.8916 0.94343-0.50491 2.0611-0.59635 2.4837-0.2032zm44.22-4.4931c0.04567-3.2642-0.05689-3.4441-0.73671-1.2921-1.085 3.4346-1.1611 6.2243-0.15273 5.6011 0.46001-0.28431 0.86026-2.2234 0.88944-4.309zm-3.109 0.2624c0.10659-3.1401-1.9209-5.5838-3.4031-4.1016-0.275 0.275 0.1727 0.75814 0.99488 1.0736 0.96639 0.37084 1.3293 1.4398 1.0266 3.0235-0.58663 3.0688-1.9917 3.185-2.4156 0.1999-0.21083-1.4845-1.1245-2.3639-2.6853-2.5847-1.305-0.18463-2.5904-1.1935-2.8666-2.25-0.27547-1.0534-0.89837-1.9153-1.3842-1.9153-1.4618 0-0.9942 3.6631 0.6408 5.0201 0.83829 0.69572 1.2742 1.5149 0.96863 1.8205-0.87248 0.87249 3.738 3.0849 6.5072 3.1226 2.167 0.02951 2.5156-0.42446 2.6169-3.4087zm22.305 0.29917c-1.344-2.5113-2.0355-2.0049-1.2683 0.92875 0.31572 1.2073 0.97409 1.9478 1.463 1.6456 0.50029-0.30919 0.41515-1.4349-0.19471-2.5744zm5.0783 2.2688c0-0.48265-0.675-1.4378-1.5-2.1224-1.6282-1.3513-1.8317-1.0281-0.89301 1.4182 0.64255 1.6745 2.393 2.1896 2.393 0.70423zm3.7708-0.30994c-0.21771-0.65312-0.93051-1.3657-1.584-1.5836-0.73075-0.24358-0.95424 0.21359-0.58051 1.1875 0.69752 1.8177 2.7645 2.1959 2.1645 0.39606zm-13.197-2.5863c-1.7278-1.6502-1.7546-1.6234-0.60945 0.60946 0.6588 1.2846 1.4721 2.0614 1.8073 1.7262s-0.20383-1.3862-1.1978-2.3356zm18.926 0.77381c-0.99549-1.1-2.7527-1.9684-3.905-1.9297-2.056 0.06897-2.0578 0.08627-0.09501 0.92971 1.1 0.47269 1.4375 0.89106 0.75 0.92971-2.783 0.15649-1.022 2.0703 1.905 2.0703 3.0916 0 3.1186-0.04015 1.345-2zm-29.927-0.67005c-0.35247-0.91853-0.13789-1.9809 0.47686-2.3608 0.74881-0.46279 0.59496-0.89138-0.46613-1.2986-1.2259-0.47044-1.5838 0.06306-1.5838 2.3608 0 1.6327 0.49814 2.9686 1.107 2.9686 0.62324 0 0.82694-0.7298 0.46613-1.67zm3.9269 0.67005c-0.79968-1.2939-2.5-1.2939-2.5 0 0 0.55 0.70156 1 1.559 1s1.2809-0.45 0.94098-1zm-61.677-2.3294c0.225-1.1601-0.15332-1.481-1.25-1.0601-1.8486 0.70939-2.1613 3.7522-0.32265 3.14 0.6875-0.22891 1.3952-1.1648 1.5726-2.0798zm65.539 0.82936c-0.73703-1.9207-1.3616-1.9207-1.3616 0 0 0.825 0.43588 1.5 0.96862 1.5s0.70959-0.675 0.39301-1.5zm26.638-0.5c0-0.55-0.45-1-1-1s-1 0.45-1 1 0.45 1 1 1 1-0.45 1-1zm8.6042-1.7292c-1.0165-1.0165-1.8552 0.51389-1.0212 1.8634 0.63003 1.0194 0.86558 1.0202 1.2043 0.00404 0.2316-0.69479 0.14921-1.5351-0.18308-1.8674zm4.937 0.7957c-0.36254-0.58659-1.1377-1.0665-1.7226-1.0665-0.6631 0-0.58723 0.57378 0.20152 1.5242 1.3715 1.6526 2.5973 1.2838 1.5211-0.45764zm9.4589 0.93347c0-0.55-0.45-1-1-1s-1 0.45-1 1 0.45 1 1 1 1-0.45 1-1zm-119.66-3.2063c0.54046-2.0667 0.12194-3.6433-0.71948-2.7103-1.0182 1.129-1.6408 4.9167-0.80825 4.9167 0.52292 0 1.2104-0.99285 1.5277-2.2063zm8.1563 1.2063c-0.79194-1.2814-1.5-1.2814-1.5 0 0 0.55 0.47656 1 1.059 1s0.7809-0.45 0.44098-1zm33.5-1.4904c0-1.1216-4.9789-2.8461-5.8216-2.0164-0.17688 0.17415 0.45179 1.2199 1.3971 2.3239 1.789 2.0894 4.4246 1.9062 4.4246-0.30754zm33 1.4904c0-0.55-0.47656-1-1.059-1s-0.7809 0.45-0.44098 1c0.79194 1.2814 1.5 1.2814 1.5 0zm2.5 0c-0.79194-1.2814-1.5-1.2814-1.5 0 0 0.55 0.47656 1 1.059 1s0.7809-0.45 0.44098-1zm3.5 0.05902c0-0.51754-0.45-1.2191-1-1.559s-1 0.08352-1 0.94098 0.45 1.559 1 1.559 1-0.42344 1-0.94098zm1.6042-1.7882c-0.3323-0.33229-0.56864 0.25834-0.52522 1.3125 0.04798 1.165 0.28494 1.4019 0.60416 0.60417 0.28887-0.72187 0.25335-1.5844-0.07894-1.9167zm-11.604-0.27083c-1.3704-2.5606-1.9594-2.5606-1.2898 0 0.28766 1.1 0.93636 2 1.4416 2s0.43952-0.89508-0.15182-2zm20.63 0.85276c-1.3657-0.79346-1.5392-1.2909-0.64323-1.8446 0.87438-0.5404 0.90884-0.95464 0.11997-1.4422-0.60872-0.37621-1.1068-0.1809-1.1068 0.43402s-0.48322 0.81939-1.0738 0.45437-0.48236 0.28343 0.24054 1.441 1.9936 2.091 2.8238 2.0742c1.1364-0.02289 1.0473-0.29889-0.36053-1.1168zm9.8 0.26055c0.30141-0.48768-0.13234-1.4513-0.96387-2.1414-1.2598-1.0455-1.4068-0.98104-0.882 0.3867 0.67711 1.7645-1.0596 2.299-2.0841 0.64144-0.97385-1.5757-2.5008-1.1656-1.8616 0.5 0.62051 1.617 4.8917 2.0693 5.7916 0.61331zm-95.826-2.8425c-0.3323-0.33229-0.56864 0.25834-0.52522 1.3125 0.04798 1.165 0.28494 1.4019 0.60416 0.60417 0.28887-0.72187 0.25335-1.5844-0.07894-1.9167zm54.064 1.3942c0.36578-0.36579-1.184-0.66507-3.4438-0.66507-5.1713 0-18.823-7.9127-15.602-9.0434 1.5572-0.54675 1.1519-1.03-2.3719-2.8283-2.3375-1.1929-4.25-2.3735-4.25-2.6236 0-0.88902 6.5123 0.8286 7.2135 1.9026 0.39243 0.60101 1.0674 1.0375 1.5 0.97007 1.9718-0.30758 3.3084 0.8913 2.3207 2.0815-1.4648 1.765-0.05951 2.7094 1.5848 1.065 1.7937-1.7937 1.7516-3.1676-0.11905-3.8854-0.825-0.31658-1.5-1.3172-1.5-2.2236 0-1.1772-0.59467-1.4925-2.0814-1.1037-1.1448 0.29936-4.1823-0.09328-6.75-0.87255-5.6551-1.7162-5.4504-1.7035-4.5731-0.28398 0.47046 0.76122 0.27091 0.88095-0.5858 0.35148-0.71464-0.44167-4.5919-0.93614-8.6162-1.0988s-8.1672-0.75089-9.2066-1.3071c-1.1712-0.62679-4.3228-0.71284-8.2883-0.22629-5.6169 0.68917-6.0321 0.87835-3.3986 1.5486 1.65 0.41995 3.7531 0.96611 4.6735 1.2137s2.963 1.7691 4.5391 3.3811 3.8166 3.0761 4.979 3.2535 2.8323 0.91915 3.7109 1.6484c0.89393 0.74189 1.5975 0.87472 1.5975 0.30159 0-0.56334-1.4625-2.0044-3.25-3.2023l-3.25-2.1781 3 0.65276 3 0.65275-2.25-2.1118c-1.2375-1.1615-2.25-2.2719-2.25-2.4676 0-0.83545 6.9935 1.3156 9.1202 2.8052l2.3249 1.6284h-3.2225c-1.7724 0-3.2225 0.47656-3.2225 1.059s0.45345 0.77877 1.0077 0.43624 1.7133 0.08282 2.5757 0.94522c1.424 1.424 1.3544 1.6536-0.75767 2.5004-2.1068 0.84465-2.1375 0.94435-0.32566 1.0596 1.1 0.06997 3.4871 0.27311 5.3047 0.45142l3.3047 0.3242-3.2348-2.888c-2.3385-2.0878-2.7693-2.888-1.5547-2.888 0.92406 0 1.6801 0.43588 1.6801 0.96862s0.62948 0.72706 1.3988 0.43182 1.7005-0.04877 2.0691 0.5477 1.0892 0.82559 1.6012 0.50916 0.9309-0.13453 0.9309 0.40423 1.3186 1.2692 2.9302 1.6232c2.2098 0.48534 2.8386 1.1196 2.5574 2.5794-0.22959 1.1922 0.18139 1.9359 1.0698 1.9359 0.79342 0 1.4426-0.3804 1.4426-0.84534s2.4771 0.40414 5.5047 1.9313c5.0853 2.5651 9.5466 3.1961 11.164 1.5791zm-24.168-10.665c-0.33992-0.55-1.471-1-2.5136-1s-3.0554-1.1599-4.4731-2.5776c-2.5194-2.5194-2.526-2.5615-0.29545-1.8665 4.8066 1.4978 6.3381 2.3287 8.0223 4.3528 0.95712 1.1502 1.3212 2.0913 0.80902 2.0913s-1.2093-0.45-1.5492-1zm-26.484-6.0574-3.4844-1.9426h3.163c2.6643 0 6.3058 2.0625 6.3058 3.5714 0 0.94179-2.6838 0.21132-5.9844-1.6288zm96.484 17.057c-0.79194-1.2814-1.5-1.2814-1.5 0 0 0.55 0.47656 1 1.059 1s0.7809-0.45 0.44098-1zm4.5 0c0-0.55-0.45-1-1-1s-1 0.45-1 1 0.45 1 1 1 1-0.45 1-1zm-106-1c0-0.55-0.45-1-1-1s-1 0.45-1 1 0.45 1 1 1 1-0.45 1-1zm5 0c0-0.55-0.45-1-1-1s-1 0.45-1 1 0.45 1 1 1 1-0.45 1-1zm-14.638-1.5c-0.73703-1.9207-1.3616-1.9207-1.3616 0 0 0.825 0.43588 1.5 0.96862 1.5s0.70959-0.675 0.39301-1.5zm17.138 0.5c-0.79194-1.2814-1.5-1.2814-1.5 0 0 0.55 0.47656 1 1.059 1s0.7809-0.45 0.44098-1zm51-1c-0.33992-0.55-1.068-1-1.618-1s-0.72189 0.45-0.38197 1 1.068 1 1.618 1 0.72189-0.45 0.38197-1zm22.177-4.2081c-3.6145-1.9433-7.4644-2.4745-4.177-0.57628 2.8509 1.6461 4.5 3.4433 4.5 4.9041 0 0.69972 0.63613 0.39722 1.427-0.67857 1.3057-1.7761 1.1569-2.0863-1.75-3.6492zm-46.677 3.3247c0-0.95665-4.1319-2.318-4.8515-1.5984-0.33488 0.33488 2.7235 1.9423 4.6015 2.4184 0.1375 0.03487 0.25-0.33413 0.25-0.81998zm19-0.11663c0-0.55-0.4132-1-0.91821-1s-1.555-0.24436-2.3333-0.54303c-0.84337-0.32364-1.4151 0.08039-1.4151 1 0 0.94984 0.89701 1.543 2.3333 1.543 1.2833 0 2.3333-0.45 2.3333-1zm22 0c0-0.55-0.60526-1-1.345-1s-2.1595-0.9-3.155-2c-1.9399-2.1436-4.5-2.6789-4.5-0.94098 0 0.58246 0.35993 0.83656 0.79985 0.56468s1.3032 0.3116 1.9183 1.2966c1.0393 1.6642 0.79196 1.73-3.4946 0.92912-2.5372-0.474-4.863-1.1965-5.1683-1.6056s-1.0052-0.78197-1.5552-0.82861c-3.2398-0.27475-7.3887-1.7863-6.9318-2.5255 0.29464-0.47673-0.16267-0.5988-1.0162-0.27126s-1.5519 0.93474-1.5519 1.3493c0 0.66238 9.9667 4.1021 15.5 5.3494 3.8684 0.872 10.5 0.67169 10.5-0.31717zm-79-0.95578c0 0.70901 0.20715 1.082 0.46034 0.82878 0.72165-0.72166-0.59504-4.873-1.5456-4.873-0.46859 0-0.59296 0.675-0.27638 1.5s0.07746 1.5-0.53138 1.5-1.107 0.5051-1.107 1.1224c0 0.7755 0.46364 0.73765 1.5-0.12245 1.2014-0.99707 1.5-0.98827 1.5 0.04422zm5.3229-2.6451c-0.33788-0.88051 0.01374-1.9986 0.78138-2.4847 1.0492-0.66436 0.83714-0.88757-0.85428-0.89908-1.2375-0.00842-2.25 0.39789-2.25 0.9029 0 1.7057 1.2083 4.0818 2.0756 4.0818 0.4739 0 0.58518-0.72042 0.2473-1.6009zm-13.661-2.6491c-0.27741-0.6875-0.50439-0.125-0.50439 1.25s0.22698 1.9375 0.50439 1.25 0.27741-1.8125 0-2.5zm3.3377 1.75c0-0.825-0.43588-1.5-0.96862-1.5s-0.70959 0.675-0.39301 1.5c0.73703 1.9207 1.3616 1.9207 1.3616 0zm1.6042-1.2292c-0.3323-0.33229-0.56864 0.25834-0.52522 1.3125 0.04798 1.165 0.28494 1.4019 0.60416 0.60417 0.28887-0.72187 0.25335-1.5844-0.07894-1.9167zm15.387 0.7555c1.188-0.75105 1.2389-1.1958 0.25-2.1847-0.94259-0.94259-1.2416-0.95261-1.2416-0.04164 0 0.66-0.45 1.2-1 1.2s-1-0.88588-1-1.9686c0-1.3854-0.46926-1.7886-1.5838-1.3608-0.87111 0.33428-1.1758 0.88265-0.67705 1.2186s1.1973 1.3983 1.5525 2.3608c0.7275 1.9718 1.5397 2.1422 3.7001 0.77633zm48.582-2.9069c-0.29933-0.48433-1.7798-1.1168-3.29-1.4055-2.5665-0.49062-2.6203-0.43312-0.82364 0.8806 2.1209 1.5508 4.9726 1.9147 4.1136 0.52488zm-75.574-1.6194c0-0.825-0.43588-1.5-0.96862-1.5s-0.70959 0.675-0.39301 1.5c0.73703 1.9207 1.3616 1.9207 1.3616 0zm2.3816-0.05194c0.34149-0.88992 0.17385-1.2913-0.39301-0.94098-0.5437 0.33602-0.98855 1.0344-0.98855 1.5519 0 1.4384 0.71677 1.1215 1.3816-0.61096zm5.6184-0.00708c0-0.24254-0.45-0.44098-1-0.44098s-1 0.47656-1 1.059 0.45 0.7809 1 0.44098 1-0.81648 1-1.059zm10 0.4132c0-0.39623-1.35-0.68203-3-0.63512s-3 0.47397-3 0.949 1.35 0.76084 3 0.63512 3-0.55278 3-0.949zm49.559-0.38598c-1.0676-0.80751-2.4176-1.4539-3-1.4364s-0.18536 0.6925 0.88226 1.5 2.4176 1.4539 3 1.4364 0.18536-0.69249-0.88226-1.5zm-70.559-0.52722c0-0.58246-0.45-0.7809-1-0.44098-1.2814 0.79194-1.2814 1.5 0 1.5 0.55 0 1-0.47656 1-1.059zm0-3.048c0-1.4376-1.7351-1.0257-2.3421 0.55606-0.37166 0.96852-0.07551 1.2647 0.89301 0.89301 0.79699-0.30583 1.4491-0.95791 1.4491-1.4491zm10.731 1.414c-0.97297-0.25354-2.323-0.23687-3 0.03705s0.11903 0.48137 1.769 0.46099 2.2039-0.2445 1.231-0.49804zm61.269-0.20002c0-0.49116-0.7875-1.2434-1.75-1.6716-2.3904-1.0635-6.25-1.2067-6.25-0.23186 0 0.43806 1.0984 0.79647 2.441 0.79647s2.7191 0.45 3.059 1c0.76715 1.2413 2.5 1.3154 2.5 0.10699zm-64.393-2.6888c-0.33385-0.86998-0.60699-1.77-0.60699-2 0-1.3645-1.8543-0.08354-2.2898 1.5818-0.39512 1.5109-0.03068 2 1.4904 2 1.4251 0 1.836-0.46218 1.4064-1.5818zm51.393 0.58179c0-0.55-0.7875-0.99311-1.75-0.98469-1.4956 0.01309-1.5319 0.15626-0.25 0.98469 1.8872 1.2196 2 1.2196 2 0zm4-1c0-0.55-0.7875-0.99311-1.75-0.98469-1.4956 0.01309-1.5319 0.15626-0.25 0.98469 1.8872 1.2196 2 1.2196 2 0zm-59-1.441c0-0.79254-0.45-1.7191-1-2.059s-1 0.30852-1 1.441 0.45 2.059 1 2.059 1-0.64844 1-1.441zm37.149-1.5956c-1.4568-0.29513-3.7738-0.32365-5.1488-0.06337-2.3394 0.44281-2.2879 0.51804 0.80075 1.1707 1.8154 0.3836 3.5509 0.94756 3.8566 1.2533s1.1373 0.02036 1.848-0.63408c1.0322-0.95048 0.75925-1.2979-1.3566-1.7265zm17.701 1.4863c0.81064-0.73313-1.1016-2.4442-2.6592-2.3794-1.3969 0.05806-1.3432 0.23554 0.30902 1.0205 1.7431 0.82816 1.6788 0.88512-0.5 0.44337-1.375-0.27878-2.95-0.51991-3.5-0.53584s-0.325-0.48877 0.5-1.0508c1.0874-0.74077 0.49743-0.84886-2.1453-0.39304-2.499 0.43104-4.3884 0.14188-6.0083-0.91955-2.9121-1.9081-10.866-1.8507-10.128 0.07306 0.5812 1.5146 3.2818 1.7548 3.2818 0.29194 0-0.55 0.9-1 2-1s2 0.41773 2 0.92828 2.4594 1.4787 5.4654 2.1514 5.1997 1.6531 4.8749 2.1786c-0.52121 0.84333 5.5118 0.09394 6.5098-0.80861zm-54.85-6.8816c0-0.92184-6.0764-4.6976-8.2261-5.1116-1.247-0.24015-2.4187-0.89109-2.6039-1.4465s-0.78128-1.0099-1.3247-1.0099-1.7234-0.73527-2.622-1.6339c-1.2044-1.2044-1.7434-1.3054-2.0505-0.38427-0.65467 1.964 5.8166 6.8406 10.02 7.5508 2.094 0.35378 3.8074 1.0537 3.8074 1.5554s0.675 0.9121 1.5 0.9121 1.5-0.19436 1.5-0.43191zm-3.8167-9.7848c-0.71756-0.71756-1.1833-0.7766-1.1833-0.15 0 1.3348 1.1826 2.5174 1.85 1.85 0.28417-0.28416-0.01583-1.0492-0.66667-1.7zm-11.071-4.0708c-0.81667-0.81667-1.1125-0.70476-1.1125 0.42083 0 1.9879 1.3447 3.3326 1.8417 1.8417 0.21083-0.6325-0.1173-1.6506-0.72917-2.2625zm8.4917 0.55833c-0.3323-0.33229-0.56864 0.25834-0.52522 1.3125 0.04798 1.165 0.28494 1.4019 0.60416 0.60417 0.28887-0.72187 0.25335-1.5844-0.07894-1.9167zm-3.8543-9.8543c-0.95295-0.95296-2.8635 0.5906-2.1533 1.7397 0.42212 0.683 0.98146 0.66575 1.6996-0.05243 0.58876-0.58876 0.79291-1.348 0.45366-1.6873zm-5.7107-5.8433c-1.341-2.5056-4.0392-4.2513-4.0392-2.6133 0 0.49345 0.675 1.5722 1.5 2.3972s1.5 2.2972 1.5 3.2714c0 1.3609 0.2734 1.498 1.1798 0.59164s0.87381-1.7515-0.14059-3.647zm4.3424 2.8748c0.34149-0.88992 0.17385-1.2913-0.39301-0.94098-0.5437 0.33602-0.98855 1.0344-0.98855 1.5519 0 1.4384 0.71677 1.1215 1.3816-0.61096zm-1.3816-21.341c0-0.49116-0.73865-1.1765-1.6414-1.5229-1.3725-0.52667-1.4343-0.38034-0.37756 0.89301 1.4401 1.7352 2.019 1.9158 2.019 0.62988zm-25-5.666c0-0.79254-0.45-1.441-1-1.441s-1 0.92656-1 2.059 0.45 1.7809 1 1.441 1-1.2665 1-2.059zm11.48-3.1797c2.0912 0.13132 3.9753-0.2462 4.187-0.83893 0.50987-1.4278-4.0647-3.4528-7.464-3.304l-2.703 0.11831 3 0.76337c2.8301 0.72014 2.8584 0.7744 0.5 0.9582-4.3864 0.34183-6.2328 0.8721-7.3807 2.1197-0.85316 0.92723-0.71081 1.073 0.59867 0.61297 0.94489-0.33192 1.9974-0.1513 2.339 0.40138 0.41335 0.66881 1.0391 0.65797 1.871-0.03243 0.68743-0.57052 2.9608-0.92987 5.052-0.79856zm10.52-0.26124c0-0.55-0.45-1-1-1s-1 0.45-1 1 0.45 1 1 1 1-0.45 1-1z"/>
 </g>
</svg>
