<?xml version="1.0" standalone="no"?>
<!DOCTYPE svg PUBLIC "-//W3C//DTD SVG 20010904//EN"
 "http://www.w3.org/TR/2001/REC-SVG-20010904/DTD/svg10.dtd">
<svg version="1.0" xmlns="http://www.w3.org/2000/svg"
 width="1280.000000pt" height="838.000000pt" viewBox="0 0 1280.000000 838.000000"
 preserveAspectRatio="xMidYMid meet">
<metadata>
Created by potrace 1.15, written by Peter Selinger 2001-2017
</metadata>
<g transform="translate(0.000000,838.000000) scale(0.100000,-0.100000)"
fill="#000000" stroke="none">
<path d="M3750 8370 c-63 -5 -167 -15 -230 -23 -83 -10 -135 -11 -185 -5 -121
16 -534 13 -680 -6 -321 -41 -621 -129 -846 -248 l-57 -30 -71 41 c-126 71
-235 103 -482 140 -125 19 -140 20 -195 6 -163 -42 -299 -143 -368 -274 -64
-123 -79 -200 -79 -406 -1 -195 30 -481 58 -548 44 -106 7 -187 -163 -352
-150 -145 -205 -217 -231 -298 -10 -34 -42 -102 -71 -151 -159 -269 -191 -518
-91 -714 12 -23 21 -53 21 -67 0 -42 25 -91 61 -118 49 -37 166 -73 299 -92
170 -24 157 -19 156 -62 l-1 -38 158 -29 c93 -18 156 -34 154 -41 -3 -10 -45
-38 -321 -217 -208 -134 -316 -249 -316 -337 0 -44 22 -83 72 -125 37 -32 44
-35 62 -22 12 7 66 43 122 79 381 250 756 387 1060 387 123 0 164 -7 164 -28
0 -36 92 -202 142 -257 51 -56 112 -94 151 -95 71 -1 131 83 143 198 7 61 8
64 51 89 24 14 92 45 151 69 99 41 114 44 197 44 106 0 222 13 356 40 91 19
102 19 180 4 255 -47 420 -119 959 -414 275 -151 606 -303 783 -359 54 -17
243 -67 420 -111 177 -43 363 -93 412 -110 175 -62 330 -145 411 -222 l32 -30
-33 -101 c-18 -56 -61 -192 -95 -302 -135 -439 -245 -657 -425 -844 -129 -134
-234 -182 -402 -182 -133 0 -238 31 -373 111 -53 31 -58 32 -137 27 -113 -8
-163 -36 -163 -90 0 -47 32 -88 161 -202 133 -118 179 -174 179 -217 0 -34
-37 -60 -118 -84 -29 -9 -85 -31 -125 -49 -151 -69 -301 -105 -647 -155 -267
-38 -462 -75 -560 -107 -79 -26 -260 -104 -260 -113 0 -3 35 -29 78 -58 181
-123 374 -146 777 -92 270 36 348 43 465 38 115 -5 240 -31 240 -51 0 -5 -63
-95 -141 -199 -171 -229 -221 -312 -223 -369 -2 -98 97 -105 289 -19 27 13
104 65 170 117 364 285 685 469 1123 643 269 108 444 214 627 382 174 159 297
305 474 558 203 291 293 441 481 800 154 294 211 394 307 539 46 68 83 129 83
135 0 7 5 17 11 23 15 15 -21 61 -145 181 -53 51 -96 97 -96 102 0 13 45 18
217 25 183 8 174 15 183 -147 0 -5 11 -8 24 -8 21 0 33 -16 80 -106 126 -238
243 -402 396 -554 159 -160 315 -254 531 -322 62 -19 95 -23 204 -23 122 0
135 2 207 31 158 64 299 196 490 459 165 227 166 229 235 280 161 120 276 295
407 622 53 131 67 155 96 175 45 30 93 95 155 208 28 50 58 101 67 113 16 21
16 21 11 -23 -2 -25 -9 -69 -14 -99 -14 -83 -11 -268 6 -367 20 -115 53 -236
126 -463 71 -220 103 -346 118 -460 l11 -85 -55 -115 c-72 -149 -151 -267
-222 -330 -84 -75 -286 -210 -354 -236 -218 -86 -332 -231 -253 -324 34 -40
105 -61 211 -61 l84 0 58 -57 c146 -143 89 -255 -289 -569 -187 -156 -279
-254 -325 -345 -20 -39 -35 -73 -33 -74 6 -6 186 41 381 99 276 82 371 101
512 101 98 0 126 -3 155 -19 84 -44 120 -113 120 -225 0 -164 -154 -721 -294
-1065 -20 -50 -36 -91 -36 -93 0 -8 153 -2 206 8 80 15 171 60 234 116 102 92
172 223 285 533 78 214 124 310 191 399 125 167 250 132 656 -181 167 -130
234 -165 285 -152 57 14 76 59 69 160 -3 45 -14 106 -23 135 -27 84 -109 238
-230 429 -245 391 -294 494 -323 692 -12 83 -3 190 25 282 8 27 15 72 15 100
0 28 12 175 26 326 47 507 31 773 -62 993 -14 32 -36 113 -50 180 -82 402
-193 732 -363 1077 -72 147 -80 159 -160 235 -46 44 -150 157 -231 250 -227
262 -339 364 -475 433 -118 59 -179 74 -327 79 l-136 6 -84 -41 c-107 -52
-194 -117 -370 -279 -79 -71 -156 -142 -173 -156 -16 -14 -43 -48 -60 -76 -16
-28 -37 -53 -46 -56 -9 -3 -36 -29 -60 -58 -34 -39 -44 -60 -44 -87 l0 -35
-55 0 c-30 0 -61 -3 -69 -5 -14 -5 -16 -1 -165 377 -68 171 -68 173 -56 220 6
27 14 89 17 138 7 113 -13 199 -63 272 -55 79 -109 115 -289 188 -98 40 -168
77 -260 138 -69 46 -174 129 -174 138 -1 4 25 0 57 -7 167 -41 405 -55 542
-34 145 23 276 82 370 167 29 26 71 55 94 63 27 10 50 30 70 58 26 37 31 55
34 116 5 96 -10 167 -57 263 -59 120 -128 190 -221 222 -27 9 -69 9 -193 0
-187 -15 -322 -6 -694 46 -312 44 -493 59 -618 51 -272 -18 -279 -18 -350 -2
-98 24 -218 94 -328 194 -128 116 -199 168 -292 213 -177 86 -361 110 -820
107 -207 -1 -295 3 -375 15 -106 17 -712 75 -1065 103 -230 17 -777 26 -935
14z"/>
</g>
</svg>
