<?xml version="1.0" standalone="no"?>
<!DOCTYPE svg PUBLIC "-//W3C//DTD SVG 20010904//EN"
 "http://www.w3.org/TR/2001/REC-SVG-20010904/DTD/svg10.dtd">
<svg version="1.0" xmlns="http://www.w3.org/2000/svg"
 width="1280.000000pt" height="640.000000pt" viewBox="0 0 1280.000000 640.000000"
 preserveAspectRatio="xMidYMid meet">
<metadata>
Created by potrace 1.15, written by Peter Selinger 2001-2017
</metadata>
<g transform="translate(0.000000,640.000000) scale(0.100000,-0.100000)"
fill="#000000" stroke="none">
<path d="M2695 4903 c-67 -15 -147 -60 -210 -118 l-29 -28 -316 1 c-199 0
-376 7 -480 16 -190 18 -529 21 -714 6 l-127 -11 -30 25 c-63 53 -153 54 -243
1 -43 -25 -106 -82 -106 -95 0 -4 -10 -10 -23 -14 -41 -10 -201 -123 -266
-187 -82 -82 -138 -168 -147 -225 -14 -95 44 -171 211 -279 146 -94 211 -113
647 -185 132 -22 322 -51 422 -65 138 -20 183 -30 191 -42 6 -9 43 -48 83 -86
99 -96 112 -119 112 -203 0 -114 -23 -138 -250 -253 -189 -97 -220 -103 -452
-99 -127 2 -198 -1 -199 -7 0 -5 36 -19 80 -31 45 -11 79 -22 77 -25 -3 -3
-38 -2 -78 2 -164 17 -246 7 -205 -25 11 -8 38 -17 60 -21 56 -8 183 -53 197
-70 18 -22 -17 -26 -182 -23 -158 3 -198 -3 -198 -28 0 -28 69 -45 209 -54 75
-4 155 -13 179 -21 l43 -13 -78 -40 c-96 -50 -103 -71 -22 -70 44 1 81 12 175
54 65 28 146 61 179 71 67 22 259 55 380 64 103 9 164 27 248 73 84 46 144 94
187 149 34 45 35 51 81 353 14 90 18 96 60 71 95 -56 419 -135 735 -180 252
-36 478 -44 1124 -38 620 6 821 15 970 47 47 9 89 15 94 12 19 -11 46 -90 46
-136 0 -111 -115 -248 -257 -305 -117 -47 -168 -74 -168 -91 0 -25 35 -22 128
9 48 16 87 28 87 25 0 -2 -31 -19 -68 -38 -81 -41 -127 -77 -147 -117 -15 -28
-20 -100 -9 -112 10 -10 43 11 134 87 146 122 209 162 237 152 33 -13 -2 -76
-142 -256 -75 -97 -105 -149 -105 -183 0 -28 17 -47 42 -47 41 0 314 293 359
386 11 24 25 44 29 44 5 0 20 -10 34 -22 31 -27 46 -95 46 -204 0 -61 4 -78
20 -94 25 -25 66 -26 79 -2 5 9 11 80 13 157 l4 140 68 143 c37 78 70 159 73
180 2 20 -2 91 -11 157 -9 65 -16 122 -16 125 0 3 96 5 213 6 159 1 241 6 329
21 l117 19 233 -53 c368 -84 725 -171 957 -234 117 -32 239 -61 270 -64 66 -8
314 -58 421 -85 387 -98 726 -145 1580 -220 973 -85 1047 -101 1480 -321 350
-177 842 -463 1255 -729 148 -95 204 -124 283 -145 62 -16 102 -10 102 16 0
50 -96 255 -159 338 -190 253 -644 675 -937 872 -231 155 -969 452 -1354 544
-249 59 -1134 206 -1470 244 -52 6 -135 15 -183 21 -119 13 -288 57 -557 144
-227 74 -331 102 -493 131 -49 8 -150 35 -225 59 -137 44 -271 80 -583 155
-260 64 -625 193 -1014 361 -613 264 -952 363 -1394 405 -209 20 -743 20
-1181 -1 -271 -13 -345 -14 -348 -4 -9 27 -69 84 -107 101 -40 18 -61 21 -100
12z"/>
</g>
</svg>
