<?xml version="1.0" encoding="UTF-8"?>
<svg width="1091.2" height="968.44" version="1.1" viewBox="0 0 1091.25 968.4375" xmlns="http://www.w3.org/2000/svg">
 <path d="m43.76 967.28c-14.438-1.4956-15.11-4.4122-3.916-16.985 10.084-11.326 10.068-11.655-0.23983-5.0172-13.048 8.4027-30.821 12.171-35.682 7.5663l-2.1717-2.0573 4.8498-5.3553c2.6674-2.9454 5.965-6.651 7.328-8.2348 1.363-1.5837 3.5531-3.9554 4.8669-5.2703 5.6646-5.6698 26.389-31.114 25.812-31.69-0.21096-0.21097-1.3689 0.16654-2.5732 0.83891-1.2043 0.67236-3.0334 1.2987-4.0647 1.3918-1.0312 0.0931-3.1406 0.40885-4.6875 0.70163s-4.2891 0.76078-6.0938 1.04c-1.8047 0.27921-4.5469 0.74748-6.0938 1.0406-23.122 4.3815-24.72 0.70307-5.6257-12.946 1.5996-1.1434 17.51-14.674 23.576-20.05 3.1696-2.8089 6.9664-6.023 8.4375-7.1424s4.0999-3.2528 5.8418-4.7409l3.1671-2.7057-3.6359 0.59178c-8.2504 1.3428-22.026 2.1499-24.916 1.4598-9.2066-2.1984-10.486-4.4695-4.296-7.6273 2.1753-1.1098 5.3393-3.1222 7.0312-4.4722 1.6918-1.3499 3.498-2.5072 4.0136-2.5716 0.51568-0.0645 1.2939-0.16992 1.7293-0.23437 0.43542-0.0645 2.0175-1.1826 3.5156-2.4848 1.4982-1.3022 5.4661-4.2452 8.8177-6.54s7.5703-5.4834 9.375-7.0857c5.506-4.8886 13.735-11.546 17.032-13.78 1.7184-1.1641 5.6557-4.0277 8.7494-6.3634s7.3038-5.3911 9.3557-6.7897c2.0519-1.3985 6.4209-5.0741 9.7089-8.1678 3.288-3.0938 7.9174-7.0041 10.287-8.6897 2.3701-1.6856 4.5401-3.3758 4.8223-3.756 0.28219-0.38021 2.5457-2.1652 5.03-3.9666 3.9079-2.8337 17.064-13.631 21.264-17.45 2.0962-1.9066 19.757-13.481 20.57-13.481 0.38624 0 1.4658-0.84375 2.3991-1.875s2.0981-1.875 2.5885-1.875c0.49042 0 2.4289-1.2003 4.3078-2.6673s5.3146-3.7757 7.6349-5.1304 5.4445-3.5294 6.9427-4.8327 3.0746-2.3696 3.5033-2.3696 2.8542-2.0039 5.3902-4.4531 5.6001-5.3262 6.8092-6.3933c3.0444-2.6869 15.889-9.7492 23.761-13.064 3.7529-1.5804 5.9512-2.8564 17.344-10.067 3.3516-2.1214 11.156-6.4469 17.344-9.6122 6.1875-3.1654 13.11-6.9924 15.384-8.5045 7.8668-5.2318 9.0087-5.9377 12.975-8.0207 2.1914-1.1507 3.9844-2.4393 3.9844-2.8635 0-0.42422 0.56743-0.77132 1.261-0.77132s2.0646-0.88935 3.0469-1.9763c0.98227-1.087 3.7297-2.962 6.1054-4.1668s5.5398-3.2151 7.0312-4.4674c1.4915-1.2523 5.912-4.1672 9.8234-6.4776s9.8176-6.2995 13.125-8.8647c6.2939-4.8816 19.973-13.422 21.498-13.422 1.2422 0 14.047-12.201 14.047-13.384 0-0.5334 1.0547-2.3526 2.3438-4.0426 2.8328-3.714 2.8183-3.3291 0.23437-6.2289-1.1602-1.302-3.5859-4.2784-5.3906-6.6141s-4.4466-4.9449-5.8708-5.7981c-1.4243-0.85322-3.4859-3.3174-4.5814-5.4759-3.4925-6.8814-7.1386-11.82-15.798-21.398-1.2891-1.4259-3.297-3.8238-4.4621-5.3287s-3.9073-3.9497-6.0938-5.4329-4.1864-2.9728-4.4442-3.3101c-1.795-2.3487-6.666-1.4445-9.276 1.7218-4.312 5.2313-7.51 2.9413-8.1015-5.8013-0.50876-7.5198 6.7586-18.487 13.66-20.614 1.2714-0.39183 3.0662-1.5038 3.9887-2.4711 0.92243-0.96727 2.0524-1.7587 2.5112-1.7587s1.4163-0.5823 2.128-1.294c1.7411-1.7411 11.281-6.206 13.26-6.206 0.87074 0 2.5175-0.56792 3.6595-1.262 1.142-0.69413 4.8186-2.0064 8.1701-2.916s6.9375-2.0311 7.9688-2.4919c9.4674-4.231 30.319-0.24578 58.594 11.199 6.1293 2.4809 7.8731 2.7912 13.594 2.4188 14.728-0.95874 28.181-1.0108 29.616-0.11454 3.5732 2.2315 14.96-6.8355 48.609-38.708 0.81657-0.77344 3.5685-3.0938 6.1153-5.1562s8.2372-7.1874 12.645-11.389c4.408-4.2013 9.9084-9.2638 12.223-11.25 2.3148-1.9862 5.2679-4.8264 6.5625-6.3116s4.2868-4.6492 6.6494-7.0312c3.8171-3.8486 20.193-24.716 29.015-36.974 1.7884-2.4849 4.7283-6.3688 6.533-8.6308 7.6974-9.6482 10.03-12.846 18.446-25.289 2.4412-3.6094 9.4092-13.221 15.484-21.359 6.0753-8.1381 13.426-18.474 16.336-22.969s6.6314-9.8597 8.2708-11.922c2.9092-3.6602 10.521-15.294 13.967-21.348 0.94768-1.6647 3.097-4.5033 4.7763-6.308s3.9362-4.765 5.0153-6.5785c1.0792-1.8135 3.0431-4.3128 4.3644-5.554 1.3212-1.2412 2.4023-2.8161 2.4023-3.4996 0-0.68356 0.31641-1.2664 0.70312-1.2952 1.1366-0.0847 9.2322-10.899 16.103-21.51 6.3018-9.7327 8.6726-12.385 15.069-16.861 1.8047-1.2628 3.7615-2.7317 4.3484-3.2643 0.58696-0.53259 3.2603-2.6558 5.9407-4.7184 2.6804-2.0625 7.4682-5.8118 10.639-8.3317 3.1713-2.5199 7.248-5.5361 9.0593-6.7025 4.4724-2.8802 11.978-10.342 15.884-15.791 3.8496-5.3703 13.568-15.738 28.085-29.964 11.098-10.875 25.115-25.197 45.075-46.058 10.393-10.862 32.362-33.269 52.484-53.53 7.8918-7.9464 9.3026-8.2372 11.037-2.2744 3.2019 11.008 2.0766 15.29-8.0063 30.464-6.9839 10.51-6.7549 10.767 1.9506 2.1847 3.8341-3.7797 7.562-7.3349 8.2841-7.9005 0.7221-0.56558 6.5863-6.644 13.032-13.508 11.644-12.4 24.388-25.035 33.195-32.912 2.5306-2.2633 6.9651-6.4354 9.8544-9.2713s8.8343-8.4018 13.211-12.369c19.229-17.427 19.72-17.482 25.404-2.8216 1.0311 2.6589 1.103 9.5653 0.0996 9.5653-0.40443 0-1.5292 1.3711-2.4994 3.0469s-2.8542 4.3578-4.1865 5.9599c-4.9168 5.9125-5.7038 6.967-5.7049 7.6445-6.5e-4 0.38082-0.94987 1.8171-2.1094 3.1918-1.1595 1.3746-2.8465 3.3834-3.7489 4.4638-0.90234 1.0805-1.6406 2.3458-1.6406 2.8118 0 0.46602-1.2656 2.0419-2.8125 3.5019s-2.8125 3.1833-2.8125 3.8295c0 0.64621-0.35063 1.1749-0.77906 1.1749-0.42853 0-1.3778 1.1602-2.1094 2.5781-0.73172 1.418-2.8028 3.9182-4.6024 5.5561s-2.9662 3.2838-2.5923 3.6577c0.37378 0.37384 1.7901-0.43062 3.1471-1.7877 1.3571-1.3571 3.7278-3.4249 5.2682-4.5952s5.1825-4.3804 8.0936-7.1337 6.4321-5.6009 7.8245-6.3281c1.3924-0.72717 2.8689-1.8728 3.2812-2.5459 0.41231-0.6731 3.4919-3.4368 6.8435-6.1417 3.3516-2.7048 7.1484-5.8826 8.4375-7.0618s4.2422-3.4538 6.5625-5.0547 6.75-5.2453 9.8437-8.0986c3.0938-2.8533 5.9357-5.1978 6.3155-5.2099 0.3798-0.01213 3.4257-2.3424 6.7687-5.1783s6.4775-5.1562 6.9658-5.1562c0.4881 0 1.0464-0.47665 1.2406-1.0592 0.2107-0.63206 1.471-0.095905 3.125 1.3295 5.9687 5.1435 3.7529 18.831-4.8126 29.73-2.2289 2.8359-6.9024 8.9531-10.386 13.594-7.3919 9.8485-6.8173 9.127-11.572 14.531-4.1287 4.692-4.8265 6.4932-1.6551 4.2719 1.146-0.80268 2.6989-1.4594 3.4509-1.4594s4.3496-2.2486 7.9946-4.9969c3.6449-2.7483 8.5256-6.1364 10.846-7.5291 8.1117-4.869 21.729-14.478 31.406-22.162 13.879-11.02 19.302-12.779 20.831-6.7555 1.4402 5.674 0.1145 14.493-2.5657 17.069-0.2683 0.25781-3.293 3.8438-6.7214 7.9688-3.4286 4.125-7.7615 8.9211-9.6288 10.658-1.8674 1.7369-4.5387 4.69-5.9364 6.5625-1.3976 1.8725-4.301 5.092-6.452 7.1546l-3.911 3.75 0.9279 7.327c0.5814 4.5906 0.5982 7.7418 0.045 8.4375-0.4856 0.61075-1.1672 3.0759-1.5147 5.4781-0.618 4.2736-10.77 26.15-13.317 28.697-0.7083 0.70833-1.2898 1.5741-1.2921 1.924 0 0.34988-1.1626 1.9018-2.5782 3.4487s-3.8205 4.7109-5.3444 7.0312c-1.5238 2.3203-3.9325 5.3395-5.3526 6.7093-2.5334 2.4437-2.5635 2.6025-1.5968 8.4375 2.5841 15.597-1.0181 24.772-14.884 37.911l-5.0411 4.777-0.8526 9.0112c-1.2964 13.704-3.6995 20.716-9.6311 28.105-1.7461 2.1751-3.4519 4.73-3.7906 5.6776-0.33872 0.94758-1.8317 2.1818-3.3176 2.7427-2.4026 0.90686-2.6607 1.3909-2.3309 4.3709 1.4136 12.773 1.3998 18.497-0.0478 19.698-0.813 0.67471-1.5074 1.7024-1.543 2.2838-0.0675 1.0958-10.203 9.6454-12.463 10.513-0.98944 0.37967-1.25 2.8371-1.1402 10.753 0.0787 5.6433-0.16087 10.261-0.53156 10.261-0.37059 0-0.9104 0.74509-1.1994 1.6557-0.59671 1.8801-14.423 9.5943-17.196 9.5943-3.9744 0-7.0143 4.3452-6.4226 9.1804 0.2971 2.4273 0.79904 7.5774 1.1154 11.445l0.57535 7.0312-4.071 2.3886c-2.2391 1.3138-5.5477 2.9559-7.3524 3.6492-1.8047 0.69334-5.1797 2.1362-7.5 3.2064s-4.317 1.9872-4.4371 2.0378c-0.12009 0.0506 0.23132 1.5407 0.78091 3.3113 2.0002 6.4437 2.7428 9.8833 3.225 14.938l0.49193 5.1562-5.421 3.4608c-2.9815 1.9034-6.5643 3.8905-7.9617 4.4157s-3.3906 1.8048-4.4293 2.8435-2.9792 2.1623-4.3121 2.4968c-1.688 0.42367-2.2546 1.0483-1.8671 2.0583 0.30604 0.79752 0.97506 3.3822 1.4867 5.7437 0.51165 2.3615 1.1866 4.9265 1.4998 5.6999 0.80989 1.9996 0.33307 8.7375-0.69329 9.7969-0.47456 0.48985-0.86285 1.6343-0.86285 2.5433 0 2.2499-7.0012 8.8136-11.963 11.216l-4.0529 1.962 0.13358 12.492c0.11779 11.015-0.0714 12.696-1.6013 14.222-3.0375 3.0295-9.9731 5.7169-16.5 6.3935-6.1623 0.63882-6.3281 0.72536-6.3281 3.3011 0 7.736-3.713 18.077-6.1544 17.14-0.7314-0.28066-1.5894 0.16629-1.9068 0.99323-0.31713 0.82694-1.31 1.5035-2.2062 1.5035s-2.3004 0.73828-3.1206 1.6406c-0.82015 0.90235-4.3968 3.1-7.9481 4.8838l-6.4569 3.2431-1.4023 6.8847c-0.77126 3.7866-1.0496 7.1027-0.61849 7.3691 0.81687 0.50485-8.1139 9.5079-12.601 12.703-1.4194 1.0107-2.8341 2.847-3.1437 4.0807s-1.1273 2.7114-1.817 3.2838-1.5474 2.3765-1.906 4.0091c-0.97632 4.4451-3.0155 7.0022-6.5016 8.1527-1.7212 0.56805-3.6127 1.615-4.2033 2.3267-0.59059 0.71162-2.3178 1.2585-3.8382 1.2152-3.6794-0.10461-3.5458-0.3956-4.2113 9.1681-0.74859 10.757-4.4684 14.477-14.478 14.477-1.061 0-1.8616 0.62852-1.8616 1.4616 0 0.80387-0.42266 1.2004-0.93925 0.88108-1.1494-0.71038-2.8108 3.3964-2.8108 6.9481 0 1.4334-0.84375 3.3698-1.875 4.303s-1.875 2.2082-1.875 2.8332c0 1.3286-4.8242 4.5587-12.422 8.3173-2.9705 1.4695-5.3906 3.2962-5.3906 4.0687 0 4.9746-11.223 17.124-15.818 17.124-3.5802 0-5.5746 2.2506-6.5963 7.4438-1.3832 7.0309-4.1864 9.6395-14.079 13.102-7.6267 2.6693-7.8504 2.836-10.726 7.9956-3.3581 6.0245-9.4215 9.629-16.359 9.7247-6.3991 0.0883-7.2269 1.0597-4.4236 5.1907 1.307 1.926 2.3764 3.6987 2.3764 3.9395 0 0.24074 1.793 2.9927 3.9844 6.1154s4.5088 6.6498 5.1498 7.838c1.9051 3.5315 3.6217 4.438 11.736 6.198 4.2481 0.92142 10.466 2.3418 13.818 3.1564 3.3516 0.81456 9.4688 2.1279 13.594 2.9186 4.125 0.79064 8.3438 1.7899 9.375 2.2206 1.9523 0.81538 12.208 3.8627 21.094 6.2678 2.8359 0.76759 6 1.7688 7.0312 2.2249s6.7266 2.3658 12.656 4.2437c14.876 4.7111 22.785 7.3965 30.469 10.345 3.6094 1.3851 8.25 3.1401 10.312 3.9 2.0625 0.7599 5.0156 1.9403 6.5625 2.623 4.4258 1.9535 13.574 3.2517 19.295 2.7382l5.2321-0.46967 1.2282 7.8953c1.6645 10.7 1.5221 11.149-6.2929 19.857-0.92549 1.0312-2.9408 4.3257-4.4786 7.321-1.9591 3.8161-4.1988 6.4548-7.4834 8.8167-2.5781 1.8539-4.8281 3.7275-5 4.1634-0.17188 0.43595-0.8637 0.79264-1.5374 0.79264-1.2614 0-5.1814 7.3764-5.1814 9.7502 0 1.461-4.6451 5.712-7.2606 6.6445-0.90513 0.32272-3.1222 2.4427-4.9269 4.711-2.1127 2.6555-4.4738 4.4697-6.6299 5.0942-2.2244 0.64431-5.6599 3.3536-10.233 8.0701-3.7866 3.9051-8.537 7.9432-10.557 8.9735-2.0196 1.0303-4.3755 3.1915-5.2355 4.8027-1.6134 3.0229-2.8185 4.2954-11.15 11.775-2.6947 2.4189-7.9681 7.4362-11.719 11.15-4.3493 4.3061-8.3474 7.3381-11.038 8.3709-4.1588 1.5963-5.6945 2.889-10.311 8.6797-1.2883 1.6159-3.1867 3.1995-4.2188 3.519s-2.9962 1.3694-4.3649 2.333-3.4024 1.752-4.5193 1.752-4.005 1.6283-6.4178 3.6185c-6.6798 5.5096-14.312 8.3378-17.145 6.3534-2.8718-2.0115-5.2762-1.9363-9.6672 0.30235-3.8784 1.9773-8.9692 3.1999-12.731 3.0574-7.7817-0.2947-9.8606-0.82021-10.815-2.7337-0.69935-1.4028-1.4018-1.75-2.4047-1.1888-1.1805 0.66063-1.7569-0.91597-3.4563-9.4532-2.0267-10.182-6.1872-20.319-10.948-26.675-1.1586-1.5469-2.4204-3.8672-2.804-5.1562s-1.6424-3.8203-2.7972-5.625-2.8968-4.5469-3.8709-6.0938c-0.97412-1.5469-4.0342-7.2422-6.8002-12.656-2.766-5.4141-7.0746-13.852-9.5748-18.75-2.5002-4.8984-6.0034-12.492-7.785-16.875-5.4364-13.374-6.3857-15.365-7.8273-16.42-0.76403-0.55867-1.6803-2.4717-2.0362-4.2512-0.63672-3.1838-0.8261-3.2962-11.873-7.0471-6.1744-2.0964-11.859-4.0632-12.632-4.3706s-2.7422-0.98377-4.3751-1.503l-2.9688-0.94409-2.0932 5.3146c-1.1513 2.9231-2.663 5.783-3.3593 6.3555s-1.2661 1.5054-1.2661 2.0732c0 1.5266-7.3727 3.2379-11.8 2.7388-4.5728-0.51542-5.867 0.93594-6.8226 7.6514-0.52154 3.665-0.95993 4.3573-2.9362 4.6369-1.2777 0.18077-3.3833 1.0673-4.6791 1.97s-4.4182 2.4164-6.9386 3.3637l-4.5826 1.7225-1.7697-2.1855-1.7697-2.1855-1.9961 4.7246c-2.1483 5.0848-6.0952 6.8785-11.251 5.1133-6.2024-2.1233-8.5082-1.0476-9.6285 4.492-1.6094 7.9581-4.1348 12.129-8.9506 14.784-2.3203 1.2789-5.2249 3.1164-6.4546 4.0834-1.2297 0.96692-3.2001 1.758-4.3786 1.758-1.6202 0-2.294 0.68821-2.7626 2.8219-1.2979 5.9094-5.2579 12.178-7.693 12.178-0.72088 0-2.8628 1.0547-4.7598 2.3438s-4.3004 2.3581-5.3409 2.3756c-3.9829 0.0669-9.022 3.4222-12.019 8.0029-3.442 5.2602-6.6204 7.103-13.301 7.712-5.318 0.48469-7.04 1.4902-7.04 4.111 0 0.99855-0.33273 1.6099-0.7394 1.3586-0.40667-0.25134-1.6991 1.6349-2.872 4.1917-3.1842 6.941-7.8439 11.209-12.142 11.122-7.8767-0.15943-9.6602 1.2221-14.138 10.952-0.94391 2.0509-15.788 6.3555-18.426 5.3432-0.61806-0.23717-1.3901 0.54187-1.7157 1.7312-0.49994 1.8263-0.74873 1.9438-1.6008 0.75615-0.8968-1.25-1.0698-1.25-1.557 0-1.7407 4.4665-6.6689 7.6359-10.889 7.0031-4.7818-0.71708-7.673 0.46344-8.6465 3.5305-0.36625 1.1539-1.7149 3.6833-2.9971 5.6207l-2.3312 3.5227-7.6886-0.31156c-7.3609-0.29828-7.6738-0.22813-7.3422 1.6459 0.36325 2.0528-2.2186 5.2388-10.145 12.518l-4.3239 3.9711-5.0511-0.95358c-2.7781-0.52448-5.7302-1.167-6.5601-1.4279-0.92572-0.29097-2.9187 0.93439-5.1562 3.1702-7.4721 7.4664-11.909 8.9938-16.772 5.7732-3.6564-2.4216-3.8579-2.3839-5.0158 0.9375-0.53925 1.5469-1.3912 2.8125-1.8933 2.8125s-3.744 1.8984-7.2042 4.2188c-3.4602 2.3203-6.7628 4.2281-7.339 4.2396-0.57625 0.0114-2.1024 0.84583-3.3915 1.8542-2.8321 2.2153-5.9404 2.3421-11.275 0.45983-4.9255-1.7378-8.8848-0.64806-14.44 3.9745-5.2898 4.4014-11.843 4.0582-16.443-0.86128-1.8505-1.9792-2.104-2.0282-2.9273-0.56512-0.49948 0.88744-1.5174 1.3653-2.2829 1.0716-0.75979-0.29156-1.3814-0.12956-1.3814 0.36 0 0.48966-1.4766 1.6854-3.2812 2.6572-1.8047 0.97191-3.2812 2.0419-3.2812 2.3777s-1.2656 1.1348-2.8125 1.7755c-1.5469 0.64078-2.8125 1.4559-2.8125 1.8115s-2.1275 1.1918-4.7277 1.8582c-5.0368 1.2908-6.7058 0.36778-11.004-6.0861-0.88749-1.3326-1.3401-1.4833-1.7362-0.57825-0.29469 0.67331-1.0201 1.6162-1.6121 2.0952-9.9677 8.0669-13.121 9.0364-20.873 6.4176-3.3158-1.12-6.2962-1.7688-6.6233-1.4417-0.32705 0.327-1.1073 0.16912-1.7339-0.35091-0.78878-0.65466-2.2574-0.39038-4.7738 0.85903-10.868 5.3963-13.528 6.5886-19.018 8.5244-5.8317 2.0565-6.0916 2.0698-8.8299 0.45225-1.5517-0.9166-5.1202-2.8262-7.9299-4.2434l-5.1085-2.5768-4.6185 2.7232c-2.5401 1.4978-4.9875 2.7232-5.4387 2.7232s-2.0146 0.59128-3.4744 1.314c-6.7867 3.3601-10.092 4.3707-12.537 3.8336-1.427-0.3135-2.8608-0.13904-3.1862 0.38756-0.37439 0.60572-1.7515 0.306-3.7495-0.81619-1.7368-0.97547-3.3911-1.5402-3.6762-1.255-0.28518 0.28509-1.93-0.31434-3.6552-1.3323l-3.1367-1.8506-4.6377 2.0099c-2.5507 1.1055-6.5361 2.5599-8.8564 3.2321-2.3203 0.67219-4.8516 1.5125-5.625 1.8673-0.77344 0.35484-4.7066 0.30328-8.7403-0.11457z"/>
</svg>
