<?xml version='1.0' encoding='utf-8'?>
<svg xmlns="http://www.w3.org/2000/svg" id="svg3039" version="1.1" width="6000" height="4000"> <metadata id="metadata3045"> </metadata> <defs id="defs3043"/> <path style="fill:#000000" d="m 993.79941,3281.5862 c -3.73251,-1.1035 -11.83186,-4.2305 -17.99873,-6.949 -6.16674,-2.7188 -21.25964,-7.8417 -33.53988,-11.3846 -31.30653,-9.0323 -34.42454,-10.6055 -37.55179,-18.9477 -1.31281,-3.5018 -2.69598,-4.7432 -7.6833,-6.8957 -8.52531,-3.6795 -30.37989,-4.5063 -41.75413,-1.5797 -5.45363,1.4033 -11.8142,1.9896 -21.87876,2.0168 -15.9576,0.043 -17.12914,-0.3117 -34.2955,-10.3908 -11.31081,-6.6409 -36.60722,-18.0513 -40.0193,-18.0513 -1.41279,0 -4.68157,-1.9345 -7.26386,-4.2989 -5.17001,-4.7338 -6.22691,-5.068 -8.4957,-2.6869 -1.86524,1.9576 -8.61293,2.1152 -11.49948,0.2686 -1.15497,-0.7388 -3.81727,-5.2124 -5.91613,-9.9412 -2.09887,-4.729 -4.68224,-10.5476 -5.74078,-12.9302 -1.19844,-2.6976 -1.59683,-5.4704 -1.05568,-7.3482 0.47799,-1.6588 5.50035,-7.2726 11.16099,-12.475 5.6677,-5.2091 12.13259,-12.4672 14.38861,-16.154 2.89755,-4.7351 6.00483,-7.9224 10.61508,-10.8891 6.31833,-4.0655 10.25757,-8.7343 10.25757,-12.1576 0,-0.9162 -0.69409,-1.6866 -1.54236,-1.7124 -12.27725,-0.373 -27.99334,-2.3967 -35.59758,-4.5839 -5.15752,-1.4836 -12.65337,-3.0212 -16.65768,-3.417 -9.68463,-0.9572 -14.54346,-2.3389 -17.19352,-4.8895 -1.76432,-1.6982 -3.81157,-2.1091 -10.50683,-2.1091 -7.47738,0 -8.70271,-0.3148 -12.15568,-3.1245 -2.11204,-1.7185 -4.19311,-4.6618 -4.62465,-6.5408 -1.10172,-4.7981 -3.22911,-5.0352 -9.98115,-1.1121 -6.70681,3.8968 -12.46579,3.9068 -16.90733,0.03 -2.32258,-2.0275 -2.54154,-3.5084 -2.54154,-17.188 0,-17.5004 -0.32546,-18.0744 -10.7808,-19.0142 -5.54151,-0.4982 -8.7076,-0.049 -16.54452,2.346 -12.19073,3.7259 -25.56862,4.7264 -30.92703,2.3128 -5.42836,-2.4448 -10.34518,-8.4149 -16.06518,-19.5063 -6.00075,-11.6362 -6.54122,-13.9848 -5.39454,-23.4476 1.08706,-8.9701 0.0435,-10.9847 -7.25828,-14.0188 -4.22517,-1.7555 -5.93963,-3.2468 -7.25339,-6.3089 -1.64723,-3.8394 -1.5353,-4.3421 2.63092,-11.8221 2.39321,-4.2968 4.96545,-9.5179 5.71591,-11.6027 2.0626,-5.7294 7.25761,-10.5498 23.86529,-22.1443 8.31791,-5.8071 19.56555,-13.7367 24.99473,-17.6213 16.47919,-11.7913 40.72522,-26.6979 55.93235,-34.3875 14.43343,-7.2985 20.26481,-10.6245 37.31938,-21.2859 5.03893,-3.15 12.77086,-7.4611 17.18198,-9.5802 4.41112,-2.1193 16.34906,-8.556 26.52881,-14.3039 10.1796,-5.748 23.2281,-12.5604 28.99659,-15.1386 8.81626,-3.9408 10.54906,-5.1476 10.87044,-7.5712 0.25726,-1.9395 -0.34854,-3.2027 -1.85084,-3.859 -3.06544,-1.3394 -27.34569,1.5027 -30.56245,3.5774 -10.0503,6.4819 -10.80429,6.7775 -18.91098,7.4106 -4.55687,0.3559 -17.16921,1.5815 -28.02743,2.7234 -33.78519,3.5533 -36.56878,3.6631 -44.15469,1.7422 -7.39723,-1.8733 -11.98765,-5.6208 -11.98765,-9.7864 0,-3.733 4.30273,-7.6307 15.05717,-13.6395 l 9.89911,-5.531 -0.7597,-4.9237 c -0.41795,-2.7081 -2.14627,-7.2656 -3.8409,-10.1279 -4.99995,-8.4451 -4.35869,-10.9018 5.14176,-19.6982 2.6032,-2.4103 7.05317,-6.7782 9.88892,-9.7065 7.13305,-7.3661 20.37035,-16.5788 32.63959,-22.7162 5.70722,-2.8548 11.00831,-6.3325 11.8506,-7.7745 0.83835,-1.435 1.53245,-5.3021 1.54237,-8.5937 0.0367,-12.1596 4.54749,-19.9533 22.22838,-38.4079 5.08987,-5.3127 13.141,-13.9389 17.89157,-19.1698 4.75043,-5.2308 15.44891,-15.4694 23.77442,-22.7524 8.32537,-7.2831 14.85247,-13.643 14.50474,-14.1332 -0.77098,-1.0866 -15.55404,-2.8305 -37.04527,-4.37 -8.82238,-0.6321 -18.05049,-1.6107 -20.50673,-2.1748 -14.09372,-3.2368 -18.58417,-14.9722 -10.82562,-28.2913 10.52313,-18.0649 16.34024,-24.6069 25.55164,-28.7351 1.82204,-0.8167 7.81098,-3.7197 13.30862,-6.4513 12.14481,-6.0341 42.77586,-18.2131 57.86848,-23.0087 3.75587,-1.1934 8.82455,-4.1629 12.956,-7.59 8.60967,-7.1423 36.57978,-19.1482 55.88168,-23.9868 7.32172,-1.8354 16.55757,-4.764 20.52411,-6.508 3.96655,-1.7441 14.03925,-4.9155 22.38378,-7.0478 8.34452,-2.1322 18.3955,-5.0587 22.33556,-6.503 3.93992,-1.4445 11.47489,-3.5625 16.7446,-4.7067 5.26944,-1.1444 15.96629,-4.0016 23.77078,-6.3491 15.5279,-4.6712 54.7908,-13.377 68.4812,-15.1845 4.7505,-0.6273 13.6345,-2.0642 19.7423,-3.1932 6.1078,-1.129 15.7763,-2.8682 21.4855,-3.8649 5.7093,-0.9965 12.2553,-2.4942 14.5467,-3.3282 2.2915,-0.834 9.0029,-2.6573 14.9145,-4.0521 5.9116,-1.3947 15.4679,-4.0567 21.2364,-5.9155 5.7684,-1.859 15.9498,-4.5915 22.6253,-6.0724 17.1976,-3.8152 35.0834,-12.1972 53.0425,-24.8578 15.7551,-11.1068 24.1987,-16.2005 47.7217,-28.7874 14.1088,-7.5496 17.6171,-9.5665 29.6136,-17.0257 5.0898,-3.1648 20.3593,-10.9603 33.9321,-17.3233 29.9436,-14.0378 36.3786,-17.6466 41.6118,-23.3358 16.4458,-17.8795 52.3065,-45.9171 92.7551,-72.5207 5.5175,-3.6288 18.11,-13.5556 27.9835,-22.0594 9.8737,-8.5039 22.2206,-18.5371 27.4379,-22.2961 9.6365,-6.9428 9.9063,-7.3702 9.5555,-15.1432 -0.094,-2.0688 1.1021,-5.9354 2.6567,-8.5923 2.8399,-4.8537 4.2239,-5.9345 40.7716,-31.841 7.9755,-5.6534 14.9162,-10.8918 15.4237,-11.6408 2.4071,-3.5531 42.8181,-40.0848 58.3169,-52.7186 5.0798,-4.141 18.1203,-15.9674 28.9785,-26.2811 10.8583,-10.3137 23.7815,-22.1306 28.7184,-26.2601 10.8685,-9.0912 16.9607,-15.9453 23.0288,-25.9089 2.9841,-4.8996 7.5085,-9.9593 12.974,-14.509 4.75,-3.954 9.7889,-9.4056 11.6107,-12.5616 3.1883,-5.5234 4.7615,-6.8525 23.2899,-19.6747 9.7505,-6.7479 56.7415,-48.4676 66.541,-59.0767 6.7121,-7.2669 33.4526,-26.8075 49.1522,-35.9179 7.5709,-4.3934 14.6883,-9.6981 20.0983,-14.9792 4.607,-4.4974 16.7852,-14.3604 27.0628,-21.918 10.2774,-7.5576 23.9265,-17.7123 30.3314,-22.5659 6.4048,-4.8537 14.7428,-10.6573 18.5291,-12.8968 3.7862,-2.2397 12.5432,-7.9412 19.4599,-12.67 11.4199,-7.8074 26.1619,-16.5087 33.6242,-19.846 1.5888,-0.7107 7.0919,-1.5689 12.2292,-1.9073 l 9.34,-0.6153 11.832,-10.1809 c 6.5076,-5.5995 14.8727,-12.4156 18.5895,-15.1468 3.7166,-2.7313 12.3166,-10.044 19.1113,-16.2506 20.9768,-19.1611 44.0289,-38.9779 53.7175,-46.1781 6.7728,-5.0333 10.1435,-8.4818 12.5704,-12.8605 3.841,-6.9302 23.9133,-25.2417 33.6955,-30.7398 11.0356,-6.2026 39.1932,-20.4942 51.6641,-26.2226 15.0744,-6.9244 20.5051,-10.6592 35.2743,-24.2584 26.3607,-24.2723 43.3241,-38.8114 55.5746,-47.632 7.1216,-5.1276 14.5993,-11.0159 16.6169,-13.0847 2.0177,-2.0689 9.517,-9.0032 16.665,-15.4096 13.2368,-11.8634 31.3428,-23.5002 56.7999,-36.5057 16.4917,-8.4251 22.0047,-12.1519 34.5491,-23.3542 7.6495,-6.8312 16.009,-12.9182 24.061,-17.5206 6.7865,-3.8787 14.8376,-8.5749 17.8915,-10.436 3.0539,-1.8609 10.2058,-5.2685 15.8932,-7.5725 5.6874,-2.3041 17.6253,-8.7107 26.5288,-14.2369 8.9035,-5.5263 20.0749,-12.1647 24.8253,-14.7519 4.7506,-2.5872 13.9195,-8.3451 20.3757,-12.7951 6.4561,-4.45 15.6177,-10.2242 20.3592,-12.8317 15.6763,-8.6207 17.1501,-9.6079 31.4482,-21.0674 31.4751,-25.2268 49.0495,-33.4156 87.6066,-40.8211 31.1428,-5.9814 42.9576,-9.4257 63.5457,-18.525 20.6795,-9.1397 90.9375,-28.2437 112.091,-30.4787 23.7627,-2.5108 24.9215,-2.7835 42.4702,-9.9912 9.5158,-3.9082 17.7163,-7.106 18.2234,-7.106 0.5071,0 3.482,-1.3545 6.6109,-3.0099 3.1289,-1.6554 8.6635,-4.1092 12.2987,-5.4529 11.8754,-4.3892 56.7918,-13.9928 77.9959,-16.6761 9.881,-1.2505 10.9045,-1.6277 15.6605,-5.7703 3.6452,-3.1749 7.2966,-5.0348 12.8723,-6.5564 4.2809,-1.1683 11.3927,-3.559 15.8039,-5.3127 4.4111,-1.7536 12.4623,-3.9734 17.8914,-4.933 11.3065,-1.9981 27.3313,-5.7317 46.8881,-10.9247 7.4651,-1.9822 18.0149,-4.5288 23.4441,-5.6591 5.4291,-1.1303 14.0052,-3.5885 19.0577,-5.4625 5.0528,-1.8742 14.4921,-4.3934 20.9763,-5.5985 18.4305,-3.4253 40.5581,-9.1061 64.2303,-16.4901 6.4471,-2.0109 16.7193,-4.9426 22.8271,-6.5149 6.1078,-1.5722 17.7681,-5.1822 25.9117,-8.0223 16.7688,-5.8477 22.1699,-7.3159 43.566,-11.8428 8.3526,-1.7671 18.0694,-4.3593 21.5933,-5.7606 3.5237,-1.4012 10.4147,-3.8048 15.3132,-5.3412 14.8193,-4.6487 21.4884,-8.1396 31.6416,-16.5633 7.5412,-6.2568 12.0731,-8.9966 20.3592,-12.3089 15.9542,-6.3774 20.6427,-8.5764 26.3999,-12.3828 2.8792,-1.9036 9.3995,-6.1036 14.4894,-9.3333 5.0898,-3.2299 19.6187,-14.9722 32.2863,-26.0942 20.5529,-18.0453 24.4552,-22.0728 36.2531,-37.41772 19.0801,-24.81652 21.9133,-27.76944 34.6309,-36.09534 13.0475,-8.5419 20.0134,-15.01183 29.4072,-27.31424 3.6108,-4.72884 8.2887,-10.29053 10.3952,-12.3595 2.1066,-2.06885 5.883,-6.66331 8.3923,-10.20999 6.6302,-9.37128 23.0518,-28.24055 37.0023,-42.51741 17.5936,-18.00495 26.991,-27.98435 37.3082,-39.61848 31.35,-35.35212 53.1539,-57.51475 66.1637,-67.2528 25.8196,-19.32626 48.8093,-39.68977 71.6583,-63.47276 20.7658,-21.61446 27.9753,-27.22006 37.1951,-28.92035 2.3431,-0.43198 5.1487,-2.07687 6.7864,-3.97867 7.6019,-8.82813 17.688,-16.97824 30.5543,-24.68968 7.8045,-4.67762 21.9634,-13.78073 31.4644,-20.22912 35.7905,-24.29132 66.6113,-41.50326 89.7209,-50.10475 5.6236,-2.09326 16.8984,-6.88647 25.0551,-10.65193 8.1721,-3.77225 22.8522,-9.25376 32.6982,-12.20908 9.8274,-2.94981 22.31,-6.79505 27.7392,-8.545 6.5194,-2.10164 14.4798,-3.62076 23.444,-4.47407 7.4651,-0.71068 19.9352,-1.97576 27.7114,-2.81136 8.707,-0.93565 25.8399,-1.51936 44.5969,-1.51936 23.3168,0 32.7311,-0.40937 40.1528,-1.74648 9.9422,-1.79135 17.5372,-1.64764 35.6065,0.67334 4.7506,0.61016 13.6346,1.56423 19.7424,2.11995 14.3127,1.30253 44.3521,7.56281 61.783,12.8756 9.5152,2.90015 19.9015,5.011 34.2226,6.9548 11.7428,1.59403 24.1412,3.96838 28.9082,5.53621 4.5909,1.5099 11.401,3.72582 15.1335,4.92424 15.8943,5.10341 15.2428,4.75782 55.8474,29.62352 16.6769,10.21274 21.3137,13.72329 32.5485,24.64324 7.2056,7.00375 15.6896,15.93036 18.8534,19.83687 8.749,10.80233 15.51,17.079 18.3971,17.079 1.4095,0 3.9422,0.54746 5.6283,1.21661 2.9469,1.16947 3.7974,2.61356 9.8452,16.7169 2.4269,5.6597 6.3184,21.6597 9.448,38.84603 1.3273,7.28902 2.7549,13.73418 3.1725,14.32269 0.7196,1.01414 1.3863,4.61958 4.3411,23.47473 0.6948,4.43327 1.6507,13.6223 2.124,20.41999 0.4735,6.79769 1.2713,12.92311 1.773,13.61189 0.5018,0.68866 1.4893,10.84492 2.1945,22.56949 0.7051,11.72444 1.6015,24.61488 1.9917,28.64549 0.5535,5.71656 0.2254,8.26359 -1.4917,11.58028 l -2.2012,4.25198 3.5945,3.3167 c 1.977,1.82426 7.7589,6.11333 12.8486,9.53138 15.9581,10.71665 17.7683,12.88793 34.7029,41.62819 11.5109,19.5352 20.0613,29.68093 31.1336,36.9422 4.5085,2.95662 8.1975,5.75446 8.1975,6.21732 0,0.81574 9.8495,7.99838 20.1009,14.6581 2.7615,1.79398 6.1703,4.98216 7.5752,7.08488 1.4048,2.10259 4.6475,5.96459 7.206,8.58233 4.6465,4.75421 11.684,17.15774 20.6638,36.42014 5.8766,12.6058 7.3628,23.5475 6.8954,50.7638 -0.2868,16.6925 -0.607,19.3281 -2.5791,21.2261 -3.4651,3.335 -5.0368,2.6488 -7.9614,-3.4753 -8.2532,-17.283 -10.0103,-19.6784 -18.2542,-24.8859 -4.9004,-3.0956 -11.4441,-5.9901 -17.0418,-7.5383 -5.4439,-1.5058 -12.2898,-4.5043 -17.0771,-7.4798 -7.5615,-4.7 -8.427,-4.9663 -16.1289,-4.9663 -5.2777,0 -10.6216,-0.806 -15.2025,-2.2927 -3.8852,-1.261 -17.8916,-5.5414 -31.1251,-9.5121 -13.2335,-3.9707 -26.5596,-8.102 -29.6135,-9.1806 -6.1035,-2.1559 -22.3784,-10.1387 -33.9322,-16.64381 -4.0718,-2.2925 -11.8454,-5.4735 -17.2746,-7.06884 -8.5718,-2.5189 -12.3885,-2.96477 -28.9966,-3.38706 -20.0596,-0.51024 -25.2698,0.10291 -44.8073,5.27163 -14.8001,3.91549 -37.084,18.75318 -46.9514,31.26228 -2.447,3.102 -6.1307,9.6628 -8.1862,14.5794 -6.89,16.4799 -10.3172,20.4475 -22.3288,25.8477 l -6.6685,2.9981 -1.3693,7.8802 c -1.8435,10.6091 -4.2464,12.0721 -14.9798,9.1215 -2.6066,-0.7166 -2.7762,-0.458 -2.7762,4.233 0,2.7478 -0.8046,6.6734 -1.788,8.7232 -1.4728,3.0702 -2.4356,3.727 -5.463,3.727 -2.4153,0 -4.4779,-0.8891 -6.018,-2.5944 -1.2886,-1.4268 -4.5217,-3.4568 -7.1845,-4.5109 -2.6627,-1.0541 -5.2579,-2.1033 -5.7669,-2.3315 -0.5089,-0.2281 -0.9254,0.5275 -0.9254,1.6792 0,2.9551 -4.469,7.5499 -7.7364,7.9545 -2.5696,0.318 -2.7925,1.0048 -3.3686,10.3805 -0.5519,8.9803 -0.9315,10.2616 -3.5966,12.1379 -1.7261,1.2153 -3.8025,1.8007 -4.9357,1.3915 -4.8244,-1.7421 -6.2745,-1.7539 -6.2745,-0.05 0,2.7742 -4.619,6.0362 -8.5475,6.0362 l -3.6119,0 0.6209,13.703 c 0.6899,15.2344 -0.4643,18.8876 -7.3593,23.293 -3.6201,2.3128 -12.2905,2.9146 -17.7547,1.2323 -3.969,-1.222 -4.7641,2.9496 -2.8309,14.8537 3.611,22.2347 2.6827,45.7283 -1.9844,50.2202 -2.6758,2.5753 -6.916,2.5898 -9.5729,0.032 -1.7492,-1.6835 -2.2298,-6.0766 -3.1249,-28.5638 -1.0408,-26.1451 -2.0143,-31.3669 -4.9553,-26.5803 -2.2005,3.5812 -5.0412,18.4043 -5.0415,26.3057 -3e-4,7.9299 -0.8878,10.0736 -6.4993,15.698 -3.5761,3.5843 -3.6491,3.885 -2.8678,11.8221 2.0413,20.7377 2.2036,25.8809 0.9177,29.0934 -1.1171,2.7914 -0.9326,4.0356 1.0838,7.3125 2.9788,4.841 3.2437,13.7751 0.509,17.1757 -3.9326,4.8903 -11.6521,1.4406 -11.6521,-5.2071 0,-3.3062 -4.5307,-7.6226 -5.4359,-5.1787 -0.3036,0.8192 -0.8001,7.2933 -1.1035,14.3866 -0.4048,9.4684 -1.2491,14.6011 -3.1756,19.3079 -1.4431,3.5262 -2.624,8.9671 -2.624,12.0909 0,4.3302 -0.6133,6.2138 -2.5819,7.9285 -2.4504,2.1343 -3.9104,2.2111 -8.7799,0.4621 -3.0336,-1.0895 -3.8989,3.0161 -3.1296,14.8522 0.4354,6.7021 1.6397,12.2431 3.7743,17.3658 1.724,4.1377 3.5062,9.766 3.9604,12.5071 1.1672,7.0446 -2.4194,13.8112 -9.3367,17.6146 l -5.1999,2.8591 0.8169,6.9443 c 0.4492,3.8191 1.6894,10.6199 2.7562,15.1127 1.2978,5.4659 1.7903,11.9637 1.4886,19.6391 -0.4452,11.3321 -0.5092,11.5448 -5.31,17.616 l -4.8593,6.1454 0.3827,13.653 c 0.9712,34.6516 0.6392,36.3982 -8.4178,44.287 -4.2383,3.6916 -6.3263,6.5853 -7.4692,10.3519 -0.8724,2.8753 -3.1445,10.0643 -5.0487,15.9753 -4.6392,14.3997 -8.6525,30.4746 -10.062,40.3026 -0.6358,4.4334 -3.0365,16.2824 -5.3348,26.3311 -2.2982,10.0488 -4.5024,20.9306 -4.8979,24.1817 -0.6767,5.5614 -5.3864,18.4273 -13.9664,38.1532 -2.0569,4.7288 -6.0735,14.8851 -8.9257,22.5695 -2.8523,7.6844 -6.7763,17.0534 -8.7203,20.82 -1.9439,3.7666 -4.3537,11.2831 -5.355,16.7034 -2.5073,13.5712 -5.878,22.4909 -11.6488,30.8248 -4.7135,6.8069 -8.165,14.8606 -13.7744,32.1399 -1.4392,4.4332 -3.6595,10.9623 -4.9341,14.509 -1.2745,3.5465 -2.8756,8.3828 -3.5579,10.7472 -0.6826,2.3645 -4.345,8.8477 -8.139,14.407 -3.7939,5.5594 -8.186,13.088 -9.7599,16.7303 -4.0892,9.4626 -7.6475,15.3248 -13.3099,21.9289 -6.1337,7.1536 -16.0479,24.5359 -20.9178,36.6745 -2.0158,5.0244 -10.287,20.9843 -18.3805,35.4664 -8.0935,14.4821 -14.7112,26.8045 -14.7061,27.3831 0.046,5.1864 -19.6748,38.5807 -33.1991,56.2204 -6.4157,8.3681 -12.5972,17.6205 -20.4674,30.6367 -1.3566,2.2438 -4.8654,6.8384 -7.7972,10.21 -6.0297,6.9347 -12.6302,17.8252 -19.2172,31.7081 -2.4677,5.2009 -6.6067,12.4555 -9.1974,16.121 -2.5908,3.6655 -7.0152,10.1213 -9.8321,14.3463 -5.3973,8.0952 -9.8769,12.0376 -17.554,15.4488 -4.5672,2.0296 -7.689,5.9792 -26.3149,33.2933 -6.1415,9.0061 -26.0465,36.11 -30.4382,41.4463 -2.4012,2.9176 -6.2228,7.9648 -8.4926,11.2159 -2.2697,3.251 -6.7021,8.571 -9.8498,11.8221 -3.1476,3.2511 -8.9239,9.6149 -12.8363,14.1419 -3.9123,4.5269 -8.4441,8.9904 -10.0707,9.9186 -3.6673,2.0929 -17.0165,15.9802 -29.0433,30.2138 -14.95,17.6931 -54.0098,57.638 -62.1324,63.5402 -4.1663,3.0275 -10.3512,8.1231 -13.7446,11.3237 -3.3932,3.2004 -22.7774,17.3834 -43.076,31.5178 -42.2642,29.4291 -56.6875,41.2059 -61.6453,50.3342 -4.4777,8.2443 -17.113,19.1326 -32.7049,28.1831 -24.7126,14.3448 -33.7814,19.8788 -42.2103,25.7582 -5.3291,3.717 -17.0637,10.7779 -26.077,15.6908 -9.0134,4.9129 -23.1772,13.3048 -31.4753,18.6487 -15.1158,9.7347 -24.5568,15.554 -46.1461,28.4442 -14.3059,8.5416 -38.7492,28.2685 -51.9558,41.9307 -12.3255,12.7506 -25.4269,29.9628 -31.9533,41.9788 -4.1992,7.7315 -6.7075,10.6218 -16.3213,18.808 -11.3697,9.6812 -27.1037,26.5924 -36.4115,39.1359 -5.4445,7.3374 -5.9507,8.5534 -14.5715,35.021 -5.7823,17.7526 -5.9483,18.6667 -5.8536,32.2422 0.088,12.6996 0.411,14.6448 3.5411,21.3658 1.894,4.0669 7.849,13.2558 13.2331,20.42 14.4118,19.1765 17.2449,24.6898 18.1526,35.325 l 0.757,8.8683 5.5525,0.6384 c 10.6916,1.2293 17.229,4.7605 33.6828,18.1943 l 10.8556,8.8631 6.9435,-0.6242 c 3.9414,-0.3542 10.9847,0.019 16.2901,0.8647 5.1407,0.819 14.3349,1.8267 20.4316,2.2394 6.9158,0.4681 17.2666,2.3039 27.5211,4.881 9.776,2.4568 20.2839,4.3492 25.9319,4.67 5.2227,0.2967 14.4432,0.7916 20.49,1.0998 12.6371,0.6445 19.4121,2.0037 25.0943,5.0342 2.204,1.1755 10.8104,3.5924 19.1255,5.3711 17.2112,3.6816 25.7085,7.2302 30.3811,12.6876 1.7843,2.084 4.355,4.5001 5.7127,5.3692 1.3576,0.869 3.7435,2.8036 5.3019,4.2989 1.5584,1.4954 5.6317,5.3788 9.0515,8.6299 15.5468,14.7797 22.5283,26.6231 17.7358,30.0875 -2.661,1.9235 -5.1303,0.6551 -6.8666,-3.5271 -0.9454,-2.2771 -3.0766,-4.4005 -5.6086,-5.5883 -2.2462,-1.0536 -5.6088,-3.8322 -7.4725,-6.1747 -1.8637,-2.3424 -6.4683,-7.0317 -10.2326,-10.4207 -5.3828,-4.8465 -8.125,-6.44 -12.8453,-7.465 -3.3008,-0.7168 -9.131,-2.6562 -12.956,-4.3099 -9.2341,-3.9926 -18.4222,-6.1499 -20.0719,-4.7131 -0.858,0.7474 0.7521,2.576 5.0422,5.7268 3.4666,2.546 7.3729,6.1122 8.681,7.9249 3.8992,5.4035 8.683,8.9715 19.7535,14.7332 13.8013,7.1829 19.7239,11.4788 29.7799,21.6006 3.6277,3.6512 4.907,5.7987 4.516,7.5801 -0.3,1.3669 0.1705,3.0679 1.0455,3.7799 0.8752,0.712 1.273,2.0163 0.8844,2.8986 -0.9738,2.2104 -5.2785,2.02 -6.257,-0.2766 -1.5984,-3.7511 -18.6762,-16.3898 -22.1464,-16.3898 -0.9084,0 -4.2893,-1.1626 -7.5132,-2.5836 -3.224,-1.421 -8.9156,-3.8485 -12.6481,-5.3945 -3.7325,-1.546 -9.8748,-4.4626 -13.6493,-6.4815 -10.0501,-5.3751 -44.3439,-13.7343 -44.3439,-10.8087 0,2.0675 14.8468,16.7938 32.0316,31.7713 19.1604,16.6995 22.5291,20.397 25.8991,28.426 0.9378,2.2343 3.9015,4.5996 9.6537,7.7044 4.5651,2.4641 11.7165,6.874 15.8916,9.8 6.478,4.5395 20.7585,11.6634 44.8493,22.3731 5.6771,2.5237 13.2604,5.3683 38.2508,14.3483 15.2394,5.4762 30.7932,12.0444 35.783,15.1108 1.6966,1.0427 8.3293,3.6598 14.7393,5.8156 11.0438,3.7145 16.1615,4.6865 36.4674,6.9265 18.8556,2.0798 34.9968,4.7404 43.9055,7.2369 5.1459,1.442 13.1972,2.8962 17.8915,3.2315 4.6942,0.3353 11.0338,1.2486 14.0876,2.0296 3.0539,0.7809 9.0173,1.6972 13.2518,2.036 9.3585,0.7486 25.5801,6.0285 31.8449,10.3648 2.5292,1.7508 5.5281,3.1832 6.664,3.1832 2.7506,0 7.2653,3.7638 8.135,6.782 0.384,1.3329 0.1263,4.5841 -0.572,7.2247 -0.6986,2.6406 -1.2837,7.0757 -1.3003,9.8556 -0.016,2.78 -0.5143,6.1655 -1.1062,7.5232 -0.592,1.3578 -1.7806,4.4032 -2.6417,6.7676 -0.8611,2.3645 -2.1515,4.628 -2.8675,5.0301 -1.8158,1.0196 -5.7537,-1.007 -5.7537,-2.9611 0,-0.8894 -1.2363,-3.6533 -2.7476,-6.1419 -1.7348,-2.8571 -2.9854,-7.2591 -3.3932,-11.9433 l -0.6456,-7.4184 -8.0204,-2.0747 c -4.4111,-1.1412 -9.7649,-2.3233 -11.8971,-2.6271 -3.7451,-0.5333 -3.9658,-0.3449 -6.4983,5.5506 -5.4897,12.7801 -11.0033,18.9087 -20.4634,22.7457 -6.9676,2.8261 -14.5786,3.1812 -31.5056,1.4701 -5.7507,-0.5815 -15.7308,-1.5914 -22.1779,-2.2445 -12.315,-1.2475 -37.6189,-6.5439 -43.0706,-9.0152 -1.7603,-0.7979 -4.5413,-2.7008 -6.1799,-4.2288 -1.6388,-1.5278 -5.9357,-3.7412 -9.5488,-4.9187 -3.6132,-1.1775 -10.4241,-3.8317 -15.1357,-5.8984 -4.7116,-2.0666 -11.2421,-4.6821 -14.5122,-5.8122 -3.2703,-1.13 -13.9659,-5.2515 -23.7681,-9.1589 -9.8024,-3.9074 -18.5794,-7.1043 -19.5048,-7.1043 -1.2101,0 -1.5761,1.2443 -1.3032,4.4313 0.3698,4.3172 0.6679,4.5894 11.5712,10.5581 6.1556,3.3697 14.4844,7.7494 18.5085,9.7327 4.0242,1.9834 11.2079,5.8734 15.9636,8.6445 17.1173,9.9736 38.6803,17.7688 54.8987,19.8462 9.6339,1.2341 24.959,4.8702 34.4878,8.1829 5.0561,1.7578 13.2347,3.6422 18.1749,4.1878 14.169,1.5647 25.8827,7.6541 31.8851,16.5754 1.6841,2.503 4.3922,5.079 6.018,5.7242 4.053,1.6085 8.8221,7.3709 10.7134,12.945 1.0691,3.1511 2.643,5.1205 4.9062,6.14 1.8329,0.8256 3.7477,2.3652 4.2554,3.4214 1.4016,2.9171 2.125,29.2058 0.9548,34.7001 -0.808,3.794 -1.5547,4.8364 -3.4638,4.8364 -1.8772,0 -2.6248,-0.9829 -3.27,-4.299 -1.561,-8.0227 -2.8579,-10.9501 -6.9509,-15.6893 -2.247,-2.6019 -6.8285,-8.1162 -10.181,-12.2539 -7.3692,-9.0953 -18.2982,-17.2562 -25.8351,-19.2915 -9.4845,-2.5613 -21.2626,-6.9322 -23.5602,-8.7433 -3.4365,-2.7088 -4.4555,-1.1295 -5.0718,7.8607 -0.9462,13.801 -5.8947,19.6518 -18.0537,21.3454 -6.4084,0.8925 -10.4542,-0.39 -23.5013,-7.4496 -35.5494,-19.2356 -42.8572,-22.5672 -60.7962,-27.7172 -8.2765,-2.376 -18.8759,-5.999 -23.5545,-8.0511 -10.4763,-4.5953 -35.5863,-19.1445 -47.2044,-27.3509 -4.7504,-3.3555 -10.9304,-7.3405 -13.7331,-8.8552 -2.8028,-1.5146 -8.633,-6.2131 -12.956,-10.4408 -4.814,-4.7079 -10.2509,-8.7504 -14.0294,-10.4316 -15.3822,-6.8439 -39.1982,-22.8885 -47.5308,-32.021 -5.0146,-5.4963 -7.573,-13.2374 -6.0071,-18.1767 0.7872,-2.4837 0.7814,-4.4827 -0.018,-5.7821 -0.6713,-1.0924 -6.4816,-4.0037 -12.9118,-6.4697 -12.3631,-4.7414 -12.559,-4.7475 -20.5232,-0.6396 -3.6965,1.9067 -16.0891,1.3744 -38.8677,-1.6689 -8.1437,-1.0881 -17.8606,-2.3077 -21.5931,-2.7104 -3.7327,-0.4026 -10.6733,-1.8644 -15.4238,-3.2486 -12.1469,-3.539 -29.5368,-4.7285 -53.6746,-3.671 -17.5289,0.7678 -22.5034,1.4115 -35.783,4.6296 -8.4829,2.0557 -19.8657,4.7931 -25.2947,6.0832 -5.8749,1.396 -18.0319,5.9999 -30.0281,11.3715 -11.0863,4.9644 -20.8798,9.026 -21.7632,9.026 -0.8835,0 -5.1875,1.4597 -9.5647,3.2438 -16.1297,6.5745 -31.5275,7.8325 -51.8061,4.2332 -15.5654,-2.763 -23.3473,-6.1145 -27.798,-11.9724 -2.9486,-3.8809 -3.3591,-5.4046 -3.1419,-11.6609 0.1375,-3.9582 1.0978,-9.3177 2.1343,-11.9099 1.0363,-2.5923 1.8924,-5.1474 1.9023,-5.678 0.014,-0.554 -5.104,-0.6537 -12.0125,-0.2345 -11.375,0.6907 -12.7879,1.0582 -25.9327,6.7463 -12.2042,5.2811 -14.5389,5.9414 -19.1164,5.4066 -9.0719,-1.0597 -16.924,1.1053 -22.1833,6.1168 -2.5532,2.4329 -4.642,5.2046 -4.642,6.1596 0,0.9551 -1.0561,2.9058 -2.3469,4.3351 -1.291,1.4293 -2.5403,3.7917 -2.7763,5.2499 -0.2388,1.4739 -1.2513,2.6513 -2.2803,2.6513 -2.5611,0 -2.2202,-16.0512 0.3963,-18.6515 0.9788,-0.9727 2.1558,-2.8442 2.6156,-4.1588 0.4595,-1.3146 2.6076,-3.478 4.7728,-4.8073 2.1656,-1.3295 4.9631,-3.5336 6.2169,-4.8983 1.2537,-1.3645 5.2705,-4.1476 8.9262,-6.1844 3.6557,-2.0369 9.9485,-6.3474 13.9842,-9.5789 4.0357,-3.2316 9.4749,-6.8253 12.0872,-7.986 15.2009,-6.7548 32.4063,-7.279 45.7021,-1.3926 l 7.7117,3.4141 4.6274,-2.6403 c 5.3058,-3.0276 22.0622,-8.1377 26.6839,-8.1377 1.7121,0 8.8325,-0.9293 15.8231,-2.0649 7.0143,-1.1395 21.557,-2.3527 32.4524,-2.707 47.8956,-1.5578 47.179,-1.4837 57.3762,-5.9307 5.0898,-2.2197 13.141,-5.3293 17.8915,-6.9103 9.6761,-3.2204 18.5085,-8.1004 18.5085,-10.2261 0,-1.7298 -10.3767,-5.1854 -34.5491,-11.5055 -10.1798,-2.6615 -23.5058,-6.5753 -29.6135,-8.6973 -40.0519,-13.9148 -42.49,-14.5772 -56.7593,-15.419 -9.9138,-0.5849 -16.733,-1.6959 -25.295,-4.1214 -19.8209,-5.6147 -47.4844,-9.9214 -62.0708,-9.6633 -10.3336,0.183 -14.0119,-0.2117 -20.6002,-2.2097 -4.4112,-1.3379 -10.9436,-2.696 -14.5165,-3.0181 -6.3495,-0.5723 -7.1749,-0.2908 -36.5407,12.4634 -35.6057,15.4641 -37.414,15.7654 -48.107,8.0165 -2.5965,-1.8815 -4.8935,-2.5214 -8.6373,-2.4059 -12.0579,0.3718 -15.315,2.891 -19.6918,15.23 -1.9955,5.6256 -2.5063,6.1797 -5.6986,6.1797 -2.0594,0 -3.8157,-0.7017 -4.2555,-1.7 -1.5159,-3.4407 -0.6823,-14.0939 1.6614,-21.2322 2.0757,-6.3224 3.4036,-8.1847 9.5626,-13.4125 6.3063,-5.3525 6.8352,-6.1121 4.4709,-6.4217 -3.1097,-0.407 -11.21,2.9401 -14.1387,5.8423 -1.1074,1.0973 -2.4244,3.2042 -2.9267,4.682 -0.5023,1.4778 -2.7028,4.6214 -4.8896,6.9858 -2.187,2.3645 -5.5593,7.3851 -7.494,11.1572 -2.6015,5.0714 -5.0913,7.9413 -9.5571,11.016 -3.3214,2.2869 -6.7906,4.1579 -7.7091,4.1579 -3.2123,0 -5.229,-4.0491 -4.1578,-8.348 0.5498,-2.2064 1.8696,-8.8479 2.933,-14.7589 3.1542,-17.534 6.4149,-25.708 12.6744,-31.772 3.6407,-3.5271 6.9999,-5.6343 10.1649,-6.3767 2.6,-0.6097 7.3243,-2.9778 10.4984,-5.2626 8.7439,-6.2934 23.4671,-12.2058 49.3651,-19.8235 21.9131,-6.4456 39.9241,-12.6601 43.4948,-15.0077 0.8484,-0.5576 1.5424,-1.7788 1.5424,-2.7136 0,-2.7721 -15.9392,-30.2844 -21.5896,-37.2651 -5.9674,-7.3725 -10.3409,-14.7015 -13.6416,-22.8608 -3.3178,-8.201 -7.7516,-12.249 -18.2266,-16.6405 -5.9612,-2.4994 -10.3816,-5.209 -12.565,-7.7023 -1.8526,-2.1156 -4.1511,-3.8465 -5.1079,-3.8465 -0.9568,0 -4.9164,1.3924 -8.7993,3.094 -16.3928,7.1843 -50.874,14.2561 -69.1468,14.1816 -12.3819,-0.05 -18.0559,2.0769 -31.2244,11.7072 -14.151,10.3492 -23.962,13.2342 -35.0138,10.2963 -7.8984,-2.0996 -13.75,-2.0909 -20.5127,0.03 -3.9846,1.2499 -7.6102,1.5119 -13.8387,1.0001 -5.339,-0.4385 -10.6603,-0.1977 -14.4844,0.656 -5.1864,1.1578 -6.9823,1.0921 -12.6451,-0.4627 -3.6302,-0.9968 -10.3526,-1.8123 -14.9387,-1.8123 -12.6341,0 -17.9735,-3.6701 -17.9735,-12.3542 0,-2.7842 1.4123,-5.1412 5.9258,-9.8908 3.2593,-3.4295 7.7892,-8.6104 10.0669,-11.5132 3.8599,-4.9195 4.0327,-5.5032 2.545,-8.5979 -0.8778,-1.8262 -1.8572,-5.1339 -2.1761,-7.3505 -0.7172,-4.9832 -3.1609,-5.239 -12.9096,-1.3517 -3.6944,1.4732 -9.4529,3.1356 -12.7965,3.6941 -7.9784,1.3326 -21.3444,6.6873 -28.3972,11.3765 -5.8588,3.8953 -11.6142,4.9662 -11.6142,2.1612 0,-0.8715 1.527,-2.2845 3.3932,-3.1401 3.5281,-1.6171 16.3366,-12.4713 14.717,-12.4713 -0.5074,0 -0.3281,-0.9673 0.3983,-2.1495 1.1433,-1.8607 0.9419,-2.1446 -1.4989,-2.1127 -1.5509,0.02 -7.0332,0.9071 -12.183,1.9712 -7.0465,1.4558 -11.3601,3.1755 -17.4323,6.9496 -11.6436,7.237 -20.2006,8.0946 -13.6145,1.3647 1.5373,-1.5711 0.8503,-1.3634 -2.3856,0.7213 -7.6571,4.9332 -12.5624,3.0111 -6.4641,-2.533 4.0866,-3.7155 3.5855,-3.7924 -10.1394,-1.5578 -12.999,2.1163 -46.7935,5.9292 -52.6261,5.9374 -4.5984,0.012 -7.7345,1.1901 -20.0017,7.5485 -10.4428,5.4127 -11.6605,5.8384 -13.1038,4.5815 -0.9303,-0.8104 -0.9053,-1.8115 0.086,-3.4243 0.8298,-1.3502 0.9723,-2.9454 0.3498,-3.9143 -0.8994,-1.3998 -1.7296,-1.234 -5.764,1.1507 -5.1605,3.0503 -8.0965,2.8589 -8.0965,-0.5279 0,-1.2009 -0.1388,-2.1821 -0.3085,-2.1808 -5.1866,0.043 -39.4186,5.3156 -52.132,8.0299 -9.501,2.0285 -23.1048,4.4781 -30.2305,5.4433 -7.1259,0.9652 -20.1742,3.4567 -28.9966,5.5366 -8.8224,2.0798 -21.1263,4.8997 -27.342,6.2661 -6.2158,1.3665 -12.4103,3.0015 -13.7656,3.6332 -9.0667,4.2265 -63.8577,17.3021 -72.5013,17.3021 -1.6494,0 -8.6893,0.9357 -15.6441,2.0795 -6.9548,1.1436 -17.7361,2.8585 -23.9583,3.8109 -6.2222,0.9524 -17.0497,3.4672 -24.0611,5.5884 -9.3693,2.8348 -15.0368,3.9018 -21.385,4.027 -4.7505,0.093 -11.1909,0.9651 -14.3118,1.9368 -3.1209,0.9718 -14.7813,3.0512 -25.9119,4.6208 -11.1304,1.5699 -26.0674,4.078 -33.1932,5.574 -7.6391,1.6039 -19.5386,3.0903 -28.9965,3.6223 -8.8224,0.4964 -24.9248,2.1148 -35.7831,3.5968 -16.3196,2.2274 -24.7694,2.7337 -48.7389,2.9209 -15.9481,0.1246 -29.8504,0.5849 -30.894,1.0229 -1.0436,0.4381 -9.3724,2.3301 -18.5085,4.2044 -15.603,3.2009 -18.7079,3.4649 -51.1602,4.3486 -36.6682,0.9987 -56.1844,2.7825 -67.2474,6.1467 -3.7325,1.1353 -9.8403,2.6771 -13.5729,3.4267 -3.7628,0.7557 -10.6345,3.4931 -15.4236,6.1442 -4.7506,2.6298 -15.0227,7.9278 -22.8272,11.773 -7.8043,3.8454 -16.966,8.801 -20.3593,11.0125 -22.16,14.4427 -27.2497,17.399 -33.4118,19.4072 -8.0901,2.6364 -14.2436,1.8106 -18.938,-2.5419 -3.6404,-3.3752 -5.9683,-2.6516 -17.0253,5.2923 -12.4831,8.9685 -23.1198,11.249 -43.07,9.234 l -12.1784,-1.2299 -14.8068,4.7107 c -8.1437,2.5909 -19.2488,6.7128 -24.678,9.1598 -5.429,2.4471 -10.5837,4.4502 -11.4545,4.4515 -2.9188,0 -13.3126,5.162 -20.0866,9.9676 -9.7181,6.8945 -19.5797,11.4216 -26.5401,12.1838 -4.2106,0.461 -8.5485,2.0738 -14.1017,5.2427 -4.4111,2.5173 -14.6538,7.3876 -22.7611,10.823 l -14.7409,6.246 -30.9134,0.9525 c -35.0672,1.0804 -39.8641,0.7522 -43.9166,-3.0052 -1.5677,-1.4535 -3.4012,-2.6429 -4.0744,-2.6429 -0.6729,0 -5.1569,2.1195 -9.9646,4.7097 -4.8073,2.5904 -11.2393,5.801 -14.2932,7.135 -7.3425,3.2071 -25.2697,13.3818 -31.4644,17.8578 -2.7146,1.9614 -10.6789,7.3252 -17.6985,11.9195 -7.0197,4.5943 -17.0143,11.2014 -22.2102,14.6821 -24.5058,16.4166 -68.5079,39.7843 -82.2126,43.6596 -3.3659,0.9519 -8.3898,4.4048 -16.0406,11.0253 -6.1268,5.3018 -20.4402,16.4304 -31.8073,24.7303 -11.3674,8.3002 -20.6679,15.3899 -20.6679,15.755 0,1.7365 -10.2559,9.5893 -19.1254,14.6438 -5.4291,3.0942 -14.8684,10.0728 -20.9762,15.5083 -12.2222,10.8769 -18.9522,15.6053 -35.954,25.2607 -6.2451,3.5467 -15.6991,9.3359 -21.0089,12.8649 -14.2947,9.5008 -21.9142,13.1796 -29.0734,14.0373 -4.6736,0.5597 -7.0068,1.4833 -8.8893,3.5183 -9.2372,9.9859 -21.5414,17.0488 -34.8947,20.0305 -4.2156,0.9412 -12.2667,3.666 -17.8916,6.055 -10.163,4.3166 -10.2925,4.3394 -20.715,3.6581 -6.3307,-0.4138 -11.8227,-0.2399 -13.8548,0.4386 -1.8516,0.6182 -9.07,1.3888 -16.0406,1.7124 -10.3896,0.4823 -13.8974,0.2268 -19.4605,-1.4178 z M 3779.269,3195.5069 c 0.9124,-1.286 -1.4087,-2.5603 -3.0522,-1.6755 -1.3799,0.7428 -0.4741,2.6759 1.254,2.6759 0.5986,0 1.4077,-0.4502 1.7982,-1.0004 z m -230.0691,-144.6801 c 0,-1.945 -4.2687,-7.1138 -9.0363,-10.9417 -8.1597,-6.5512 -20.6702,-14.338 -21.9387,-13.6552 -1.4438,0.7773 -1.3988,11.2987 0.057,13.3027 0.619,0.8519 6.8571,3.8398 13.8624,6.6398 11.7467,4.695 17.0558,6.1439 17.0558,4.6544 z m -16.966,-63.9499 c 2.5449,-0.6157 4.627,-1.3552 4.627,-1.6436 0,-1.0718 -11.8963,-13.9751 -16.7365,-18.1531 -5.151,-4.4464 -18.3265,-11.2248 -19.6229,-10.0956 -1.3564,1.1814 1.8211,6.4917 9.4632,15.8149 13.0946,15.9755 13.4621,16.2076 22.2692,14.0774 z M 3153.89,2882.1846 c 0.8333,-1.8919 -4.1802,-8.383 -5.801,-7.5106 -1.3052,0.7026 -1.5547,7.2899 -0.3168,8.3679 1.4889,1.2971 5.4108,0.7473 6.1178,-0.8573 z" id="path3051"/> </svg>