<?xml version="1.0" standalone="no"?>
<!DOCTYPE svg PUBLIC "-//W3C//DTD SVG 20010904//EN"
 "http://www.w3.org/TR/2001/REC-SVG-20010904/DTD/svg10.dtd">
<svg version="1.0" xmlns="http://www.w3.org/2000/svg"
 width="1280.000000pt" height="773.000000pt" viewBox="0 0 1280.000000 773.000000"
 preserveAspectRatio="xMidYMid meet">
<metadata>
Created by potrace 1.15, written by Peter Selinger 2001-2017
</metadata>
<g transform="translate(0.000000,773.000000) scale(0.100000,-0.100000)"
fill="#000000" stroke="none">
<path d="M4915 5550 c-63 -8 -143 -35 -210 -69 -21 -12 -46 -21 -54 -21 -8 0
-55 -19 -105 -42 -88 -41 -94 -43 -179 -40 -49 2 -100 8 -115 13 -14 6 -69 13
-122 16 -117 6 -211 -12 -313 -61 -40 -18 -100 -42 -134 -51 -34 -10 -75 -27
-91 -39 -50 -36 -165 -184 -202 -256 -41 -81 -69 -100 -225 -145 -87 -25 -232
-107 -290 -163 -27 -28 -74 -80 -104 -117 l-55 -68 -4 -84 -5 -83 -51 -46
c-70 -63 -74 -71 -92 -165 -12 -67 -25 -97 -66 -160 -27 -44 -55 -100 -62
-127 -7 -26 -34 -84 -59 -129 -26 -45 -47 -87 -47 -93 0 -5 -9 -15 -20 -22
-11 -7 -25 -30 -31 -50 -8 -30 -19 -43 -52 -59 -23 -12 -71 -41 -107 -64 -36
-23 -85 -53 -110 -67 -25 -15 -54 -37 -66 -50 -48 -54 -94 -161 -94 -219 0
-15 -10 -39 -21 -54 -16 -19 -23 -46 -27 -96 l-5 -70 52 -48 c28 -26 51 -52
51 -59 0 -6 -17 -20 -38 -31 -20 -10 -47 -30 -60 -44 -25 -27 -59 -42 -170
-77 -40 -13 -71 -28 -69 -34 5 -14 111 -75 152 -87 53 -17 179 -39 215 -39 19
1 66 16 105 35 70 34 95 34 108 1 6 -16 81 -42 150 -51 27 -4 45 -10 41 -16
-10 -17 14 -36 61 -49 37 -10 43 -15 34 -26 -6 -8 -18 -14 -25 -14 -36 0 -122
-49 -141 -81 -38 -63 -76 -199 -76 -269 0 -103 17 -147 82 -211 54 -54 60 -57
149 -78 101 -23 142 -26 158 -12 5 4 33 16 61 25 l53 16 52 -30 c29 -16 73
-49 98 -72 34 -33 46 -39 48 -26 3 18 -50 132 -76 161 -23 26 -11 28 38 5 25
-11 55 -20 68 -19 12 0 40 -10 61 -23 41 -26 121 -112 121 -130 0 -6 5 -4 10
4 22 34 11 100 -26 156 -20 30 -40 57 -45 60 -19 11 -8 24 20 24 41 0 113 -62
163 -139 21 -34 22 -34 32 -12 14 32 -15 115 -64 179 -22 29 -38 57 -35 62 3
5 30 8 61 7 l57 -1 59 -71 c32 -38 64 -70 71 -70 20 0 20 54 0 94 -18 35 -42
68 -127 169 -38 46 -87 85 -138 111 -15 8 -38 23 -50 35 l-22 20 35 14 c30 13
41 13 99 -3 144 -39 240 -44 355 -20 38 8 93 15 120 15 48 0 54 -3 100 -51 71
-72 122 -95 210 -92 39 1 149 4 245 6 131 3 186 8 219 20 60 23 116 21 208 -7
117 -36 170 -45 253 -39 72 5 78 4 163 -37 81 -39 96 -43 190 -47 76 -4 122
-1 180 12 60 13 100 16 170 11 53 -4 131 -2 185 4 68 9 139 9 270 1 170 -11
181 -10 257 11 61 16 121 23 250 28 158 6 179 9 295 44 69 21 150 44 180 51
116 28 143 36 180 55 39 20 50 36 50 75 0 13 10 40 21 60 l22 37 71 -70 c71
-70 176 -141 238 -161 18 -5 56 -11 83 -12 53 -3 105 -16 105 -28 0 -4 14 -15
30 -24 17 -10 30 -22 30 -28 0 -5 13 -28 30 -50 l29 -41 7 26 c8 34 -3 90 -27
138 -10 20 -19 39 -19 41 0 7 153 -49 185 -68 37 -22 95 -96 131 -166 26 -52
27 -53 36 -29 19 50 3 142 -40 228 l-40 81 21 13 c39 25 87 8 139 -48 83 -89
116 -134 123 -164 12 -53 35 -37 35 23 0 78 -24 147 -75 216 -35 47 -41 61
-27 61 29 -1 113 -69 128 -106 22 -51 38 -44 31 15 -7 60 -47 142 -83 170 -21
17 -23 21 -9 21 23 0 86 -38 104 -63 12 -18 15 -18 23 -3 18 31 -23 97 -88
141 -32 23 -65 53 -72 69 -8 15 -35 41 -60 57 -82 52 -129 61 -341 66 -116 2
-203 9 -215 15 -20 11 -20 12 11 25 18 7 47 28 66 47 18 18 47 42 63 52 104
66 159 124 180 191 20 60 36 71 119 77 86 7 156 22 238 52 95 35 227 72 302
85 33 5 116 36 184 67 101 46 136 68 184 115 50 48 69 60 111 68 88 18 178 51
240 88 34 19 109 56 167 82 176 76 252 142 254 219 1 29 8 44 32 64 17 15 45
47 62 73 77 115 13 207 -194 283 -49 18 -108 43 -130 56 -22 12 -83 41 -135
63 -52 23 -104 46 -115 53 -32 18 -185 48 -248 48 -105 0 -275 -35 -402 -83
-70 -26 -238 -150 -310 -229 -27 -30 -69 -76 -93 -101 -23 -26 -50 -47 -60
-47 -10 0 -33 22 -52 49 -222 316 -269 372 -357 422 -32 17 -80 40 -108 49
-27 10 -88 38 -135 62 -79 41 -90 51 -157 139 -127 166 -255 268 -399 317 -74
25 -233 52 -311 52 -109 0 -189 25 -358 109 -172 86 -288 137 -375 167 -70 24
-275 24 -400 0 -97 -18 -105 -17 -230 42 -47 21 -130 56 -185 77 -86 32 -114
38 -195 41 -52 1 -122 -1 -155 -6z"/>
</g>
</svg>
