<?xml version='1.0' encoding='utf-8'?>
<svg xmlns="http://www.w3.org/2000/svg" version="1.0" width="768.000000pt" height="1024.000000pt" viewBox="0 0 768.000000 1024.000000" preserveAspectRatio="xMidYMid meet"> <metadata> Created by potrace 1.13, written by Peter Selinger 2001-2015 </metadata> <g transform="translate(0.000000,1024.000000) scale(0.100000,-0.100000)" fill="#000000" stroke="none"> <path d="M2542 8978 c-7 -7 -12 -47 -12 -100 0 -50 -4 -88 -10 -88 -9 0 -40 89 -55 158 -3 17 -11 32 -16 32 -13 0 -11 -63 5 -145 20 -103 8 -101 -54 10 -20 36 -39 62 -43 58 -12 -11 -8 -73 9 -130 9 -30 14 -57 11 -59 -2 -2 -23 20 -46 51 -23 30 -46 55 -50 55 -21 0 -18 -33 10 -111 42 -116 43 -119 31 -119 -5 0 -34 23 -63 50 -29 28 -55 50 -57 50 -11 0 10 -94 28 -130 11 -21 20 -42 20 -45 0 -3 -24 8 -53 25 -30 16 -57 30 -62 30 -14 0 4 -58 30 -100 30 -48 32 -64 5 -56 -68 21 -64 22 -56 -15 3 -18 18 -45 31 -59 30 -32 32 -50 5 -50 -31 0 -25 -38 14 -100 34 -53 34 -55 14 -60 -12 -3 -23 -10 -25 -16 -4 -11 52 -73 82 -90 19 -11 19 -12 -7 -23 -34 -13 -28 -33 18 -60 23 -14 34 -28 34 -44 0 -13 7 -32 15 -43 8 -10 15 -34 15 -52 0 -25 5 -35 20 -39 21 -6 60 -80 60 -114 0 -10 13 -25 30 -34 17 -9 30 -20 30 -25 0 -6 11 -27 23 -48 13 -20 41 -68 62 -107 51 -96 115 -205 137 -234 25 -32 23 -111 -3 -190 -19 -56 -24 -62 -43 -56 -60 18 -96 25 -143 25 -46 0 -51 -2 -46 -20 4 -17 0 -20 -25 -20 -32 0 -44 -16 -35 -49 4 -17 -2 -24 -31 -36 -40 -17 -40 -18 -25 -46 8 -17 4 -26 -25 -55 -39 -39 -43 -50 -23 -57 12 -5 11 -8 -25 -67 -10 -16 -10 -24 0 -40 14 -22 10 -32 -22 -68 -12 -14 -20 -37 -21 -60 -1 -23 -11 -52 -24 -71 -13 -18 -20 -35 -17 -39 4 -3 36 -5 73 -4 l66 3 -6 -45 c-6 -40 -4 -46 20 -62 22 -14 32 -15 56 -6 21 8 34 8 47 0 14 -9 24 -8 45 6 17 11 36 15 55 11 16 -3 31 -2 35 5 3 5 18 9 33 8 15 -1 37 4 50 11 13 7 30 10 37 7 8 -3 25 4 38 15 18 13 34 17 55 13 27 -6 32 -2 49 31 11 20 30 42 44 48 20 11 24 21 27 65 5 91 55 82 66 -12 7 -51 5 -55 -42 -127 -67 -102 -69 -106 -74 -176 -4 -55 -2 -63 13 -63 14 0 21 17 35 78 11 53 27 91 50 123 44 60 73 126 74 164 0 17 4 36 8 43 5 7 45 19 91 28 l82 15 35 -30 c19 -17 41 -31 49 -31 8 0 20 -8 27 -19 19 -27 120 -81 153 -81 15 0 42 -9 59 -19 84 -52 251 -43 378 21 36 17 88 32 135 39 89 12 205 60 227 94 8 13 14 32 13 44 -1 22 -21 29 -32 11 -7 -11 -52 -13 -118 -4 -38 5 -58 17 -104 58 -55 51 -64 76 -25 76 19 0 83 49 65 50 -7 0 -28 -7 -47 -16 -47 -23 -74 -13 -126 50 -25 29 -66 66 -92 82 -27 15 -48 31 -48 34 0 4 65 62 144 129 139 119 145 126 172 193 26 66 89 142 141 172 9 4 76 19 149 31 74 13 150 29 171 36 26 8 74 10 160 6 67 -4 125 -3 128 2 5 9 -86 56 -160 82 -23 9 -56 35 -84 67 -68 79 -110 96 -225 89 -64 -3 -106 -12 -137 -26 -50 -23 -221 -166 -265 -221 -16 -19 -33 -38 -39 -42 -5 -4 -54 -8 -108 -8 -91 0 -106 3 -225 46 -70 26 -140 56 -157 67 -45 32 -256 247 -286 292 -15 22 -55 90 -89 152 -35 62 -98 159 -141 216 -73 98 -119 180 -239 432 -74 155 -80 175 -80 281 0 93 -6 114 -28 92z"/> <path d="M910 6950 c0 -34 98 -188 163 -257 17 -18 26 -33 20 -33 -34 0 -109 48 -188 120 -113 102 -133 116 -147 102 -20 -20 5 -58 105 -159 62 -64 94 -103 84 -103 -24 0 -132 38 -201 71 -60 29 -86 36 -86 22 2 -29 113 -117 215 -169 41 -21 75 -42 75 -46 0 -13 -75 -9 -111 6 -19 8 -63 19 -97 26 -35 6 -70 14 -78 17 -8 3 -14 -1 -14 -11 0 -9 25 -32 56 -52 62 -40 60 -54 -7 -54 -34 0 -49 -12 -49 -39 0 -4 29 -25 65 -46 71 -41 71 -55 3 -55 -21 0 -38 -4 -38 -10 0 -5 14 -25 31 -45 30 -33 31 -37 15 -54 -21 -24 -12 -46 30 -72 28 -17 34 -27 34 -55 0 -31 6 -38 50 -66 38 -23 49 -36 45 -49 -4 -13 7 -26 42 -50 55 -38 63 -46 63 -75 0 -17 10 -23 56 -33 l56 -13 -21 -22 c-13 -13 -21 -36 -21 -57 -1 -19 -7 -45 -15 -59 -19 -33 -19 -65 0 -94 9 -14 16 -48 17 -82 0 -33 8 -72 16 -89 8 -16 14 -49 13 -72 -1 -23 3 -44 8 -48 7 -4 6 -14 -1 -30 -9 -20 -8 -28 5 -43 9 -10 20 -34 23 -53 4 -19 11 -39 15 -45 5 -6 9 -22 9 -35 -1 -32 15 -117 23 -125 3 -4 2 -15 -4 -26 -8 -15 -7 -24 5 -37 9 -10 16 -31 16 -47 0 -44 -97 -208 -142 -240 l-36 -26 -78 16 c-43 9 -131 19 -195 23 -106 5 -123 4 -183 -17 -36 -13 -66 -27 -66 -32 0 -4 16 -18 35 -30 19 -13 35 -26 35 -29 0 -4 -29 -15 -65 -24 -36 -10 -68 -22 -70 -26 -3 -4 6 -21 20 -37 14 -16 25 -35 25 -41 0 -6 -17 -19 -39 -30 -42 -22 -101 -68 -101 -80 0 -4 18 -13 40 -20 22 -6 40 -15 40 -19 0 -4 -20 -28 -45 -52 -25 -24 -45 -50 -45 -56 0 -7 13 -15 30 -19 16 -4 30 -11 30 -16 0 -5 -16 -41 -35 -79 l-35 -70 45 0 c25 0 45 -3 45 -6 0 -4 -16 -27 -36 -50 l-35 -44 26 -10 c14 -5 35 -10 46 -10 25 0 24 -15 -7 -67 -14 -24 -23 -47 -19 -52 3 -5 39 -12 80 -16 41 -4 75 -12 75 -17 0 -6 -11 -42 -25 -81 -14 -39 -22 -74 -18 -78 4 -4 26 -4 47 1 50 11 57 7 49 -30 -7 -37 2 -38 66 -5 27 13 51 22 54 19 3 -3 3 -21 0 -40 -7 -43 4 -43 74 -4 29 16 57 30 62 30 5 0 12 -13 16 -30 4 -16 10 -30 14 -30 4 0 25 13 47 30 46 35 54 36 54 11 0 -11 4 -22 9 -25 11 -7 90 49 98 69 3 8 11 15 19 15 26 0 17 -82 -16 -146 -34 -66 -36 -82 -16 -90 40 -15 170 101 298 266 65 84 86 129 111 239 l12 53 80 24 c99 29 103 29 107 2 2 -15 13 -24 36 -30 27 -7 32 -13 27 -29 -5 -15 1 -22 29 -34 27 -12 36 -21 36 -39 0 -16 11 -32 29 -46 16 -11 31 -30 33 -43 2 -13 16 -28 35 -37 18 -8 33 -22 33 -31 0 -20 31 -49 53 -49 9 0 30 -20 47 -44 21 -31 38 -46 57 -48 16 -2 32 -12 38 -24 18 -36 37 -54 57 -54 11 0 27 -14 39 -35 24 -41 48 -56 75 -49 14 4 22 -3 31 -25 9 -24 17 -31 38 -31 20 0 29 -8 40 -34 15 -34 45 -50 140 -71 38 -8 45 -20 45 -75 0 -52 30 -123 64 -155 13 -12 29 -46 37 -75 12 -47 19 -57 64 -85 27 -18 58 -48 69 -66 35 -64 87 -109 123 -109 29 0 37 -7 67 -53 34 -53 107 -127 126 -127 5 0 33 -29 61 -65 55 -71 125 -125 159 -125 13 0 49 -27 91 -68 38 -37 74 -68 78 -70 5 -2 16 4 24 13 14 13 21 9 74 -50 65 -72 192 -177 205 -169 4 3 2 17 -6 32 -20 40 -48 131 -44 142 2 6 32 -30 67 -80 75 -107 120 -149 200 -190 99 -49 124 -36 44 23 -54 39 -84 77 -107 130 -18 45 -31 127 -20 127 5 -1 43 -49 85 -108 71 -100 80 -109 148 -144 71 -38 121 -48 121 -27 0 6 -22 31 -49 55 -58 52 -121 149 -144 219 -19 59 -32 145 -22 145 3 0 51 -38 105 -84 93 -80 102 -85 167 -96 76 -14 125 -11 130 7 3 7 -8 15 -24 19 -52 13 -118 52 -159 96 -135 143 -225 284 -328 513 -32 72 -71 154 -87 182 -34 62 -36 73 -10 73 11 0 33 11 49 25 35 29 42 31 42 10 0 -22 44 -19 65 5 10 11 30 20 44 20 14 0 48 12 75 26 26 14 49 24 51 22 2 -2 -17 -50 -41 -107 -65 -150 -96 -333 -59 -347 22 -9 60 20 72 53 6 15 16 55 22 88 6 33 25 94 43 135 29 68 33 87 38 200 l5 125 54 -3 c48 -3 61 -9 105 -48 55 -49 110 -84 168 -110 23 -10 39 -25 42 -40 5 -18 13 -24 34 -24 36 0 49 -10 53 -40 2 -14 15 -30 28 -37 22 -11 65 -45 136 -110 13 -11 37 -24 53 -27 19 -5 31 -16 39 -36 7 -20 18 -30 32 -30 13 0 26 -12 37 -31 14 -28 19 -30 50 -25 30 6 35 4 44 -19 7 -17 17 -25 35 -25 19 0 28 -8 39 -34 8 -18 24 -40 35 -48 18 -13 21 -22 16 -54 -7 -43 22 -104 49 -104 9 0 24 -24 37 -61 18 -50 27 -61 49 -66 24 -4 28 -11 34 -49 9 -68 40 -122 73 -126 23 -3 30 -12 50 -61 30 -79 67 -127 98 -127 20 0 30 -11 51 -52 15 -29 42 -72 61 -96 31 -38 37 -41 47 -27 10 14 15 11 34 -23 12 -22 41 -56 63 -77 48 -43 59 -37 59 38 0 26 4 47 9 47 5 0 21 -31 36 -69 21 -57 38 -81 89 -128 61 -57 111 -91 121 -82 2 3 -7 36 -20 75 -14 38 -25 85 -25 104 0 33 4 29 70 -72 38 -58 79 -113 92 -122 27 -19 62 -21 55 -3 -71 174 -89 237 -69 237 6 0 28 -21 49 -47 79 -97 140 -151 183 -163 53 -14 61 -7 20 18 -17 11 -43 36 -56 56 -29 42 -66 125 -62 138 2 4 24 -9 49 -29 50 -42 145 -90 156 -80 4 4 -22 35 -56 70 -83 83 -121 150 -236 422 -115 272 -233 517 -306 635 -72 118 -85 146 -99 215 -22 106 -58 184 -135 291 -112 157 -110 147 -33 158 49 7 78 33 78 68 0 26 -15 22 -34 -7 -20 -31 -49 -27 -84 12 -34 37 -24 48 44 48 46 1 68 6 92 24 18 12 32 29 32 37 0 18 -31 18 -56 -1 -30 -23 -67 -18 -97 13 -26 27 -67 116 -67 146 0 8 19 25 43 39 75 45 246 172 317 236 38 34 84 87 102 118 37 62 47 68 193 105 117 29 256 48 356 48 59 0 102 6 129 16 39 16 51 15 213 -5 199 -26 262 -25 262 2 0 14 -30 28 -145 66 -210 70 -217 73 -235 118 -46 110 -151 158 -346 158 l-117 0 -222 -110 c-122 -60 -225 -115 -228 -120 -10 -16 -79 -42 -144 -56 -64 -13 -187 -3 -388 32 -133 24 -165 36 -200 74 -36 39 -71 54 -138 61 -84 9 -230 -29 -359 -95 -42 -21 -77 -31 -107 -31 -36 0 -52 -6 -78 -29 -18 -16 -76 -54 -128 -86 -188 -113 -420 -280 -420 -302 0 -8 13 -13 35 -13 19 0 35 -4 35 -10 0 -5 -23 -28 -51 -50 -50 -39 -51 -40 -85 -25 -19 8 -50 22 -69 30 -68 30 -128 37 -161 20 -16 -8 -46 -15 -67 -15 -31 0 -39 -4 -47 -25 -7 -19 -17 -25 -38 -25 -41 0 -44 -7 -21 -52 11 -22 18 -46 15 -53 -2 -7 -25 -16 -50 -19 -50 -8 -54 -14 -29 -52 l16 -25 -43 3 c-43 3 -44 4 -66 58 -24 62 -161 296 -224 383 -24 32 -76 84 -118 115 -41 31 -98 78 -126 104 -55 50 -171 230 -163 252 3 7 44 35 92 62 100 56 200 139 247 205 18 26 75 87 127 135 100 94 121 129 171 277 24 76 57 119 128 170 55 40 108 58 257 87 118 24 301 70 350 90 22 8 59 9 151 0 228 -20 334 -14 334 20 0 17 -76 49 -146 61 -142 24 -218 74 -305 201 -83 122 -265 161 -477 103 -198 -55 -275 -107 -395 -268 -45 -61 -98 -133 -115 -159 -19 -27 -41 -48 -51 -48 -9 0 -42 -13 -72 -29 -30 -17 -73 -34 -97 -39 -58 -13 -212 10 -305 47 -40 15 -115 36 -167 45 -52 10 -104 25 -115 34 -39 33 -136 162 -156 209 -18 43 -20 60 -13 183 9 180 1 205 -82 285 -39 37 -108 86 -177 125 -61 35 -173 100 -247 144 -74 44 -206 121 -292 171 -199 114 -415 293 -531 438 -37 45 -57 59 -57 37z"/> </g> </svg>