<?xml version="1.0" encoding="UTF-8"?>
<svg enable-background="new 0 0 345.6 255.1" viewBox="0 0 345.6 255.1" xmlns="http://www.w3.org/2000/svg">
 <g fill-rule="evenodd">
  <path d="m280.8,10.299c1.702-3.878 7.508.006 10.079,0-1.7,3.878-7.51-.006-10.08,0z" fill="#fff"/>
  <path d="m263.52 37.659h2.88v2.88h-2.88v-2.88z" fill="#fff"/>
  <path d="m244.8,54.939c1.86-3.597 6.98,1.523 5.76,5.76-3.7-.139-2.06-5.621-5.76-5.76z" fill="#fff"/>
  <path d="m254.88 60.699c2.389 3.372 7.646 3.874 7.2 10.08-3.58-2.176-6.58-4.936-7.2-10.08z" fill="#fff"/>
  <path d="m223.2,66.459c-.57-2.794 6.559-2.104 4.32,1.44h-2.88c.26-1.225-.56-1.358-1.44-1.44z" fill="#fff"/>
  <path d="m218.88 66.459h2.881v2.88h-2.881v-2.88z" fill="#fff"/>
  <path d="m223.2 70.779c-3.16 4.399-9.22-1.662 0 0z" fill="#fff"/>
  <path d="m165.6,80.859c-10.763,1.67-16.313,2.678-27.36,5.76 2.738-5.422 10.932-5.389 17.28-7.2-6.456-5.219 13.179-4.841 18.72-7.2 1.359,8.559-13.188,1.211-15.84,5.76-.85,3.426 8.6-4.102 7.2,2.88z" fill="#fff"/>
  <path d="m244.8 82.299c-5.31 2.371-10.155 5.205-18.721 4.32 4.64-3.044 10.88-4.475 18.72-4.32z" fill="#fff"/>
  <path d="m149.76 85.179c-1.633 3.648-6.383 4.178-11.521 4.32 2.76-2.522 7.51-3.052 11.52-4.32z" fill="#fff"/>
  <path d="m191.52 105.34c7.783-7.097 15.211-14.549 25.92-18.72-7.96 6.921-13.39 16.37-25.92 18.72z" fill="#fff"/>
  <path d="m246.24 86.619c-2.179 2.141-6.32 2.32-10.08 2.88 1.39-2.931 5.53-3.11 10.08-2.88z" fill="#fff"/>
  <path d="m224.64,98.139c3.71-1.57 6.921-3.639 8.64-7.2 .3,8.479-12.471,16.315-25.92,15.84 3.904-7.136 12.046-10.034 17.28-15.84-7.987,1.151-16.545,14.163-27.36,17.28 9.44-8.675 19.301-21.768 34.561-20.16 3.52,3.619-6.82,5.593-7.2,10.079z" fill="#fff"/>
  <path d="m123.84,96.699c-.201,4.119-6.006,2.633-10.08,2.88-2.99-1.704 7.4-2.085 10.08-2.88z" fill="#fff"/>
  <path d="m133.92 96.699c-6.13 4.411-12.31-1.765 0 0z" fill="#fff"/>
  <path d="m260.64,108.22c-15.098,27.366-47.677,52.262-90.721,46.08-3.999-.575-11.305-1.575-15.84-2.88-12.519-3.603-29.573-10.887-31.68-21.6 4.654-4.629 11.342-.04 18.72,0 14.577.079 32.682-3.3 44.641,2.88 19.052-4.947 40.562-7.437 51.84-20.16 .633-7.009 2.565-11.417 8.64-15.84 5.87,2.768 11.86,5.42 14.4,11.52z" fill="#fff"/>
  <path d="m79.2,99.579c-1.22,2.14-4.636,2.084-7.2,2.88 .212-3.149 3.628-3.093 7.2-2.881z" fill="#fff"/>
  <path d="m2.88,102.46c5.846-.566 10.033.527 10.08,5.76-5.314.03-9.916-.64-10.08-5.76z" fill="#fff"/>
  <path d="m161.28,102.46c-.629,1.771-1.843,2.958-4.32,2.88-.67-3.07 2.06-2.74 4.32-2.88z" fill="#fff"/>
  <path d="m136.8,105.34c-.62,3.22-7.097.583-10.08,1.44 2.37-1.84 7.81-3.73 10.08-1.44z" fill="#fff"/>
  <path d="m168.48,105.34c.445-1.955 3.605-1.195 5.76-1.44-.45,1.95-3.61,1.19-5.76,1.44z" fill="#fff"/>
  <path d="m105.12,106.78c.621-3.22 7.097-.583 10.08-1.44-.62,3.22-7.1.58-10.08,1.44z" fill="#fff"/>
  <path d="m119.52,105.34h2.88c.673,3.073-2.057,2.743-4.32,2.88 .27-1.17 1.44-1.44 1.44-2.88z" fill="#fff"/>
  <path d="m50.4,111.1c3.882-3.318 13.889-.511 20.16-1.44-3.882,3.32-13.889.51-20.16,1.44z" fill="#fff"/>
  <path d="m148.32 109.66c-1.702 2.617-7.508 1.132-10.08 2.88-1.16-5.48 6.81-1.83 10.08-2.88z" fill="#fff"/>
  <path d="m61.92,115.42c1.499-4.291 30.966-1.501 15.84,0-3.433.34-9.831-.25-15.84,0z" fill="#fff"/>
  <path d="m148.32,113.98c-.243-3.123 5.107-.652 7.2-1.44 .24,3.12-5.11.65-7.2,1.44z" fill="#fff"/>
  <path d="m146.88 115.42c-3.16 4.4-9.22-1.66 0 0z" fill="#fff"/>
  <path d="m89.28,118.3c.947-4.313 3.078,1.377 5.76,0-.217,3.58-4.876.42-5.76,0z" fill="#fff"/>
  <path d="m76.32,122.62c15.182-1.954 30.461.568 44.64,2.88-10.85,7.1-28.852-2.35-44.64-2.88z" fill="#fff"/>
  <path d="m174.24,122.62c.62-3.22 7.097-.583 10.08-1.44-.62,3.22-7.1.58-10.08,1.44z" fill="#fff"/>
  <path d="m178.56,157.18c-1.882,11.078-3.048,22.873-11.521,27.36v30.24c-2.773,1.906-5.794-1.057-10.08,1.439-.03-13.818-15.568-29.929-12.959-44.64 2.27-12.81 15.75-18.26 34.56-14.4z" fill="#fff"/>
  <path d="m194.4 158.62c-4.96 3.681-8.803 8.477-12.96 12.96-3.762-2.475 2.03-7.456 0-12.96 6.02 1.52 9.76-3.03 12.96 0z" fill="#fff"/>
  <path d="m162.72,219.1h4.319v5.76c-3.79.43-4.73-2-4.32-5.76z" fill="#fff"/>
  <path d="m149.76,216.22c-2.022-20.057-13.199-30.961-14.4-51.84 6.202-2.918 11.683-6.557 17.28-10.08-11.799-8.361-29.18-11.141-38.88-21.6-16.54-2.02-37.64-7.644-56.16-12.96-23.368-6.708-53.559,3.25-57.6-18.72 7.051-2.871 17.942-1.428 31.68-1.44-2.248-5.433-13.214-2.146-14.4-8.64 3.614,1.187 12.399-2.799 11.52,2.88 3.409-1.892 11.225-3.028 18.72-2.88 6.95.138 14.648,3.077 23.04,2.88 18.638-.437 43.492-5.482 59.04-11.52 16.574-6.437 32.256-15.523 50.399-20.16 19.021-4.861 37.751-8.265 59.04-10.08 .49-2.89-.294-4.505-2.88-4.32 18.491.524 20.889-24.359 30.24-37.44 7.367-1.684 11.049-9.151 18.72-10.08 18.087-2.191 30.779,12.425 36,27.36 8.65,1.43 17.242,2.918 24.48,5.76-5.355,5.301-14.126.319-21.601,1.44-7.902,1.185-27.621,11.396-33.12,18.72-6.893,9.182-9.896,25.258-15.84,37.44-5.826,11.943-12.703,24.492-20.16,33.12-4.945,5.724-10.273,5.938-12.96,14.4-30.236,17.764-72.486,23.514-69.119,74.88 23.354-6.044 56.614-14.125 90.72-10.08 4.082.484 8.964,2.34 12.96,2.881 8.037,1.086 17.648-1.676 23.04,4.319-3.431,4.717-9.597-.71-14.4-1.439-14.287-2.172-28.296-2.058-46.08-2.88-2.098-.098-7.428.28-8.64,0-5.646-1.309 1.427-2.755-8.64,0-14.861,4.065-33.78,6.63-48.96,11.52 .294,4.506-.972,10.571 1.439,12.96 6.527-.193 9.917-3.523 15.84-4.32 4.097,5.148-6.911,4.814-8.64,8.641 4.855,2.476 14.729-3.651 21.6,0-2.031,7.088-14.618,3.621-20.16,7.2 1.36,7.28 16.079,1.201 17.28,8.64-21.88,3.466-40.622-5.307-46.08-25.92-6.042.815 2.047,10.428-1.439,12.96-6.981-.219-5.657-8.743-5.761-15.84-31.958,5.962-58.722,17.117-86.399,27.359-1.279.424-6.305,3.896-2.88,4.32-1.356.941-7.265-.15-11.52,1.44 3.262-2.089 5.915-7.855 5.76-5.761 14.668-7.449 39.901-10.261 54.72-21.6 12.93-1.21 30.3-5.97 43.2-11.52zm141.12-205.92c-2.571.006-8.377-3.878-10.079,0 2.57-.006 8.38,3.878 10.08,0zm-23.04,5.76c6.097-2.818 9.408-.478 12.96-4.32-5.17.589-11.16.365-12.96,4.32zm17.28,14.4c-5.818-3.55-1.593-11.441 2.88-12.96-7.78-4.324-20.227-1.34-24.479,5.76 5.972-2.471 6.172-5.132 14.399-2.88 1.54,3.329 4,13.18 7.2,10.08zm7.2,1.44c5.166,2.441 15.635-1.095 23.04-4.32 1.762-6.562-3.95-5.65-2.88-11.52-7.901.739-9.765,7.516-18.72,7.2 1.82,4.39-4.92,7.332-1.44,8.64zm-25.92,12.96c-4.542-.636-8.001-7.119-11.521-4.32-3.234,7.094 8.1,10.737 8.641,18.72 11.117-2.07 13.137,6.243 21.6,2.88 .238-16.082 13.209-19.432 23.04-25.92-13.51,3.287-24.34,9.26-41.76,8.64zm-2.88-4.32h2.88v-2.88h-2.88v2.88zm-12.96,20.16c1.221-4.237-3.899-9.357-5.76-5.76 3.7.139 2.06,5.621 5.76,5.76zm-1.44,8.64c6.646-.406 7.76,4.72 10.08,8.64 3.504,1.776 9.346,1.214 10.08,5.76-4.644.708-8.51-6.721-11.52-2.88 4.598,3.082 9.841,5.519 17.279,5.76-1.044-4.404 2.484-4.235 1.44-8.64-3.87-1.355-8.516-7.557-11.521-1.44-3.713-3.966-10.119-5.24-11.52-11.52-6.293.95-7.31-10.847-11.521-7.2 2.94,3.298 7.04,5.443 7.2,11.52zm12.96,1.44c.446-6.206-4.812-6.708-7.2-10.08 .62,5.144 3.62,7.904 7.2,10.08zm-63.36-4.32c3.514.822 11.043-5.433 7.199-2.88-3.57-.212-6.99-.268-7.2,2.88zm43.2,1.44c-.096-2.47-4.399-7.856-5.76-4.32 2.94.424 2.82,3.897 5.76,4.32zm-83.52,10.08c2.651-4.548 17.199,2.799 15.84-5.76-5.541,2.359-25.176,1.98-18.72,7.2-6.349,1.812-14.542,1.778-17.28,7.2 11.047-3.082 16.598-4.09 27.36-5.76 1.4-6.982-8.05.546-7.2-2.88zm-20.16,11.52c5.138-.142 9.888-.672 11.521-4.32-4.01,1.268-8.76,1.798-11.52,4.32zm14.4,5.76c8.09,1.326 12.642-8.419 18.72-4.32-3.912.888-6.744,2.856-8.64,5.76 10.044-4.539 8.742-1.944 15.84-2.88-1.164,2.676-1.862,5.818-4.32,7.2 9.576-4.344 16.981-10.858 25.92-15.84-8.279.36-11.218,6.062-18.72,7.2 8.336-9.502 24.314-10.474 37.439-14.4 5.08-1.519 11.198-3.686 14.4-7.2-6.188,3.266-13.296,2.297-20.16,4.32-13.022,3.837-25.241,15.15-36,10.08 13.438-2.883 25.673-6.968 36-12.96-4.033.766-7.486,2.114-11.52,2.88-1.095-3.66 9.84-2.416 4.319-5.76-9.969,3.485-23.249,11.292-33.119,10.08 12.821-4.938 27.304-8.216 38.88-14.4-15.917,4.73-39.385,9.567-46.08,18.72 1.406-4.772 2.847,1.608 4.319,1.44 7.617-2.008 16.911-9.936 24.48-7.2-15.11,4.57-28.95,10.409-41.76,17.279zm27.36,5.761c12.95-.869 19.272-12.783 30.24-17.28 9.156-3.754 19.255-2.916 28.8-8.64-22.46.169-43.99,13.561-59.04,25.92zm5.76,2.88c10.237-3.696 22.029-13.473 25.92-18.72-9.55,5.333-17.97,11.785-25.92,18.72zm31.68-17.281c-10.709,4.171-18.137,11.623-25.92,18.72 12.53-2.35 17.96-11.799 25.92-18.721zm14.4,1.44c-15.26-1.608-25.12,11.485-34.561,20.16 10.815-3.118 19.373-16.129 27.36-17.28-5.234,5.806-13.376,8.704-17.28,15.84 13.449.475 26.22-7.361 25.92-15.84-1.719,3.561-4.93,5.63-8.64,7.2 .38-4.487 10.72-6.461 7.2-10.081zm-7.2-20.16h2.88c2.238-3.544-4.891-4.235-4.32-1.44 .88.082 1.7.215 1.44,1.44zm-41.76,4.32c3.711-2.53 10.404-2.077 12.961-5.76-8.938,1.453-18.175-.73-25.921,4.32 8.47.882 15.83-3.429 12.96,1.44zm36-2.88h2.881v-2.88h-2.881v2.88zm4.32,1.44c-9.22-1.662-3.16,4.399 0,0zm12.96,8.64c-5.761,1.264-14.664,1.957-17.28,5.76 10.188-.372 14.883-6.237 25.921-5.76 .22-6.523-6.07-.564-8.64,0zm-10.08,7.2c8.565.885 13.411-1.949 18.721-4.32-7.84-.155-14.08,1.276-18.72,4.32zm-100.8,5.76c1.85-.36 3.894.276 5.76,0 2.895-2.455 8.435-5.335 2.88-8.64-4.25,8.298-33.71,13.519-8.64,8.64zm33.12-7.2c-11.65,3.675 9.52-2.499 0,0zm-14.4,10.08c7.923-3.117 17.128-4.951 23.04-10.08-8.88,2.156-17,5.079-23.04,10.08zm92.16-5.76c3.76-.56 7.901-.739 10.08-2.88-4.55-.23-8.69-.051-10.08,2.88zm0,11.521c5.175-2.025 9.564-4.835 10.08-11.52-9.314,2.206-16.049,6.991-17.28,17.28 5.343-3.778 6.367-11.874 12.96-14.4-.004,1.444 1.167,1.713 1.44,2.88-4.22.097-5.35,3.291-7.2,5.76zm-126.72-10.081c-.25,9.231 7.87-1.792 0,0zm-20.16,8.64c15.807-1.657 8.223-2.189 15.84-7.2-5.675,2.005-13.808,1.553-15.84,7.2zm48.96-2.88c3.984,1.901 4.944-5.693 2.88-1.44-2.02-.108-5.51.322-2.88,1.44zm-24.48,2.88c4.074-.247 9.879,1.239 10.08-2.88-2.68.795-13.07,1.176-10.08,2.88zm20.16-2.88c-12.31-1.765-6.13,4.411 0,0zm112.32,0c-6.074,4.423-8.007,8.831-8.64,15.84-11.277,12.723-32.788,15.213-51.84,20.16-11.959-6.18-30.063-2.801-44.641-2.88-7.377-.04-14.066-4.629-18.72,0 2.107,10.713 19.161,17.997 31.68,21.6 4.535,1.305 11.841,2.306 15.84,2.88 43.044,6.182 75.623-18.714 90.721-46.08-2.54-6.1-8.53-8.752-14.4-11.521zm-174.24,5.761c2.564-.796 5.98-.74 7.2-2.88-3.572-.213-6.988-.269-7.2,2.88zm15.84,2.88c-3.253-.806 1.746-2.247-1.44-4.32-2.564.796-5.98.74-7.2,2.88 5.093-2.53 7.419,4.84 8.64,1.44zm-74.88,2.88c-.047-5.233-4.234-6.326-10.08-5.76 .164,5.12 4.766,5.79 10.08,5.76zm144-2.88c2.478.077 3.691-1.109 4.32-2.88-2.26.14-4.99-.19-4.32,2.88zm-30.24,1.44c2.983-.857 9.46,1.78 10.08-1.44-2.27-2.29-7.71-.4-10.08,1.44zm47.52-2.88c-2.154.245-5.314-.515-5.76,1.44 2.15-.25 5.31.51 5.76-1.44zm-59.04,1.44c-2.983.856-9.459-1.78-10.08,1.44 2.98-.86 9.46,1.78 10.08-1.44zm2.88,2.88c2.263-.137 4.993.193 4.32-2.88h-2.88c0,1.44-1.17,1.71-1.44,2.88zm53.28,1.44c.017-1.903 2.523-1.316 2.88-2.88-6.122,2.518-16.208,1.072-24.479,1.44-.323-1.118-.04-2.84-1.44-2.88 .72,8.4 15.64,2.6 23.04,4.32zm-44.64,5.76c-8.143-.526-18.064-6.856-23.04-5.76 5.08,3.59 15.1,9.82 23.04,5.76zm-56.16-5.76c-6.271.929-16.278-1.878-20.16,1.44 6.271-.93 16.278,1.88 20.16-1.44zm67.68,2.88c2.572-1.748 8.378-.263 10.08-2.88-3.27,1.05-11.24-2.6-10.08,2.88zm34.56-1.44c-2.395.172-13.042-.787-8.641,1.44 4.354,1.337 11.199-2.057 11.521,0-5.452,4.366-12.534.635-20.16,4.32 6.14-2.204 8.62,6.61 12.96,1.44-1.117-.323-2.841-.04-2.88-1.44 7.749-2.811 22.565,1.445 25.92-5.76-2.794,1.611-19.444,3.127-11.521-1.44-3.34-.46-5.53.23-7.2,1.44zm-95.04,4.32c15.126-1.501-14.341-4.291-15.84,0 6.009-.25 12.407.34 15.84,0zm77.76-2.88c-2.093.788-7.443-1.683-7.2,1.44 2.09-.79 7.44,1.68 7.2-1.44zm-8.64,2.88c-9.22-1.66-3.16,4.4 0,0zm-51.84,2.88c-2.682,1.377-4.813-4.313-5.76,0 .884.42 5.543,3.58 5.76,0zm25.92,7.2c-14.179-2.312-29.458-4.834-44.64-2.88 15.788.53 33.79,9.98 44.64,2.88zm63.36-4.32c-2.983.857-9.46-1.78-10.08,1.44 2.98-.86 9.46,1.78 10.08-1.44zm-40.32,50.4c-2.609,14.711 12.929,30.821 12.959,44.64 4.286-2.496 7.307.467 10.08-1.439v-30.24c8.473-4.487 9.639-16.282 11.521-27.36-18.81-3.86-32.29,1.59-34.56,14.4zm37.44-12.96c2.03,5.504-3.762,10.485 0,12.96 4.157-4.483 8-9.279 12.96-12.96-3.2-3.03-6.94,1.52-12.96,0zm-14.4,66.24v-5.76h-4.319c-.41,3.76.53,6.19 4.32,5.76z"/>
  <path d="m280.8 11.739c-3.552 3.842-6.863 1.501-12.96 4.32 1.8-3.955 7.79-3.731 12.96-4.32z" fill="#fff"/>
  <path d="m277.92,20.379c-8.228-2.252-8.428.409-14.399,2.88 4.253-7.101 16.699-10.084 24.479-5.76-4.473,1.519-8.698,9.41-2.88,12.96-3.2,3.1-5.66-6.751-7.2-10.08z" fill="#fff"/>
  <path d="m293.76,23.259c8.955.315 10.818-6.461 18.72-7.2-1.07,5.87 4.642,4.958 2.88,11.52-7.405,3.225-17.874,6.762-23.04,4.32-3.48-1.308 3.26-4.25 1.44-8.64z" fill="#fff"/>
  <path d="m308.16,36.219c-9.831,6.488-22.802,9.838-23.04,25.92-8.463,3.363-10.482-4.95-21.6-2.88-.541-7.983-11.875-11.626-8.641-18.72 3.52-2.799 6.979,3.685 11.521,4.32 17.42.62 28.25-5.353 41.76-8.64z" fill="#fff"/>
  <path d="m241.92,57.819c4.211-3.647 5.228,8.15 11.521,7.2 1.4,6.28 7.807,7.554 11.52,11.52 3.005-6.117 7.65.085 11.521,1.44 1.044,4.405-2.484,4.236-1.44,8.64-7.438-.241-12.682-2.678-17.279-5.76 3.01-3.841 6.876,3.587 11.52,2.88-.734-4.546-6.576-3.984-10.08-5.76-2.32-3.92-3.434-9.046-10.08-8.64-.16-6.077-4.26-8.222-7.2-11.52z" fill="#fff"/>
  <path d="m205.92,63.579c3.844-2.553-3.686,3.702-7.199,2.88 .21-3.148 3.63-3.092 7.2-2.88z" fill="#fff"/>
  <path d="m236.16,63.579c1.36-3.536 5.664,1.85 5.76,4.32-2.94-.423-2.82-3.896-5.76-4.32z" fill="#fff"/>
  <path d="m194.4,77.979c-7.569-2.736-16.863,5.192-24.48,7.2-1.473.168-2.913-6.212-4.319-1.44 6.695-9.153 30.163-13.99 46.08-18.72-11.576,6.184-26.059,9.462-38.88,14.4 9.87,1.212 23.15-6.595 33.119-10.08 5.521,3.344-5.414,2.1-4.319,5.76 4.033-.766 7.486-2.114 11.52-2.88-10.327,5.992-22.562,10.077-36,12.96 10.759,5.07 22.978-6.243 36-10.08 6.864-2.022 13.972-1.054 20.16-4.32-3.202,3.514-9.32,5.681-14.4,7.2-13.125,3.927-29.104,4.898-37.439,14.4 7.502-1.139 10.44-6.84 18.72-7.2-8.938,4.981-16.344,11.496-25.92,15.84 2.458-1.382 3.156-4.524 4.32-7.2-7.098.936-5.796-1.659-15.84,2.88 1.896-2.904 4.728-4.873 8.64-5.76-6.078-4.099-10.63,5.646-18.72,4.32 12.81-6.871 26.65-12.71 41.76-17.281z" fill="#fff"/>
  <path d="m211.68 85.179c-3.891 5.248-15.683 15.024-25.92 18.72 7.95-6.935 16.37-13.387 25.92-18.721z" fill="#fff"/>
  <path d="m239.04 75.099c-9.545 5.724-19.644 4.886-28.8 8.64-10.968 4.497-17.29 16.411-30.24 17.28 15.05-12.359 36.58-25.751 59.04-25.921z" fill="#fff"/>
  <path d="m169.92,70.779c7.746-5.05 16.982-2.868 25.921-4.32-2.557,3.684-9.25,3.23-12.961,5.76 2.87-4.869-4.49-.558-12.96-1.44z" fill="#fff"/>
  <path d="m244.8,79.419c-11.038-.477-15.732,5.388-25.921,5.76 2.616-3.803 11.52-4.496 17.28-5.76 2.57-.564 8.86-6.523 8.64,0z" fill="#fff"/>
  <path d="m133.92,83.739c5.555,3.305.015,6.185-2.88,8.64-1.867.276-3.91-.36-5.76,0-25.07,4.879 4.39-.342 8.64-8.64z" fill="#fff"/>
  <path d="m158.4 85.179c9.52-2.499-11.65 3.675 0 0z" fill="#fff"/>
  <path d="m167.04 85.179c-5.911 5.129-15.116 6.963-23.04 10.08 6.04-5.001 14.16-7.924 23.04-10.08z" fill="#fff"/>
  <path d="m243.36,95.259c-.273-1.167-1.444-1.436-1.44-2.88-6.593,2.526-7.617,10.622-12.96,14.4 1.231-10.289 7.966-15.074 17.28-17.28-.516,6.685-4.905,9.495-10.08,11.52 1.85-2.469 2.98-5.663 7.2-5.761z" fill="#fff"/>
  <path d="m109.44,90.939c7.87-1.792-.25,9.231 0,0z" fill="#fff"/>
  <path d="m105.12,92.379c-7.617,5.01-.033,5.542-15.84,7.2 2.032-5.647 10.165-5.195 15.84-7.2z" fill="#fff"/>
  <path d="m141.12,95.259c2.064-4.253 1.104,3.341-2.88,1.44-2.63-1.118.86-1.548 2.88-1.44z" fill="#fff"/>
  <path d="m79.2 103.9c1.22-2.141 4.636-2.084 7.2-2.88 3.186 2.074-1.813 3.514 1.44 4.32-1.221 3.4-3.547-3.97-8.64-1.44z" fill="#fff"/>
  <path d="m148.32,105.34c1.4.04 1.117,1.762 1.44,2.88 8.271-.368 18.357,1.078 24.479-1.44-.356,1.563-2.863.977-2.88,2.88-7.4-1.72-22.32,4.08-23.04-4.32z" fill="#fff"/>
  <path d="m103.68 109.66c4.976-1.097 14.897 5.233 23.04 5.76-7.94 4.06-17.96-2.17-23.04-5.76z" fill="#fff"/>
  <path d="m180,109.66c-7.924,4.567 8.727,3.051 11.521,1.44-3.354,7.206-18.171,2.95-25.92,5.76 .039,1.4 1.763,1.117 2.88,1.44-4.34,5.17-6.82-3.644-12.96-1.44 7.626-3.686 14.708.045 20.16-4.32-.321-2.057-7.167,1.337-11.521,0-4.401-2.227 6.246-1.268 8.641-1.44 1.67-1.21 3.86-1.9 7.2-1.44z" fill="#fff"/>
 </g>
</svg>
