<?xml version="1.0" standalone="no"?>
<!DOCTYPE svg PUBLIC "-//W3C//DTD SVG 20010904//EN"
 "http://www.w3.org/TR/2001/REC-SVG-20010904/DTD/svg10.dtd">
<svg version="1.0" xmlns="http://www.w3.org/2000/svg"
 width="1280.000000pt" height="1154.000000pt" viewBox="0 0 1280.000000 1154.000000"
 preserveAspectRatio="xMidYMid meet">
<metadata>
Created by potrace 1.15, written by Peter Selinger 2001-2017
</metadata>
<g transform="translate(0.000000,1154.000000) scale(0.100000,-0.100000)"
fill="#000000" stroke="none">
<path d="M793 11511 c-34 -16 -88 -47 -120 -69 -32 -21 -73 -44 -91 -52 -18
-7 -49 -26 -69 -41 -38 -31 -75 -43 -162 -54 -41 -6 -62 -15 -91 -41 -21 -19
-75 -52 -121 -73 -46 -21 -97 -51 -113 -66 -28 -26 -28 -28 -22 -98 11 -118
19 -132 145 -257 64 -63 130 -130 145 -148 16 -19 60 -54 96 -78 66 -43 111
-83 201 -180 25 -27 59 -59 76 -71 17 -13 48 -49 68 -80 55 -85 73 -102 145
-138 36 -18 89 -49 119 -69 29 -20 55 -36 58 -36 3 0 25 -18 48 -39 42 -38 95
-61 144 -61 18 0 22 -4 16 -17 -14 -36 -17 -91 -6 -112 14 -26 76 -58 129 -67
36 -6 41 -10 47 -41 5 -30 0 -45 -29 -93 -43 -69 -44 -93 -10 -143 23 -35 28
-37 61 -31 31 6 35 5 29 -12 -59 -196 -58 -192 -52 -339 10 -265 60 -473 190
-793 51 -124 68 -179 80 -262 9 -58 25 -144 35 -193 16 -72 20 -138 22 -374
l3 -286 -37 -13 c-20 -7 -63 -31 -95 -54 l-59 -42 -66 10 c-125 20 -210 77
-317 212 -45 58 -84 97 -110 110 -77 39 -99 21 -77 -65 11 -45 15 -50 40 -51
21 -1 45 -18 91 -65 103 -104 220 -192 276 -206 58 -15 -132 -24 -285 -13
-207 15 -188 19 -260 -53 -83 -83 -125 -150 -125 -199 0 -39 10 -49 61 -61 23
-6 27 -3 37 31 7 20 36 66 65 102 68 83 88 88 283 66 203 -23 240 -21 350 16
84 28 96 30 109 17 14 -13 12 -18 -12 -41 -40 -37 -176 -133 -253 -178 -65
-38 -66 -39 -78 -97 -17 -82 -17 -81 29 -93 56 -15 73 -10 79 25 4 25 25 43
139 119 74 48 157 112 185 140 97 99 227 251 270 317 51 79 108 217 129 314
36 164 28 374 -18 525 -14 46 -28 118 -31 160 -4 41 -24 144 -46 228 -21 84
-38 161 -36 170 3 12 46 -24 153 -128 83 -80 195 -180 250 -223 55 -42 117
-95 137 -119 170 -199 483 -542 598 -658 226 -225 568 -534 625 -564 77 -41
233 -161 306 -237 l85 -88 -55 -11 c-163 -33 -454 -137 -666 -240 -66 -32
-133 -61 -148 -64 -16 -4 -40 -19 -54 -34 -37 -40 -160 -303 -175 -374 l-13
-61 35 -28 c249 -201 374 -321 415 -396 20 -38 34 -53 49 -53 14 -1 43 -30 91
-91 75 -97 208 -218 393 -357 62 -46 121 -95 131 -108 10 -13 22 -24 27 -24
15 0 135 -84 154 -108 58 -73 -9 -113 -284 -168 l-186 -38 -113 22 c-143 28
-171 28 -191 0 -23 -33 -20 -67 7 -77 12 -5 83 -16 157 -25 148 -18 170 -23
170 -36 0 -10 -53 -42 -100 -60 -19 -8 -53 -26 -75 -40 -51 -35 -95 -49 -203
-65 -48 -8 -121 -25 -162 -40 -116 -40 -151 -42 -202 -12 -24 14 -52 34 -62
46 -27 29 -36 26 -36 -12 0 -28 -6 -37 -35 -53 -47 -25 -50 -41 -12 -65 26
-17 41 -19 82 -13 28 4 118 8 202 8 141 1 153 3 182 24 17 12 54 27 82 32 28
5 55 12 60 15 15 10 10 -12 -10 -47 -11 -18 -36 -75 -57 -127 -32 -80 -48
-106 -104 -165 -66 -70 -120 -157 -120 -195 0 -10 -30 -57 -67 -104 -38 -47
-82 -105 -99 -129 -20 -29 -63 -66 -118 -102 -47 -31 -91 -66 -97 -78 -10 -19
-8 -25 15 -45 15 -13 36 -23 48 -23 32 0 85 37 119 85 21 30 45 48 76 60 54
21 113 70 113 95 0 10 24 51 54 91 29 41 75 115 101 164 53 100 126 214 138
215 11 0 8 -51 -7 -133 -9 -43 -41 -135 -77 -218 -62 -143 -62 -145 -71 -269
-4 -69 -12 -141 -18 -161 -5 -20 -10 -70 -10 -111 0 -49 -7 -95 -20 -134 -11
-32 -18 -70 -15 -84 5 -24 -13 -59 -69 -135 -8 -11 -16 -40 -18 -65 l-3 -45
60 0 60 0 5 50 c4 39 14 61 48 103 38 49 42 59 42 111 0 45 5 64 25 91 23 31
25 43 25 130 0 111 10 148 55 207 31 41 32 46 28 110 -6 85 18 216 51 282 16
31 29 81 36 136 6 48 17 99 25 114 18 35 84 98 115 109 14 5 85 46 158 90 117
71 144 83 230 103 53 12 123 33 156 46 32 13 65 22 72 19 34 -13 5 -97 -73
-210 -29 -43 -33 -55 -33 -117 0 -66 -1 -70 -56 -151 -69 -100 -90 -154 -73
-184 9 -17 8 -33 -5 -72 -27 -81 1 -113 65 -75 34 20 38 33 27 92 -7 38 -5 48
12 66 11 12 33 66 50 120 16 56 37 106 47 113 62 45 64 49 61 124 l-2 71 53
49 c52 48 54 51 61 119 4 39 9 71 11 73 2 1 34 19 71 39 111 62 166 148 153
241 -4 28 -10 108 -14 177 l-6 126 -58 76 c-60 80 -125 182 -267 418 -47 78
-97 153 -111 168 -160 159 -198 189 -339 265 -36 19 -74 41 -85 50 l-20 15 20
1 c11 0 137 2 280 3 197 3 278 8 334 20 116 27 375 115 414 141 63 43 68 42
158 -27 78 -59 87 -70 139 -168 31 -57 77 -126 102 -154 25 -27 146 -122 269
-210 228 -162 353 -258 423 -324 69 -65 421 -491 463 -561 12 -19 51 -99 87
-178 37 -79 125 -264 196 -410 70 -147 151 -323 178 -392 28 -69 82 -195 122
-280 46 -100 93 -223 131 -347 102 -331 184 -521 295 -684 374 -547 585 -807
872 -1076 293 -274 388 -342 682 -485 360 -176 470 -219 718 -282 367 -94 650
-132 907 -122 174 6 229 14 560 75 414 77 540 103 639 133 101 30 447 167 534
212 67 35 253 228 289 300 30 61 25 82 -18 71 -13 -3 -66 -39 -117 -79 -51
-40 -123 -89 -160 -108 -311 -165 -270 -152 -752 -248 -405 -82 -579 -101
-920 -103 -233 -1 -246 1 -695 112 l-240 59 -210 106 c-340 171 -515 283 -780
502 -166 137 -146 114 -531 588 -151 187 -292 434 -382 671 -28 72 -80 207
-117 300 -79 199 -205 569 -241 705 -14 52 -59 169 -101 260 -105 230 -175
405 -218 545 -118 394 -241 723 -383 1022 -49 104 -135 290 -191 415 -135 299
-185 384 -322 545 -159 188 -262 323 -330 428 -32 50 -72 107 -90 128 -28 34
-31 42 -27 87 3 31 20 79 43 124 20 40 42 99 49 131 6 32 16 60 21 62 6 2 48
-72 94 -164 95 -190 143 -269 224 -365 89 -104 102 -108 349 -108 164 0 208 3
217 14 7 8 30 128 51 268 42 266 70 412 96 489 19 59 102 140 179 175 82 38
132 34 224 -14 69 -36 85 -40 180 -46 88 -6 111 -11 155 -37 39 -22 66 -29
104 -29 42 0 57 -5 84 -29 41 -35 71 -51 97 -51 11 0 37 -14 57 -32 40 -35 52
-33 88 15 l20 27 -21 44 c-20 40 -25 44 -68 51 -60 8 -141 34 -235 74 -41 18
-93 36 -116 41 -74 17 -152 50 -206 88 -52 36 -55 37 -168 41 -78 4 -101 7
-71 11 41 5 44 8 58 48 13 40 13 46 -3 63 -24 27 -62 24 -136 -11 -34 -16 -68
-30 -74 -30 -6 0 -24 -10 -39 -22 -27 -21 -31 -21 -109 -9 -45 7 -94 13 -110
14 -30 2 -41 15 -50 58 -7 30 -45 43 -91 30 -47 -12 -53 -33 -26 -93 13 -29
23 -57 22 -63 0 -5 -4 -47 -9 -92 -7 -78 -9 -84 -42 -112 -41 -35 -98 -41
-126 -14 -25 26 -76 108 -117 190 -20 39 -41 75 -47 78 -6 4 -20 -1 -31 -11
-24 -22 -29 -17 -64 76 -49 130 -107 240 -224 422 -90 140 -115 181 -132 218
-17 37 -95 102 -165 138 -22 11 -68 26 -103 33 -55 12 -71 11 -129 -4 -37 -10
-87 -30 -112 -45 -42 -26 -49 -37 -96 -147 -77 -179 -141 -413 -153 -559 -6
-66 -15 -124 -19 -128 -6 -6 -42 21 -88 62 -71 65 -1174 1171 -1174 1177 0 2
11 3 24 3 42 0 56 24 49 83 -3 28 -10 60 -14 69 -14 26 -174 122 -379 226
-102 52 -201 107 -220 123 -19 17 -73 48 -120 70 -135 63 -140 66 -305 219
-162 149 -293 252 -403 316 -35 21 -84 60 -109 88 -43 48 -313 399 -483 630
-103 139 -110 147 -152 179 -32 24 -38 34 -38 66 0 63 -64 176 -125 221 -27
20 -130 95 -229 166 -126 91 -186 141 -204 169 -70 113 -93 123 -289 131
l-158 6 -62 -31z"/>
</g>
</svg>
